<svg viewBox="0 0 379 176" fill="none" xmlns="http://www.w3.org/2000/svg">
<path d="M49.3311 175.5L0.5 131.78V0.500008L327.731 0.505246L377.5 44.3882V175.5H49.3311Z" fill="url(#paint0_linear_1290_13546)" stroke="url(#paint1_linear_1290_13546)"/>
<g filter="url(#filter0_f_1290_13546)">
<ellipse cx="117.339" cy="29" rx="2.99812" ry="3" fill="#00D151" fill-opacity="0.16"/>
</g>
<mask id="mask0_1290_13546" style="mask-type:luminance" maskUnits="userSpaceOnUse" x="11" y="0" width="368" height="176">
<path fill-rule="evenodd" clip-rule="evenodd" d="M11.0918 0V132.003L58.813 176H378.178V44.1625L329.544 0.00524902L11.0918 0Z" fill="white"/>
</mask>
<g mask="url(#mask0_1290_13546)">
<g filter="url(#filter1_b_1290_13546)">
<path d="M340.857 102H279.813L251.857 153H312.902L340.857 102Z" stroke="white" stroke-opacity="0.12"/>
</g>
<path fill-rule="evenodd" clip-rule="evenodd" d="M280.232 23.6033L252.998 73.3967H312.482L339.717 23.6033H280.232ZM279.752 23L251.857 74H312.963L340.857 23H279.752Z" fill="#00D151"/>
<path d="M161.225 95.5L161.197 81.696H153.917V79.008H172.229V81.696H164.921V95.5H161.225ZM176.774 95.5C175.84 95.5 175.122 95.3787 174.618 95.136C174.114 94.8933 173.75 94.5853 173.526 94.212C173.32 93.8387 173.19 93.4467 173.134 93.036C173.096 92.6253 173.078 92.252 173.078 91.916V86.54C173.078 86.26 173.096 85.924 173.134 85.532C173.19 85.1213 173.32 84.72 173.526 84.328C173.75 83.936 174.114 83.6093 174.618 83.348C175.14 83.0867 175.859 82.956 176.774 82.956H182.794C184.026 82.956 184.987 83.0773 185.678 83.32C186.387 83.544 186.882 83.9173 187.162 84.44C187.46 84.9627 187.61 85.6627 187.61 86.54V90.684H182.71C181.03 90.684 179.658 90.6467 178.594 90.572C177.548 90.4973 176.848 90.4507 176.494 90.432V91.972C176.475 92.7187 176.923 93.092 177.838 93.092H179.266C180.274 93.092 181.254 93.0827 182.206 93.064C183.176 93.0267 184.063 92.9893 184.866 92.952C185.668 92.896 186.312 92.8493 186.798 92.812L187.918 94.632C187.918 95.2107 186.079 95.5 182.402 95.5H176.774ZM176.494 88.276H184.194V86.484C184.194 86.1107 184.147 85.8493 184.054 85.7C183.979 85.5507 183.736 85.4573 183.326 85.42C182.915 85.3827 182.215 85.364 181.226 85.364H177.838C176.942 85.364 176.494 85.7373 176.494 86.484V88.276ZM194.137 95.5C193.204 95.5 192.485 95.3787 191.981 95.136C191.477 94.8933 191.113 94.5853 190.889 94.212C190.684 93.8387 190.553 93.4467 190.497 93.036C190.46 92.6253 190.441 92.252 190.441 91.916V86.54C190.441 86.26 190.46 85.924 190.497 85.532C190.553 85.1213 190.684 84.72 190.889 84.328C191.113 83.936 191.477 83.6093 191.981 83.348C192.504 83.0867 193.222 82.956 194.137 82.956H198.029C200.362 82.956 202.014 83.0213 202.985 83.152C203.974 83.264 204.469 83.3853 204.469 83.516L203.909 85.644C203.386 85.6067 202.724 85.5693 201.921 85.532C201.118 85.476 200.25 85.4387 199.317 85.42C198.402 85.3827 197.506 85.364 196.629 85.364H195.201C194.305 85.364 193.857 85.7373 193.857 86.484V91.972C193.838 92.7187 194.286 93.092 195.201 93.092H196.629C197.637 93.092 198.617 93.0827 199.569 93.064C200.54 93.0267 201.426 92.9893 202.229 92.952C203.032 92.896 203.676 92.8493 204.161 92.812L205.281 94.632C205.281 95.2107 203.442 95.5 199.765 95.5H194.137ZM207.237 95.5V77.356H210.653V83.516C211.437 83.3667 212.379 83.236 213.481 83.124C214.582 83.012 215.842 82.956 217.261 82.956H218.661C219.594 82.956 220.313 83.0867 220.817 83.348C221.321 83.6093 221.675 83.936 221.881 84.328C222.105 84.72 222.235 85.1213 222.273 85.532C222.329 85.924 222.357 86.26 222.357 86.54V95.5H218.941V86.484C218.941 85.7373 218.493 85.364 217.597 85.364H211.493C211.138 85.364 210.905 85.4013 210.793 85.476C210.699 85.532 210.653 85.7 210.653 85.98V95.5H207.237ZM235.433 95.5C234.163 95.5 233.23 95.444 232.633 95.332C232.035 95.22 231.737 95.0893 231.737 94.94L232.857 92.504C233.286 92.5787 234.35 92.6533 236.049 92.728C237.766 92.784 240.118 92.812 243.105 92.812H243.637C244.439 92.812 245.009 92.672 245.345 92.392C245.681 92.0933 245.849 91.5987 245.849 90.908V90.348C245.849 89.6947 245.709 89.228 245.429 88.948C245.167 88.668 244.57 88.528 243.637 88.528H237.141C235.255 88.528 233.883 88.1827 233.025 87.492C232.166 86.7827 231.737 85.6347 231.737 84.048V83.6C231.737 82.7787 231.886 82.0227 232.185 81.332C232.502 80.6413 233.034 80.0907 233.781 79.68C234.527 79.2507 235.554 79.036 236.861 79.036H244.477C245.746 79.036 246.773 79.1013 247.557 79.232C248.341 79.3627 248.733 79.5027 248.733 79.652L248.173 82.004C247.687 81.948 246.586 81.892 244.869 81.836C243.151 81.7613 240.846 81.724 237.953 81.724L237.645 81.696C236.786 81.696 236.207 81.8733 235.909 82.228C235.61 82.564 235.451 82.9933 235.433 83.516V83.992C235.433 84.608 235.601 85.0747 235.937 85.392C236.291 85.6907 236.87 85.84 237.673 85.84H243.889C245.083 85.84 246.101 85.9613 246.941 86.204C247.781 86.4467 248.425 86.8947 248.873 87.548C249.321 88.1827 249.545 89.1253 249.545 90.376V90.824C249.545 92.224 249.181 93.3533 248.453 94.212C247.743 95.0707 246.502 95.5 244.729 95.5H235.433ZM256.652 95.5C255.233 95.5 254.262 95.2013 253.74 94.604C253.217 94.0067 252.956 93.1107 252.956 91.916V85.364H250.66V82.956H251.836C252.19 82.956 252.442 82.9 252.592 82.788C252.76 82.676 252.881 82.452 252.956 82.116L253.516 79.12H256.372V82.956H262.196V85.364H256.372V91.944C256.372 92.4107 256.484 92.7187 256.708 92.868C256.932 93.0173 257.268 93.092 257.716 93.092H261.664L261.944 95.22C261.552 95.276 260.954 95.3413 260.152 95.416C259.349 95.472 258.472 95.5 257.52 95.5H256.652ZM268.136 95.5C267.221 95.5 266.502 95.3787 265.98 95.136C265.476 94.8933 265.112 94.5853 264.888 94.212C264.682 93.8387 264.552 93.4467 264.496 93.036C264.458 92.6253 264.44 92.252 264.44 91.916V82.956H267.856V91.972C267.837 92.3827 267.968 92.672 268.248 92.84C268.546 93.008 268.864 93.092 269.2 93.092H274.744C275.154 93.092 275.397 93.0547 275.472 92.98C275.546 92.9053 275.584 92.6627 275.584 92.252V82.956H279V95.5H276.704L275.64 94.94C274.893 95.0893 274.006 95.22 272.98 95.332C271.972 95.444 270.833 95.5 269.564 95.5H268.136ZM285.766 95.5C284.833 95.5 284.114 95.3787 283.61 95.136C283.106 94.8933 282.742 94.5853 282.518 94.212C282.313 93.8387 282.182 93.4467 282.126 93.036C282.089 92.6253 282.07 92.252 282.07 91.916V86.54C282.07 86.26 282.089 85.924 282.126 85.532C282.182 85.1213 282.313 84.72 282.518 84.328C282.742 83.936 283.106 83.6093 283.61 83.348C284.133 83.0867 284.851 82.956 285.766 82.956H287.194C288.911 82.956 290.293 82.9933 291.338 83.068C292.402 83.124 293.214 83.1893 293.774 83.264V77.748H297.19V95.5H294.894L293.802 94.94C293.018 95.0707 292.075 95.2013 290.974 95.332C289.873 95.444 288.603 95.5 287.166 95.5H285.766ZM286.83 93.092H292.906C293.298 93.092 293.541 93.0453 293.634 92.952C293.727 92.8587 293.774 92.6253 293.774 92.252V85.56C293.139 85.5227 292.337 85.4853 291.366 85.448C290.395 85.392 289.359 85.364 288.258 85.364H286.83C285.934 85.364 285.486 85.7373 285.486 86.484V91.972C285.486 92.7187 285.934 93.092 286.83 93.092ZM302.822 81.192C302.132 81.192 301.628 81.052 301.31 80.772C300.993 80.492 300.834 80.0253 300.834 79.372C300.834 78.7 300.984 78.2333 301.282 77.972C301.6 77.692 302.113 77.552 302.822 77.552C303.532 77.552 304.045 77.692 304.362 77.972C304.68 78.2333 304.838 78.7 304.838 79.372C304.838 80.0067 304.68 80.4733 304.362 80.772C304.045 81.052 303.532 81.192 302.822 81.192ZM301.114 95.5V82.956H304.53V95.5H301.114ZM311.606 95.5C310.355 95.5 309.422 95.248 308.806 94.744C308.208 94.24 307.91 93.4187 307.91 92.28V86.54C307.91 86.26 307.928 85.924 307.966 85.532C308.022 85.1213 308.152 84.72 308.358 84.328C308.582 83.936 308.946 83.6093 309.45 83.348C309.972 83.0867 310.691 82.956 311.606 82.956H319.334C320.267 82.956 320.986 83.0867 321.49 83.348C321.994 83.6093 322.348 83.936 322.554 84.328C322.778 84.72 322.908 85.1213 322.946 85.532C323.002 85.924 323.03 86.26 323.03 86.54V91.916C323.03 92.252 323.002 92.6253 322.946 93.036C322.908 93.4467 322.778 93.8387 322.554 94.212C322.33 94.5853 321.966 94.8933 321.462 95.136C320.958 95.3787 320.248 95.5 319.334 95.5H311.606ZM312.67 93.092H318.27C319.184 93.092 319.642 92.7187 319.642 91.972V86.484C319.642 85.7373 319.184 85.364 318.27 85.364H312.67C311.774 85.364 311.326 85.7373 311.326 86.484V91.972C311.326 92.7187 311.774 93.092 312.67 93.092Z" fill="white"/>
<path fill-rule="evenodd" clip-rule="evenodd" d="M126.437 22.625H187.779L210.349 69.4991H209.38L187.233 23.4991H127.832L149.956 69.4991H148.984L126.437 22.625ZM169.186 111.499L189.63 153.999L250.757 153.416L230.573 111.499H229.601L249.367 152.555L190.173 153.12L170.155 111.499H169.186Z" fill="white" fill-opacity="0.12"/>
</g>
<g filter="url(#filter2_f_1290_13546)">
<ellipse cx="66.3708" cy="169" rx="1.99875" ry="2" fill="#00D151" fill-opacity="0.13"/>
</g>
<g filter="url(#filter3_f_1290_13546)">
<ellipse cx="91.3571" cy="146" rx="1.99875" ry="2" fill="#00D151"/>
</g>
<g filter="url(#filter4_f_1290_13546)">
<ellipse cx="77.3632" cy="148" rx="0.99895" ry="1" fill="#00D151"/>
</g>
<g filter="url(#filter5_f_1290_13546)">
<ellipse cx="59.3757" cy="20" rx="1.99875" ry="2" fill="#00D151" fill-opacity="0.74"/>
</g>
<g filter="url(#filter6_f_1290_13546)">
<ellipse cx="69.3692" cy="137" rx="2.99812" ry="3" fill="#00D151"/>
</g>
<g filter="url(#filter7_f_1290_13546)">
<ellipse cx="117.339" cy="98" rx="2.99812" ry="3" fill="#00D151" fill-opacity="0.28"/>
</g>
<defs>
<filter id="filter0_f_1290_13546" x="113.341" y="25" width="7.99609" height="8" filterUnits="userSpaceOnUse" color-interpolation-filters="sRGB">
<feFlood flood-opacity="0" result="BackgroundImageFix"/>
<feBlend mode="normal" in="SourceGraphic" in2="BackgroundImageFix" result="shape"/>
<feGaussianBlur stdDeviation="0.5" result="effect1_foregroundBlur_1290_13546"/>
</filter>
<filter id="filter1_b_1290_13546" x="242.213" y="92.7" width="108.289" height="69.6" filterUnits="userSpaceOnUse" color-interpolation-filters="sRGB">
<feFlood flood-opacity="0" result="BackgroundImageFix"/>
<feGaussianBlur in="BackgroundImageFix" stdDeviation="4.4"/>
<feComposite in2="SourceAlpha" operator="in" result="effect1_backgroundBlur_1290_13546"/>
<feBlend mode="normal" in="SourceGraphic" in2="effect1_backgroundBlur_1290_13546" result="shape"/>
</filter>
<filter id="filter2_f_1290_13546" x="63.3721" y="166" width="5.99707" height="6" filterUnits="userSpaceOnUse" color-interpolation-filters="sRGB">
<feFlood flood-opacity="0" result="BackgroundImageFix"/>
<feBlend mode="normal" in="SourceGraphic" in2="BackgroundImageFix" result="shape"/>
<feGaussianBlur stdDeviation="0.5" result="effect1_foregroundBlur_1290_13546"/>
</filter>
<filter id="filter3_f_1290_13546" x="86.8584" y="141.5" width="8.99707" height="9" filterUnits="userSpaceOnUse" color-interpolation-filters="sRGB">
<feFlood flood-opacity="0" result="BackgroundImageFix"/>
<feBlend mode="normal" in="SourceGraphic" in2="BackgroundImageFix" result="shape"/>
<feGaussianBlur stdDeviation="1.25" result="effect1_foregroundBlur_1290_13546"/>
</filter>
<filter id="filter4_f_1290_13546" x="75.3643" y="146" width="3.99805" height="4" filterUnits="userSpaceOnUse" color-interpolation-filters="sRGB">
<feFlood flood-opacity="0" result="BackgroundImageFix"/>
<feBlend mode="normal" in="SourceGraphic" in2="BackgroundImageFix" result="shape"/>
<feGaussianBlur stdDeviation="0.5" result="effect1_foregroundBlur_1290_13546"/>
</filter>
<filter id="filter5_f_1290_13546" x="56.377" y="17" width="5.99707" height="6" filterUnits="userSpaceOnUse" color-interpolation-filters="sRGB">
<feFlood flood-opacity="0" result="BackgroundImageFix"/>
<feBlend mode="normal" in="SourceGraphic" in2="BackgroundImageFix" result="shape"/>
<feGaussianBlur stdDeviation="0.5" result="effect1_foregroundBlur_1290_13546"/>
</filter>
<filter id="filter6_f_1290_13546" x="65.3711" y="133" width="7.99609" height="8" filterUnits="userSpaceOnUse" color-interpolation-filters="sRGB">
<feFlood flood-opacity="0" result="BackgroundImageFix"/>
<feBlend mode="normal" in="SourceGraphic" in2="BackgroundImageFix" result="shape"/>
<feGaussianBlur stdDeviation="0.5" result="effect1_foregroundBlur_1290_13546"/>
</filter>
<filter id="filter7_f_1290_13546" x="112.341" y="93" width="9.99609" height="10" filterUnits="userSpaceOnUse" color-interpolation-filters="sRGB">
<feFlood flood-opacity="0" result="BackgroundImageFix"/>
<feBlend mode="normal" in="SourceGraphic" in2="BackgroundImageFix" result="shape"/>
<feGaussianBlur stdDeviation="1" result="effect1_foregroundBlur_1290_13546"/>
</filter>
<linearGradient id="paint0_linear_1290_13546" x1="6.615" y1="12.76" x2="348.358" y2="188.854" gradientUnits="userSpaceOnUse">
<stop stop-color="#158341"/>
<stop offset="0.690448" stop-color="#58A577" stop-opacity="0.14"/>
</linearGradient>
<linearGradient id="paint1_linear_1290_13546" x1="-0.500003" y1="5.59088e-06" x2="377.5" y2="176" gradientUnits="userSpaceOnUse">
<stop stop-color="#89FDAA"/>
<stop offset="1" stop-color="#89FDAA" stop-opacity="0"/>
</linearGradient>
</defs>
</svg>
