<svg width="64" height="64" viewBox="0 0 64 64" fill="none" xmlns="http://www.w3.org/2000/svg">
<path d="M31.9201 5.3335C17.2001 5.3335 5.25342 17.2802 5.25342 32.0002C5.25342 46.7202 17.2001 58.6668 31.9201 58.6668C46.6401 58.6668 58.5867 46.7202 58.5867 32.0002C58.5867 17.2802 46.6667 5.3335 31.9201 5.3335ZM39.9201 37.9468L32.1867 42.4002C31.2267 42.9602 30.1601 43.2268 29.1201 43.2268C28.0534 43.2268 27.0134 42.9602 26.0534 42.4002C24.1334 41.2802 22.9867 39.3068 22.9867 37.0668V28.1335C22.9867 25.9202 24.1334 23.9202 26.0534 22.8002C27.9734 21.6802 30.2667 21.6802 32.2134 22.8002L39.9467 27.2535C41.8667 28.3735 43.0134 30.3468 43.0134 32.5868C43.0134 34.8268 41.8667 36.8268 39.9201 37.9468Z" fill="#288DFF"/>
</svg>
