<svg viewBox="0 0 378 176" fill="none" xmlns="http://www.w3.org/2000/svg">
<path d="M49.3311 175.5L0.5 131.78V0.500008L327.731 0.505246L377.5 44.3882V175.5H49.3311Z" fill="url(#paint0_linear_1290_13513)" stroke="url(#paint1_linear_1290_13513)"/>
<g filter="url(#filter0_f_1290_13513)">
<ellipse cx="117.274" cy="29" rx="2.99685" ry="3" fill="#056381" fill-opacity="0.16"/>
</g>
<mask id="mask0_1290_13513" style="mask-type:luminance" maskUnits="userSpaceOnUse" x="11" y="0" width="367" height="176">
<path fill-rule="evenodd" clip-rule="evenodd" d="M11.0742 0V132.003L58.7745 176H378V44.1625L329.387 0.00524902L11.0742 0Z" fill="white"/>
</mask>
<g mask="url(#mask0_1290_13513)">
<g filter="url(#filter1_b_1290_13513)">
<path d="M340.805 102H279.76L251.805 153H312.85L340.805 102Z" stroke="white" stroke-opacity="0.12"/>
</g>
<path fill-rule="evenodd" clip-rule="evenodd" d="M280.18 23.6033L252.945 73.3967H312.43L339.664 23.6033H280.18ZM279.699 23L251.805 74H312.911L340.805 23H279.699Z" fill="white" fill-opacity="0.11"/>
<path d="M147.397 95L139.585 78.564H143.505L148.769 89.904L149.525 91.92H149.777L150.505 89.904L155.825 78.564H159.633L159.185 80.244L151.877 95H147.397ZM163.897 95C162.963 95 162.245 94.8787 161.741 94.636C161.237 94.3933 160.873 94.0853 160.649 93.712C160.443 93.3387 160.313 92.9467 160.257 92.536C160.219 92.1253 160.201 91.752 160.201 91.416V86.04C160.201 85.76 160.219 85.424 160.257 85.032C160.313 84.6213 160.443 84.22 160.649 83.828C160.873 83.436 161.237 83.1093 161.741 82.848C162.263 82.5867 162.982 82.456 163.897 82.456H169.917C171.149 82.456 172.11 82.5773 172.801 82.82C173.51 83.044 174.005 83.4173 174.285 83.94C174.583 84.4627 174.733 85.1627 174.733 86.04V90.184H169.833C168.153 90.184 166.781 90.1467 165.717 90.072C164.671 89.9973 163.971 89.9507 163.617 89.932V91.472C163.598 92.2187 164.046 92.592 164.961 92.592H166.389C167.397 92.592 168.377 92.5827 169.329 92.564C170.299 92.5267 171.186 92.4893 171.989 92.452C172.791 92.396 173.435 92.3493 173.921 92.312L175.041 94.132C175.041 94.7107 173.202 95 169.525 95H163.897ZM163.617 87.776H171.317V85.984C171.317 85.6107 171.27 85.3493 171.177 85.2C171.102 85.0507 170.859 84.9573 170.449 84.92C170.038 84.8827 169.338 84.864 168.349 84.864H164.961C164.065 84.864 163.617 85.2373 163.617 85.984V87.776ZM177.844 95V82.456H180.14L181.26 83.016C182.044 82.8667 182.987 82.736 184.088 82.624C185.189 82.512 186.449 82.456 187.868 82.456H189.268C190.201 82.456 190.92 82.5867 191.424 82.848C191.928 83.1093 192.283 83.436 192.488 83.828C192.712 84.22 192.843 84.6213 192.88 85.032C192.936 85.424 192.964 85.76 192.964 86.04V95H189.548V85.984C189.548 85.2373 189.1 84.864 188.204 84.864H182.1C181.745 84.864 181.512 84.9013 181.4 84.976C181.307 85.032 181.26 85.2 181.26 85.48V95H177.844ZM201.064 95C199.645 95 198.674 94.7013 198.152 94.104C197.629 93.5067 197.368 92.6107 197.368 91.416V84.864H195.072V82.456H196.248C196.602 82.456 196.854 82.4 197.004 82.288C197.172 82.176 197.293 81.952 197.368 81.616L197.928 78.62H200.784V82.456H206.608V84.864H200.784V91.444C200.784 91.9107 200.896 92.2187 201.12 92.368C201.344 92.5173 201.68 92.592 202.128 92.592H206.076L206.356 94.72C205.964 94.776 205.366 94.8413 204.564 94.916C203.761 94.972 202.884 95 201.932 95H201.064ZM212.548 95C211.633 95 210.915 94.8787 210.392 94.636C209.888 94.3933 209.524 94.0853 209.3 93.712C209.095 93.3387 208.964 92.9467 208.908 92.536C208.871 92.1253 208.852 91.752 208.852 91.416V82.456H212.268V91.472C212.249 91.8827 212.38 92.172 212.66 92.34C212.959 92.508 213.276 92.592 213.612 92.592H219.156C219.567 92.592 219.809 92.5547 219.884 92.48C219.959 92.4053 219.996 92.1627 219.996 91.752V82.456H223.412V95H221.116L220.052 94.44C219.305 94.5893 218.419 94.72 217.392 94.832C216.384 94.944 215.245 95 213.976 95H212.548ZM226.762 95V82.456H229.058L230.122 83.016C230.607 82.7547 231.13 82.5493 231.69 82.4C232.25 82.2507 232.959 82.176 233.818 82.176C235.181 82.176 236.282 82.3253 237.122 82.624C237.981 82.9227 238.55 83.1467 238.83 83.296L237.85 85.732C237.626 85.62 237.253 85.48 236.73 85.312C236.226 85.1253 235.629 84.9573 234.938 84.808C234.247 84.6587 233.491 84.584 232.67 84.584H232.362C231.466 84.584 230.878 84.7613 230.598 85.116C230.337 85.4707 230.197 86.0587 230.178 86.88V95H226.762ZM244.205 95C243.272 95 242.553 94.8787 242.049 94.636C241.545 94.3933 241.181 94.0853 240.957 93.712C240.752 93.3387 240.621 92.9467 240.565 92.536C240.528 92.1253 240.509 91.752 240.509 91.416V86.04C240.509 85.76 240.528 85.424 240.565 85.032C240.621 84.6213 240.752 84.22 240.957 83.828C241.181 83.436 241.545 83.1093 242.049 82.848C242.572 82.5867 243.291 82.456 244.205 82.456H250.225C251.457 82.456 252.419 82.5773 253.109 82.82C253.819 83.044 254.313 83.4173 254.593 83.94C254.892 84.4627 255.041 85.1627 255.041 86.04V90.184H250.141C248.461 90.184 247.089 90.1467 246.025 90.072C244.98 89.9973 244.28 89.9507 243.925 89.932V91.472C243.907 92.2187 244.355 92.592 245.269 92.592H246.697C247.705 92.592 248.685 92.5827 249.637 92.564C250.608 92.5267 251.495 92.4893 252.297 92.452C253.1 92.396 253.744 92.3493 254.229 92.312L255.349 94.132C255.349 94.7107 253.511 95 249.833 95H244.205ZM243.925 87.776H251.625V85.984C251.625 85.6107 251.579 85.3493 251.485 85.2C251.411 85.0507 251.168 84.9573 250.757 84.92C250.347 84.8827 249.647 84.864 248.657 84.864H245.269C244.373 84.864 243.925 85.2373 243.925 85.984V87.776ZM268.001 95C266.732 95 265.798 94.944 265.201 94.832C264.604 94.72 264.305 94.5893 264.305 94.44L265.425 92.004C265.854 92.0787 266.918 92.1533 268.617 92.228C270.334 92.284 272.686 92.312 275.673 92.312H276.205C277.008 92.312 277.577 92.172 277.913 91.892C278.249 91.5933 278.417 91.0987 278.417 90.408V89.848C278.417 89.1947 278.277 88.728 277.997 88.448C277.736 88.168 277.138 88.028 276.205 88.028H269.709C267.824 88.028 266.452 87.6827 265.593 86.992C264.734 86.2827 264.305 85.1347 264.305 83.548V83.1C264.305 82.2787 264.454 81.5227 264.753 80.832C265.07 80.1413 265.602 79.5907 266.349 79.18C267.096 78.7507 268.122 78.536 269.429 78.536H277.045C278.314 78.536 279.341 78.6013 280.125 78.732C280.909 78.8627 281.301 79.0027 281.301 79.152L280.741 81.504C280.256 81.448 279.154 81.392 277.437 81.336C275.72 81.2613 273.414 81.224 270.521 81.224L270.213 81.196C269.354 81.196 268.776 81.3733 268.477 81.728C268.178 82.064 268.02 82.4933 268.001 83.016V83.492C268.001 84.108 268.169 84.5747 268.505 84.892C268.86 85.1907 269.438 85.34 270.241 85.34H276.457C277.652 85.34 278.669 85.4613 279.509 85.704C280.349 85.9467 280.993 86.3947 281.441 87.048C281.889 87.6827 282.113 88.6253 282.113 89.876V90.324C282.113 91.724 281.749 92.8533 281.021 93.712C280.312 94.5707 279.07 95 277.297 95H268.001ZM289.22 95C287.801 95 286.831 94.7013 286.308 94.104C285.785 93.5067 285.524 92.6107 285.524 91.416V84.864H283.228V82.456H284.404C284.759 82.456 285.011 82.4 285.16 82.288C285.328 82.176 285.449 81.952 285.524 81.616L286.084 78.62H288.94V82.456H294.764V84.864H288.94V91.444C288.94 91.9107 289.052 92.2187 289.276 92.368C289.5 92.5173 289.836 92.592 290.284 92.592H294.232L294.512 94.72C294.12 94.776 293.523 94.8413 292.72 94.916C291.917 94.972 291.04 95 290.088 95H289.22ZM300.704 95C299.789 95 299.071 94.8787 298.548 94.636C298.044 94.3933 297.68 94.0853 297.456 93.712C297.251 93.3387 297.12 92.9467 297.064 92.536C297.027 92.1253 297.008 91.752 297.008 91.416V82.456H300.424V91.472C300.405 91.8827 300.536 92.172 300.816 92.34C301.115 92.508 301.432 92.592 301.768 92.592H307.312C307.723 92.592 307.965 92.5547 308.04 92.48C308.115 92.4053 308.152 92.1627 308.152 91.752V82.456H311.568V95H309.272L308.208 94.44C307.461 94.5893 306.575 94.72 305.548 94.832C304.54 94.944 303.401 95 302.132 95H300.704ZM318.334 95C317.401 95 316.682 94.8787 316.178 94.636C315.674 94.3933 315.31 94.0853 315.086 93.712C314.881 93.3387 314.75 92.9467 314.694 92.536C314.657 92.1253 314.638 91.752 314.638 91.416V86.04C314.638 85.76 314.657 85.424 314.694 85.032C314.75 84.6213 314.881 84.22 315.086 83.828C315.31 83.436 315.674 83.1093 316.178 82.848C316.701 82.5867 317.42 82.456 318.334 82.456H319.762C321.48 82.456 322.861 82.4933 323.906 82.568C324.97 82.624 325.782 82.6893 326.342 82.764V77.248H329.758V95H327.462L326.37 94.44C325.586 94.5707 324.644 94.7013 323.542 94.832C322.441 94.944 321.172 95 319.734 95H318.334ZM319.398 92.592H325.474C325.866 92.592 326.109 92.5453 326.202 92.452C326.296 92.3587 326.342 92.1253 326.342 91.752V85.06C325.708 85.0227 324.905 84.9853 323.934 84.948C322.964 84.892 321.928 84.864 320.826 84.864H319.398C318.502 84.864 318.054 85.2373 318.054 85.984V91.472C318.054 92.2187 318.502 92.592 319.398 92.592ZM335.391 80.692C334.7 80.692 334.196 80.552 333.879 80.272C333.561 79.992 333.403 79.5253 333.403 78.872C333.403 78.2 333.552 77.7333 333.851 77.472C334.168 77.192 334.681 77.052 335.391 77.052C336.1 77.052 336.613 77.192 336.931 77.472C337.248 77.7333 337.407 78.2 337.407 78.872C337.407 79.5067 337.248 79.9733 336.931 80.272C336.613 80.552 336.1 80.692 335.391 80.692ZM333.683 95V82.456H337.099V95H333.683ZM344.174 95C342.923 95 341.99 94.748 341.374 94.244C340.777 93.74 340.478 92.9187 340.478 91.78V86.04C340.478 85.76 340.497 85.424 340.534 85.032C340.59 84.6213 340.721 84.22 340.926 83.828C341.15 83.436 341.514 83.1093 342.018 82.848C342.541 82.5867 343.259 82.456 344.174 82.456H351.902C352.835 82.456 353.554 82.5867 354.058 82.848C354.562 83.1093 354.917 83.436 355.122 83.828C355.346 84.22 355.477 84.6213 355.514 85.032C355.57 85.424 355.598 85.76 355.598 86.04V91.416C355.598 91.752 355.57 92.1253 355.514 92.536C355.477 92.9467 355.346 93.3387 355.122 93.712C354.898 94.0853 354.534 94.3933 354.03 94.636C353.526 94.8787 352.817 95 351.902 95H344.174ZM345.238 92.592H350.838C351.753 92.592 352.21 92.2187 352.21 91.472V85.984C352.21 85.2373 351.753 84.864 350.838 84.864H345.238C344.342 84.864 343.894 85.2373 343.894 85.984V91.472C343.894 92.2187 344.342 92.592 345.238 92.592Z" fill="white"/>
<path fill-rule="evenodd" clip-rule="evenodd" d="M126.367 22.625H187.682L210.243 69.4991H209.274L187.137 23.4991H127.762L149.876 69.4991H148.905L126.367 22.625ZM169.098 111.499L189.533 153.999L250.633 153.416L230.458 111.499H229.486L249.244 152.555L190.075 153.12L170.067 111.499H169.098Z" fill="#288DFF"/>
</g>
<g filter="url(#filter2_f_1290_13513)">
<ellipse cx="66.328" cy="169" rx="1.9979" ry="2" fill="#00769C" fill-opacity="0.13"/>
</g>
<g filter="url(#filter3_f_1290_13513)">
<ellipse cx="91.3026" cy="146" rx="1.9979" ry="2" fill="#02C2FF"/>
</g>
<g filter="url(#filter4_f_1290_13513)">
<ellipse cx="77.3154" cy="148" rx="0.99895" ry="1" fill="#02C2FF"/>
</g>
<g filter="url(#filter5_f_1290_13513)">
<ellipse cx="59.3358" cy="20" rx="1.9979" ry="2" fill="#02C2FF" fill-opacity="0.74"/>
</g>
<g filter="url(#filter6_f_1290_13513)">
<ellipse cx="69.325" cy="137" rx="2.99685" ry="3" fill="#02C2FF"/>
</g>
<g filter="url(#filter7_f_1290_13513)">
<ellipse cx="117.274" cy="98" rx="2.99685" ry="3" fill="#4FBCDE" fill-opacity="0.28"/>
</g>
<defs>
<filter id="filter0_f_1290_13513" x="113.277" y="25" width="7.99414" height="8" filterUnits="userSpaceOnUse" color-interpolation-filters="sRGB">
<feFlood flood-opacity="0" result="BackgroundImageFix"/>
<feBlend mode="normal" in="SourceGraphic" in2="BackgroundImageFix" result="shape"/>
<feGaussianBlur stdDeviation="0.5" result="effect1_foregroundBlur_1290_13513"/>
</filter>
<filter id="filter1_b_1290_13513" x="242.16" y="92.7" width="108.289" height="69.6" filterUnits="userSpaceOnUse" color-interpolation-filters="sRGB">
<feFlood flood-opacity="0" result="BackgroundImageFix"/>
<feGaussianBlur in="BackgroundImageFix" stdDeviation="4.4"/>
<feComposite in2="SourceAlpha" operator="in" result="effect1_backgroundBlur_1290_13513"/>
<feBlend mode="normal" in="SourceGraphic" in2="effect1_backgroundBlur_1290_13513" result="shape"/>
</filter>
<filter id="filter2_f_1290_13513" x="63.3301" y="166" width="5.99609" height="6" filterUnits="userSpaceOnUse" color-interpolation-filters="sRGB">
<feFlood flood-opacity="0" result="BackgroundImageFix"/>
<feBlend mode="normal" in="SourceGraphic" in2="BackgroundImageFix" result="shape"/>
<feGaussianBlur stdDeviation="0.5" result="effect1_foregroundBlur_1290_13513"/>
</filter>
<filter id="filter3_f_1290_13513" x="86.8047" y="141.5" width="8.99609" height="9" filterUnits="userSpaceOnUse" color-interpolation-filters="sRGB">
<feFlood flood-opacity="0" result="BackgroundImageFix"/>
<feBlend mode="normal" in="SourceGraphic" in2="BackgroundImageFix" result="shape"/>
<feGaussianBlur stdDeviation="1.25" result="effect1_foregroundBlur_1290_13513"/>
</filter>
<filter id="filter4_f_1290_13513" x="75.3164" y="146" width="3.99805" height="4" filterUnits="userSpaceOnUse" color-interpolation-filters="sRGB">
<feFlood flood-opacity="0" result="BackgroundImageFix"/>
<feBlend mode="normal" in="SourceGraphic" in2="BackgroundImageFix" result="shape"/>
<feGaussianBlur stdDeviation="0.5" result="effect1_foregroundBlur_1290_13513"/>
</filter>
<filter id="filter5_f_1290_13513" x="56.3379" y="17" width="5.99609" height="6" filterUnits="userSpaceOnUse" color-interpolation-filters="sRGB">
<feFlood flood-opacity="0" result="BackgroundImageFix"/>
<feBlend mode="normal" in="SourceGraphic" in2="BackgroundImageFix" result="shape"/>
<feGaussianBlur stdDeviation="0.5" result="effect1_foregroundBlur_1290_13513"/>
</filter>
<filter id="filter6_f_1290_13513" x="65.3281" y="133" width="7.99414" height="8" filterUnits="userSpaceOnUse" color-interpolation-filters="sRGB">
<feFlood flood-opacity="0" result="BackgroundImageFix"/>
<feBlend mode="normal" in="SourceGraphic" in2="BackgroundImageFix" result="shape"/>
<feGaussianBlur stdDeviation="0.5" result="effect1_foregroundBlur_1290_13513"/>
</filter>
<filter id="filter7_f_1290_13513" x="112.277" y="93" width="9.99414" height="10" filterUnits="userSpaceOnUse" color-interpolation-filters="sRGB">
<feFlood flood-opacity="0" result="BackgroundImageFix"/>
<feBlend mode="normal" in="SourceGraphic" in2="BackgroundImageFix" result="shape"/>
<feGaussianBlur stdDeviation="1" result="effect1_foregroundBlur_1290_13513"/>
</filter>
<linearGradient id="paint0_linear_1290_13513" x1="6.615" y1="12.76" x2="348.358" y2="188.854" gradientUnits="userSpaceOnUse">
<stop stop-color="#0FD5F8" stop-opacity="0.43"/>
<stop offset="0.690448" stop-color="#0FD5F8" stop-opacity="0.09"/>
</linearGradient>
<linearGradient id="paint1_linear_1290_13513" x1="-0.500003" y1="5.59088e-06" x2="377.5" y2="176" gradientUnits="userSpaceOnUse">
<stop stop-color="#00C2FF"/>
<stop offset="1" stop-color="#00C2FF" stop-opacity="0"/>
</linearGradient>
</defs>
</svg>
