<?xml version="1.0" encoding="UTF-8"?>
<svg xmlns="http://www.w3.org/2000/svg" id="Layer_1" data-name="Layer 1" width="500" height="500" viewBox="0 0 500 500">
  <defs>
    <style>.cls-1{fill:#fff;}</style>
  </defs>
  <path class="cls-1" d="M250,130.0353A119.9647,119.9647,0,1,0,369.9651,250,119.9646,119.9646,0,0,0,250,130.0353Zm77.7573,197.7215A109.9644,109.9644,0,1,1,359.9651,250,109.2472,109.2472,0,0,1,327.7571,327.7568Z"></path>
  <path class="cls-1" d="M250,177.9072a58.0135,58.0135,0,0,1,57.9482,57.9479h10a67.9478,67.9478,0,1,0-135.8955,0h10A58.0133,58.0133,0,0,1,250,177.9072Z"></path>
  <path class="cls-1" d="M315.4456,294.303a7.3948,7.3948,0,1,0-7.3946,7.3947A7.3946,7.3946,0,0,0,315.4456,294.303Z"></path>
  <path class="cls-1" d="M294.179,294.303a7.3948,7.3948,0,1,0-7.3946,7.3947A7.3946,7.3946,0,0,0,294.179,294.303Z"></path>
  <path class="cls-1" d="M277.0066,205.4646l-24.05,24.05a10.4738,10.4738,0,1,0,7.0708,7.0705l24.05-24.05Z"></path>
  <rect class="cls-1" x="181.4236" y="271.0494" width="137.1533" height="10"></rect>
  <rect class="cls-1" x="181.4236" y="307.5566" width="137.1533" height="10"></rect>
  <rect class="cls-1" x="181.4236" y="289.303" width="44.9248" height="10"></rect>
</svg>
