<?xml version="1.0" encoding="UTF-8"?>
<svg xmlns="http://www.w3.org/2000/svg" id="Layer_1" data-name="Layer 1" width="500" height="500" viewBox="0 0 500 500">
  <defs>
    <style>.cls-1{fill:#1f1fff;}</style>
  </defs>
  <path class="cls-1" d="M367.7239,226.9057a43.6146,43.6146,0,0,0-74.4546-30.84l-98.272,98.2721a31.073,31.073,0,1,1-43.9438-43.9439l54.9717-54.9711,8.5639,8.564L261.7259,156.85l-6.8663-6.8661,8.2291-8.2289-10.9434-10.943-8.229,8.229-6.39-6.39-47.1368,47.1366,8.5645,8.5642-54.9717,54.9711a41.0732,41.0732,0,0,0,58.0864,58.0861l98.272-98.2721a33.6142,33.6142,0,1,1,47.5376,47.5377L291.9124,306.64l-8.564-8.5639-47.1362,47.1366,6.6279,6.628-7.5332,7.533,10.9429,10.943,7.5332-7.5329,6.6279,6.6281,47.1372-47.1365-8.5644-8.5643L354.95,257.7455A43.3276,43.3276,0,0,0,367.7239,226.9057ZM237.5262,146.793,247.5833,156.85l-32.9942,32.9945L204.532,179.7875ZM260.4109,355.27l-10.0566-10.0572,32.9941-32.9945,10.0571,10.0572Z"></path>
</svg>
