<?xml version="1.0" encoding="UTF-8"?>
<svg xmlns="http://www.w3.org/2000/svg" id="Layer_1" data-name="Layer 1" width="500" height="500" viewBox="0 0 500 500">
  <defs>
    <style>.cls-1{fill:#fff;}</style>
  </defs>
  <rect class="cls-1" x="180.2102" y="248.3426" width="139.5791" height="10"></rect>
  <rect class="cls-1" x="180.2102" y="296.9143" width="139.5791" height="10"></rect>
  <path class="cls-1" d="M316.3274,277.6283a8.08,8.08,0,1,0-8.08,8.08A8.08,8.08,0,0,0,316.3274,277.6283Z"></path>
  <path class="cls-1" d="M294.429,277.6283a8.08,8.08,0,1,0-8.0791,8.08A8.0794,8.0794,0,0,0,294.429,277.6283Z"></path>
  <rect class="cls-1" x="180.2102" y="266.4334" width="9.7998" height="9.7999"></rect>
  <rect class="cls-1" x="180.2102" y="279.5689" width="9.7998" height="9.7999"></rect>
  <rect class="cls-1" x="193.2102" y="266.4334" width="9.7998" height="9.7999"></rect>
  <rect class="cls-1" x="193.2102" y="279.5689" width="9.7998" height="9.7999"></rect>
  <rect class="cls-1" x="206.2102" y="266.4334" width="9.7998" height="9.7999"></rect>
  <rect class="cls-1" x="206.2102" y="279.5689" width="9.7998" height="9.7999"></rect>
  <polygon class="cls-1" points="180.21 354.941 244.999 354.941 244.999 369.901 254.999 369.901 254.999 354.941 319.789 354.941 319.789 344.941 180.21 344.941 180.21 354.941"></polygon>
  <path class="cls-1" d="M316.3274,325.9272a8.08,8.08,0,1,0-8.08,8.08A8.08,8.08,0,0,0,316.3274,325.9272Z"></path>
  <path class="cls-1" d="M294.429,325.9272a8.08,8.08,0,1,0-8.0791,8.08A8.0794,8.0794,0,0,0,294.429,325.9272Z"></path>
  <rect class="cls-1" x="180.2102" y="314.4596" width="9.7998" height="9.8"></rect>
  <rect class="cls-1" x="180.2102" y="327.5951" width="9.7998" height="9.8"></rect>
  <rect class="cls-1" x="193.2102" y="314.4596" width="9.7998" height="9.8"></rect>
  <rect class="cls-1" x="193.2102" y="327.5951" width="9.7998" height="9.8"></rect>
  <rect class="cls-1" x="206.2102" y="314.4596" width="9.7998" height="9.8"></rect>
  <rect class="cls-1" x="206.2102" y="327.5951" width="9.7998" height="9.8"></rect>
  <rect class="cls-1" x="219.343" y="266.4334" width="9.8008" height="9.7999"></rect>
  <rect class="cls-1" x="219.343" y="279.5689" width="9.8008" height="9.7999"></rect>
  <rect class="cls-1" x="219.343" y="314.4596" width="9.8008" height="9.8"></rect>
  <rect class="cls-1" x="219.343" y="327.5951" width="9.8008" height="9.8"></rect>
  <path class="cls-1" d="M309.6126,188.5156a64.2012,64.2012,0,0,0-127.7295-3.2563,52.0452,52.0452,0,0,0-24.5762,2.5254,52.77,52.77,0,0,0-8.51,3.8925c-14.3007,8.1581-20.7988,23.7426-16.5547,39.7034,4.2715,16.0658,17.7334,26.4384,34.3038,26.4382h.0546l-.0136-10h-.042c-14.4541,0-22.3057-10.2356-24.6387-19.008-2.31-8.6879-.5937-21.3511,11.8457-28.4474a42.73,42.73,0,0,1,6.8926-3.1522,42.2921,42.2921,0,0,1,53.9844,25.7546l9.4277-3.3372a51.9562,51.9562,0,0,0-26.7793-29.7471,53.11,53.11,0,0,0-5.6143-2.2819,54.2088,54.2088,0,0,1,108.1221,5.6526l.2861,5.0842H304.79a54.2859,54.2859,0,0,1,53.9814,49.21H334.7532v10H369v-5A64.2978,64.2978,0,0,0,309.6126,188.5156Z"></path>
</svg>
