<?xml version="1.0" encoding="UTF-8"?>
<svg xmlns="http://www.w3.org/2000/svg" id="Layer_1" data-name="Layer 1" width="500" height="500" viewBox="0 0 500 500">
  <defs>
    <style>.cls-1{fill:#fff;}</style>
  </defs>
  <polygon class="cls-1" points="368.12 275.013 365.401 265.389 312.341 280.381 259.965 250 312.23 219.68 365.401 234.704 368.12 225.08 324.276 212.693 369.747 186.314 364.729 177.664 319.925 203.656 332.077 160.643 322.454 157.925 307.497 210.865 255 241.319 255 179.95 293.994 140.955 286.923 133.884 255 165.807 255 130.035 245 130.035 245 165.807 213.077 133.884 206.006 140.955 245 179.95 245 241.319 192.694 210.979 177.706 157.925 168.082 160.643 180.266 203.77 135.613 177.868 130.595 186.518 175.772 212.724 132.039 225.08 134.758 234.704 187.819 219.712 240.035 250 187.714 280.352 134.758 265.389 132.039 275.013 175.669 287.34 130.254 313.686 135.272 322.336 180.296 296.216 168.082 339.45 177.706 342.168 192.724 289.007 245 258.681 245 320.051 206.01 359.045 213.081 366.116 245 334.194 245 369.965 255 369.965 255 334.193 286.919 366.115 293.99 359.044 255 320.05 255 258.681 307.465 289.113 322.454 342.168 332.077 339.45 319.892 296.322 364.387 322.132 369.405 313.482 324.388 287.369 368.12 275.013"></polygon>
</svg>
