<?xml version="1.0" encoding="UTF-8"?>
<svg xmlns="http://www.w3.org/2000/svg" id="Layer_1" data-name="Layer 1" width="500" height="500" viewBox="0 0 500 500">
  <defs>
    <style>.cls-1{fill:#0A55EB;}</style>
  </defs>
  <path class="cls-1" d="M369.9646,172.5114c0-23.7818-53.71-43.0607-119.9646-43.0607S130.0354,148.73,130.0354,172.5114c0,.3344.0142.6675.0354,1h-.0215v149.81c0,13.2813,13.1333,25.3059,36.9805,33.8588,22.2388,7.9761,51.7051,12.3688,82.97,12.3688s60.7315-4.3927,82.9707-12.3688c23.8467-8.5529,36.98-20.5775,36.98-33.8588v-149.81h-.0215C369.9505,173.1789,369.9646,172.8458,369.9646,172.5114ZM168.5506,151.475c21.602-7.754,50.528-12.0243,81.4494-12.0243s59.8474,4.27,81.45,12.0243c21.0471,7.5547,28.5151,16.0538,28.5151,21.0364s-7.468,13.4817-28.5151,21.0365c-21.6021,7.7539-50.5281,12.0242-81.4495,12.0242s-59.8474-4.27-81.4494-12.0242c-21.0472-7.5548-28.5152-16.0539-28.5152-21.0365S147.5034,159.03,168.5506,151.475ZM250,359.5493c-64.7954,0-109.9507-19.0925-109.9507-36.2276V305.1708c6.2537,5.5742,15.3355,10.58,26.9805,14.7566,22.2388,7.9761,51.7051,12.3688,82.97,12.3688s60.7315-4.3927,82.9707-12.3688c11.6446-4.1765,20.7263-9.1823,26.98-14.7565v18.1508C359.9507,340.4568,314.7959,359.5493,250,359.5493Zm109.9507-73.4806c0,17.1351-45.1548,36.2275-109.9507,36.2275s-109.9507-19.0924-109.9507-36.2275V266.436c6.2537,5.5741,15.3355,10.58,26.9805,14.7564,22.2388,7.9761,51.7051,12.3688,82.97,12.3688s60.7315-4.3927,82.9707-12.3688c11.6446-4.1764,20.7263-9.1823,26.98-14.7564v19.6327Zm0-38.7349c0,17.135-45.1548,36.2274-109.9507,36.2274s-109.9507-19.0924-109.9507-36.2274V227.8922c6.2537,5.5742,15.3355,10.58,26.9805,14.7565,22.2388,7.9762,51.7051,12.3688,82.97,12.3688s60.7315-4.3926,82.9707-12.3688c11.6446-4.1764,20.7263-9.1823,26.98-14.7564v19.4415Zm0-38.5438c0,17.1351-45.1548,36.2275-109.9507,36.2275S140.0493,225.9251,140.0493,208.79V189.7537C158.5735,204.9515,200.8279,215.5721,250,215.5721s91.4265-10.6206,109.9507-25.8184V208.79Z"></path>
</svg>
