<?xml version="1.0" encoding="UTF-8"?>
<svg xmlns="http://www.w3.org/2000/svg" id="Layer_1" data-name="Layer 1" width="500" height="500" viewBox="0 0 500 500">
  <defs>
    <style>.cls-1{fill:#1f1fff;}.cls-2{fill:#f6f6fe;}</style>
  </defs>
  <path class="cls-1" d="M188.2176,187.4825H130.52V129.7852h57.6973Zm-47.6973-10h37.6973V139.7852H140.52Z"></path>
  <path class="cls-1" d="M367.48,187.4825H309.7825V129.7852H367.48Zm-47.6973-10H357.48V139.7852H319.7825Z"></path>
  <path class="cls-1" d="M276.6663,187.4825H218.969V129.7852h57.6973Zm-47.6973-10h37.6973V139.7852H228.969Z"></path>
  <path class="cls-1" d="M188.2176,352.084H130.52V294.3868h57.6973Zm-47.6973-10h37.6973V304.3868H140.52Z"></path>
  <path class="cls-1" d="M276.6663,352.084H218.969V294.3868h57.6973Zm-47.6973-10h37.6973V304.3868H228.969Z"></path>
  <path class="cls-1" d="M188.2176,269.7833H130.52V212.086h57.6973Zm-47.6973-10h37.6973V222.086H140.52Z"></path>
  <path class="cls-1" d="M367.48,269.7833H309.7825V212.086H367.48Zm-47.6973-10H357.48V222.086H319.7825Z"></path>
  <path class="cls-1" d="M276.6663,269.7833H218.969V212.086h57.6973Zm-47.6973-10h37.6973V222.086H228.969Z"></path>
  <path class="cls-2" d="M235.9235,331.032,179.0985,273.91s8.6279-12.7931,9.8179-12.4956,15.4707-3.57,15.4707-3.57l31.5364,24.0985s2.38-86.2787,2.6776-87.4688,5.95-23.5035,5.95-23.5035l15.7682-2.38,9.8179,9.2229v82.1136l5.6527-39.5693,13.0906-.2975,7.7353,6.5453s2.0826,16.9583,2.38,17.8508,1.7851,17.8508,1.7851,17.8508l2.38-5.6528,2.6776-23.801,16.9583-2.38,5.0577,5.0577c1.4876,1.4876,3.8677,14.2806,3.8677,14.2806v12.4956l6.2477-19.9334,20.953.8925,4.9307,9.261v75.53l-23.5035,30.9414-44.627,7.7353s-23.801.8926-28.8588-4.4627S235.9235,331.032,235.9235,331.032Z"></path>
  <path class="cls-1" d="M276.6788,372.7148l-.461-.1919c-1.3984-.5819-2.8125-1.1329-4.227-1.6843a92.8654,92.8654,0,0,1-9.6641-4.199c-5.7138-3.0132-10.0918-7.5422-14.3257-11.9221-.9892-1.0236-1.978-2.0465-2.9824-3.0481-19.36-19.3084-38.3154-38.2819-54.3037-54.2954-1.13-1.132-2.2729-2.2538-3.416-3.376-3.4033-3.3411-6.9224-6.7958-10.09-10.5168-6.3843-7.5-5.627-17.9718,1.8012-24.8992a29.6127,29.6127,0,0,1,20.2456-8.021,30.2983,30.2983,0,0,1,18.35,6.2245c3.8858,2.9289,7.7852,5.84,11.7779,8.8209l1.748,1.3059.0049-13.67c.0088-21.9838.0181-44.7159-.0176-67.0726-.0146-9.2946,3.0391-16.27,9.336-21.3266a22.4358,22.4358,0,0,1,14.05-4.7094,23.1239,23.1239,0,0,1,17.3964,7.5238c4.169,4.8192,6.1783,10.6514,6.1431,17.83-.0366,7.408-.0288,14.816-.021,22.3064l.0039,5.776a24.6154,24.6154,0,0,1,8.0821-1.42,22.3613,22.3613,0,0,1,7.9306,1.4754,23.5573,23.5573,0,0,1,12.7588,11.4337,24.6954,24.6954,0,0,1,10.4863-2.4871,22.45,22.45,0,0,1,7.3819,1.273,23.2684,23.2684,0,0,1,13.4023,11.6664,24.6007,24.6007,0,0,1,10.9961-2.3919q.8848,0,1.7822.0485c10.3169.5521,20.3369,10.365,20.6177,20.1918.3652,12.76.4141,25.727.4614,38.2671l.0367,8.6076c.0317,6.0405.0649,12.2869-.3843,18.4441-1.0645,14.6041-7.0938,27.3792-17.9209,37.97a58.8106,58.8106,0,0,1-28.4087,15.5033c-.0444.0236-.0879.05-.1323.0745-.149.0834-.2984.1655-.45.2388l-.5157.25ZM199.1466,266.0107a14.08,14.08,0,0,0-9.6138,3.9056,2.483,2.483,0,0,0-.48,3.5876,26.7787,26.7787,0,0,0,2.7153,2.9923q8.8177,8.8176,17.6319,17.6056,6.5206,6.5062,13.039,13.015,20.4611,20.44,40.9087,40.8928c6.3037,6.303,13.479,9.6347,21.3272,9.9021,5.394.1838,10.9682.2771,16.5678.2771,4.1026,0,8.3243-.05,12.5464-.1487a42.1541,42.1541,0,0,0,27.8755-11.2666c9.1782-8.2655,14.0552-18.4432,14.4961-30.25.3189-8.5705.2754-17.3256.2329-25.7923-.0161-3.2357-.0322-6.4713-.0293-9.7061l.01-4.8027c.0171-6.7754.0347-13.7814-.1553-20.6473-.1113-4.0275-3.5649-7.0644-8.0342-7.0644l-.1479.0011a8.0344,8.0344,0,0,0-7.4253,7.5608c-.0244.916-.0161,1.8325-.0088,2.749.0054.6292.01,1.2585.0064,1.8875-.0328,5-3.065,8.4194-7.5445,8.508l-.1987.002c-4.6758,0-7.6133-3.2285-7.6665-8.4264-.0156-1.5632.0058-3.1288.0283-4.6941.0415-2.9377.0806-5.7126-.1221-8.4969a15.4332,15.4332,0,0,0-1.7251-6.4151,7.0179,7.0179,0,0,0-6.0947-3.171,7.3764,7.3764,0,0,0-2.1123.3c-3.7017,1.1048-5.8662,4.0843-5.939,8.1741-.0532,2.9814-.0419,6.027-.0317,8.9725.0064,1.7609.0127,3.5219.0064,5.2828-.0191,5.1217-2.9708,8.451-7.52,8.4819a7.4646,7.4646,0,0,1-5.772-2.506,9.03,9.03,0,0,1-2.05-6.046q.0006-3.9482.0083-7.8961c.0083-5.4087.0166-10.8173-.0074-16.2257-.0132-3.0625-.7807-5.1642-2.4155-6.6144a8.2454,8.2454,0,0,0-5.4658-2.358,8.0249,8.0249,0,0,0-3.4863.8633c-3.1114,1.5018-4.5533,4.1345-4.5381,8.2852.0258,7.084-.0279,14.28-.08,21.2387l-.0283,3.8489c-.0244,3.4425-1.9121,6.1024-4.8091,6.7763a9.8457,9.8457,0,0,1-2.2271.2442,11.3463,11.3463,0,0,1-4.6289-.9762c-3.7124-1.7008-3.7065-5.8047-3.7041-7.5571q.017-14.13.0059-28.2605l-.002-9.225.0049-11.5814q.01-13.8864-.0239-27.7724a7.707,7.707,0,0,0-7.7378-7.9719,8.9476,8.9476,0,0,0-2.7153.4341c-4.2813,1.3637-5.1866,5.1593-5.1924,8.1033q-.033,17.0368-.0152,34.0736l.0035,62.5324c.0014.484.0019.9683-.0244,1.4508a8.1406,8.1406,0,0,1-4.3365,7.2621,7.2319,7.2319,0,0,1-3.42.8871,8.4875,8.4875,0,0,1-5.1406-1.9347q-5.4141-4.0554-10.8174-8.1256-7.1294-5.3624-14.271-10.7082A16.212,16.212,0,0,0,199.1466,266.0107Z"></path>
  <path class="cls-2" d="M254.5041,162.6339A20.5423,20.5423,0,0,1,270.01,169.293c4.0674,4.7021,5.5635,10.1235,5.5337,16.1821-.0518,10.5293-.0144,21.0591-.0144,31.8244a24.49,24.49,0,0,1,10.58-2.65,19.7423,19.7423,0,0,1,7.0464,1.3138c5.9934,2.2663,9.905,6.5542,12.5183,12.4929a23.3741,23.3741,0,0,1,11.6113-3.3846,19.844,19.844,0,0,1,6.5606,1.1342c6.2651,2.178,10.5312,6.4712,13.0861,12.82a21.5933,21.5933,0,0,1,12.1331-3.4067q.8185,0,1.6489.045c8.8416.4731,17.999,8.9184,18.2522,17.7667.43,15.05.4192,30.1139.4888,45.1725.0305,6.6319.1123,13.2875-.3691,19.8931-1.04,14.2689-6.9656,26.377-17.1761,36.3651a56.1357,56.1357,0,0,1-27.3261,14.878,5.0431,5.0431,0,0,0-1.0052.4752h-46.4c-4.5749-1.9038-9.32-3.4847-13.6855-5.7867-6.6485-3.5061-11.4707-9.3051-16.7085-14.5288q-27.185-27.111-54.3-54.2917c-4.5178-4.525-9.2368-8.89-13.3713-13.7468-5.6028-6.5823-4.7159-15.5581,1.6027-21.45a27.0812,27.0812,0,0,1,18.54-7.3493,27.9409,27.9409,0,0,1,16.845,5.7207c5.6626,4.2681,11.3535,8.4984,17.3191,12.9608.0947-.8491.21-1.4023.21-1.9554q.0121-41.8108-.0114-83.6214c-.0123-7.72,2.125-14.3337,8.4011-19.3733a19.929,19.929,0,0,1,12.4841-4.1586M239.0319,287.7358A6.1542,6.1542,0,0,1,235.39,286.3c-8.3706-6.27-16.7117-12.5788-25.0916-18.8362a18.656,18.656,0,0,0-11.1521-3.9533,16.5647,16.5647,0,0,0-11.3049,4.5648,4.9448,4.9448,0,0,0-.8069,6.9038,29.0033,29.0033,0,0,0,2.9744,3.2931q15.3189,15.3189,30.6631,30.613,20.4606,20.44,40.9082,40.892c6.3681,6.3677,13.9592,10.3243,23.01,10.6329q8.3186.2835,16.6524.2785,6.3051,0,12.6055-.1494a44.6222,44.6222,0,0,0,29.49-11.9082c9.4714-8.53,14.8457-19.2687,15.321-32.0149.4417-11.8493.1949-23.7252.2056-35.59.0078-8.5076.0889-17.0194-.1462-25.5215-.1529-5.5348-4.81-9.4948-10.5335-9.4951-.0617,0-.1228,0-.1848.0013a10.4984,10.4984,0,0,0-9.8872,9.9945c-.0415,1.5609.0068,3.1241-.0037,4.6861-.0239,3.6371-1.996,5.9637-5.0937,6.025-.05.001-.1.0015-.15.0015-3.2412,0-5.1269-2.12-5.166-5.9518-.0456-4.4508.2222-8.9194-.1-13.3472a17.9412,17.9412,0,0,0-2.0539-7.4835,9.49,9.49,0,0,0-8.26-4.421,9.8944,9.8944,0,0,0-2.8276.4045c-4.7154,1.4077-7.63,5.2882-7.7232,10.5253-.0847,4.7622-.0083,9.527-.0259,14.2905-.0141,3.77-1.8806,5.97-5.0363,5.9913l-.0437,0c-3.1866,0-5.2622-2.3769-5.2618-6.0522.001-8.0443.0364-16.0889.0013-24.1331-.014-3.21-.7444-6.245-3.2564-8.4735a10.69,10.69,0,0,0-7.1252-2.9879,10.4658,10.4658,0,0,0-4.573,1.1119c-4.3084,2.08-5.9685,5.8448-5.9512,10.5459.0308,8.3532-.0488,16.7071-.1084,25.06-.0146,2.0562-.9644,3.9146-2.8755,4.3593a7.3779,7.3779,0,0,1-1.6611.1791,8.8744,8.8744,0,0,1-3.5874-.7492c-2.0305-.93-2.2481-3.1653-2.2454-5.2807q.0224-18.7445.0039-37.4891c-.0014-13.1213.0337-26.2426-.019-39.3636a10.1917,10.1917,0,0,0-10.2378-10.4619,11.429,11.429,0,0,0-3.4741.552c-4.398,1.4009-6.9231,5.1211-6.9336,10.4806q-.0469,24.0128-.012,48.0257,0,24.13-.0007,48.26c0,.5467.01,1.0945-.0193,1.64a5.7386,5.7386,0,0,1-3.0151,5.1913,4.7254,4.7254,0,0,1-2.2452.5941m15.4722-130.1019a24.94,24.94,0,0,0-15.6147,5.26c-6.927,5.5622-10.2864,13.1771-10.27,23.28.0356,22.45.0263,45.2776.0173,67.3539l-.0029,8.3988c-3.2408-2.42-6.366-4.7578-9.523-7.1373a32.78,32.78,0,0,0-19.8545-6.7279,32.1049,32.1049,0,0,0-21.95,8.6925c-8.4407,7.8713-9.2818,19.7933-2,28.348,3.2407,3.8073,6.8015,7.303,10.2451,10.6835,1.1362,1.1152,2.272,2.23,3.3953,3.3552,16.0234,16.0486,35.0061,35.05,54.3078,54.2993.9827.98,1.9829,2.0148,2.9505,3.0156,4.37,4.5211,8.8894,9.1962,14.9565,12.3956a94.7686,94.7686,0,0,0,9.9233,4.3175c1.4454.5634,2.8106,1.0955,4.1736,1.6627l.9221.3838h48.5457l1.0322-.5c.1341-.0649.2676-.1348.4-.2072a61.2625,61.2625,0,0,0,29.2483-16.0719c11.2761-11.03,17.5564-24.3457,18.6665-39.5758.4555-6.25.4226-12.5406.3906-18.6244l-.0083-1.6552q-.0162-3.4921-.0286-6.9843c-.0473-12.5484-.0967-25.5241-.4621-38.3081-.3208-11.21-11.2754-21.99-22.9832-22.6167-.6457-.0345-1.29-.0521-1.914-.0521a27.8312,27.8312,0,0,0-9.93,1.709,25.4963,25.4963,0,0,0-13.6489-10.845,24.9409,24.9409,0,0,0-8.2024-1.4114,26.2691,26.2691,0,0,0-9.4355,1.8243,25.5406,25.5406,0,0,0-12.9256-10.6094,24.8508,24.8508,0,0,0-8.8149-1.637,25.8411,25.8411,0,0,0-5.5838.6181q-.001-1.251-.0024-2.4988c-.0076-7.3148-.0154-14.8786.021-22.2693.0383-7.81-2.17-14.1809-6.7522-19.4777a25.6528,25.6528,0,0,0-19.2876-8.3881ZM239.0319,292.7358a9.7039,9.7039,0,0,0,4.594-1.18,10.5791,10.5791,0,0,0,5.659-9.3343c.0312-.579.0293-1.1184.0273-1.5943l-.0007-.3165.0007-40.434v-7.8259q0-6.92-.0027-13.84c-.0039-11.2021-.0075-22.7856.0147-34.1755.009-4.63,2.6-5.4551,3.4511-5.7262a6.4469,6.4469,0,0,1,1.9566-.3162,5.2027,5.2027,0,0,1,5.2378,5.482c.0373,9.25.0305,18.6616.0242,27.7631q-.0045,5.79-.0052,11.5809l.002,9.3177q.0041,14.0825-.0059,28.1649c-.0024,1.8456-.01,7.463,5.1631,9.8325a13.8937,13.8937,0,0,0,5.67,1.2034,12.35,12.35,0,0,0,2.7944-.3092c4-.9307,6.7095-4.6254,6.7422-9.1935l.0283-3.8544c.0523-6.9636.1062-14.1644.08-21.26-.0146-3.962,1.4932-5.237,3.1248-6.0246a5.564,5.564,0,0,1,2.3994-.6147,5.8572,5.8572,0,0,1,3.8071,1.7283c.7263.6442,1.5615,1.7669,1.5745,4.7548.0236,5.39.0151,10.8786.007,16.1861q-.0059,3.9624-.0083,7.9247a11.4855,11.4855,0,0,0,2.6646,7.6878,9.8946,9.8946,0,0,0,7.5972,3.365h.02l.0638,0c5.9524-.0406,9.9721-4.45,9.9965-10.9724.0066-1.7674,0-3.5346-.0061-5.3018-.0105-2.9322-.0212-5.9642.0313-8.9185.0373-2.1019.7886-4.8185,4.154-5.8232a4.8852,4.8852,0,0,1,1.3973-.1956,4.5637,4.5637,0,0,1,3.93,1.9216,13.1417,13.1417,0,0,1,1.397,5.346c.1946,2.6747.1563,5.3956.1155,8.2762-.022,1.55-.0447,3.1537-.0283,4.7591.0664,6.52,4.1516,10.9006,10.1657,10.9006l.2495-.0025c5.8421-.1156,9.952-4.6354,9.9939-10.9911.0042-.6424-.0009-1.2856-.0061-1.9287-.0075-.9263-.0149-1.8011.0081-2.6574a5.4862,5.4862,0,0,1,4.9631-5.1279l.1106-.0009c2.687,0,5.4514,1.5918,5.5354,4.6333.1887,6.8278.1712,13.814.1538,20.57q-.0059,2.4045-.01,4.8088c-.0029,3.24.0132,6.4813.03,9.7226.0422,8.44.0856,17.1678-.2317,25.6852-.4141,11.1056-5.0135,20.69-13.67,28.4856a39.7194,39.7194,0,0,1-26.2608,10.6251c-4.2029.0982-8.4048.148-12.4885.148-5.5718,0-11.1172-.0928-16.4819-.2757-7.2957-.2486-13.7217-3.2486-19.6448-9.1714l-.9375-.9375q-19.9835-19.9812-39.9724-39.9561-6.4725-6.4656-12.95-12.9261-8.859-8.8392-17.7115-17.6852a25.1621,25.1621,0,0,1-2.4738-2.7085c-.0162-.0223-.03-.0424-.0415-.06a1.5945,1.5945,0,0,1,.1953-.2106,11.62,11.62,0,0,1,7.9214-3.2466,13.7439,13.7439,0,0,1,8.1611,2.96q7.1408,5.3322,14.2563,10.6977,5.4119,4.0706,10.8291,8.1341a11.03,11.03,0,0,0,6.6394,2.4337Z"></path>
</svg>
