<?xml version="1.0" encoding="UTF-8"?>
<svg xmlns="http://www.w3.org/2000/svg" id="Layer_1" data-name="Layer 1" width="500" height="500" viewBox="0 0 500 500">
  <defs>
    <style>.cls-1{fill:#1f1fff;}</style>
  </defs>
  <path class="cls-1" d="M263.9519,310.0694A52.3346,52.3346,0,1,1,189.9368,236.06l47.9414-47.9368-31.5948-31.5926-47.83,47.8247A97.0151,97.0151,0,0,0,295.6594,341.55l47.83-47.8248-31.5952-31.5925Zm24.6367,24.409a87.015,87.015,0,1,1-123.064-123.0517l40.7588-40.7546,17.4522,17.4509-40.87,40.8656a62.3346,62.3346,0,0,0,88.1567,88.1522l40.8711-40.8668,17.4521,17.451Z"></path>
  <rect class="cls-1" x="227.8675" y="132.1763" width="24.0575" height="44.6966" transform="translate(-38.9991 214.902) rotate(-45.0022)"></rect>
  <rect class="cls-1" x="333.5999" y="238.0885" width="23.1477" height="44.6967" transform="translate(-83.0592 320.3437) rotate(-44.9985)"></rect>
  <path class="cls-1" d="M259.8113,214.9945l-49.8252,35.2218,6.09,6.09,109.502-32.5556-17.0332-16.8888,47.2187-25.6231L334.3083,159.58,247.9812,203.165ZM332.322,171.785l6.957,7.0219L291.949,204.49l14.6074,14.4835-60.4912,17.9844L275.27,216.3121,264.823,205.8642Z"></path>
</svg>
