<?xml version="1.0" encoding="UTF-8"?>
<svg xmlns="http://www.w3.org/2000/svg" id="Layer_1" data-name="Layer 1" width="500" height="500" viewBox="0 0 500 500">
  <defs>
    <style>.cls-1{fill:#1f1fff;}</style>
  </defs>
  <path class="cls-1" d="M310.74,246.3878q2.3415,0,4.7144-.1892A58.175,58.175,0,0,0,356.1593,151.78l-28.3808,33.4215L311.5549,171.43l28.4614-33.5165a57.8678,57.8678,0,0,0-29.16-7.8779q-2.3349,0-4.7021.1887a58.1837,58.1837,0,0,0-49.8657,78.2978L159.1047,323.7654a28.2738,28.2738,0,0,0,43.4062,36.2423L299.2887,245.24A57.9357,57.9357,0,0,0,310.74,246.3878ZM274.1266,156.98a47.8581,47.8581,0,0,1,32.8267-16.7876c1.2969-.104,2.61-.1568,3.9023-.1568A47.8784,47.8784,0,0,1,323.62,141.772l-19.688,23.1849-6.4736,7.6238,7.6245,6.4726,16.2236,13.7721,7.6226,6.47,6.4716-7.6211,19.4795-22.9391a48.1883,48.1883,0,0,1-40.2251,67.495c-1.3007.1043-2.6176.1572-3.915.1572A48.1754,48.1754,0,0,1,274.1266,156.98Zm-79.2773,196.602a18.3614,18.3614,0,0,1-25.4912,2.53,18.2734,18.2734,0,0,1-2.5918-25.92l94.2925-111.815a58.4138,58.4138,0,0,0,27.8046,23.7143Z"></path>
  <path class="cls-1" d="M360.8874,331.2331l-69.4136-57.9156-27.5293,33.0769,69.418,57.9188a21.5414,21.5414,0,0,0,30.2983-2.7779v0a21.5174,21.5174,0,0,0-2.7734-30.3019Zm-4.9131,23.9049a11.5294,11.5294,0,0,1-16.2114,1.492L278.02,305.1146,292.755,287.41l61.732,51.5063a11.5167,11.5167,0,0,1,1.4873,16.2216Z"></path>
  <polygon class="cls-1" points="211.591 240.313 218.09 232.713 165.588 187.821 164.857 178.463 140.724 164.028 132 174.132 149.688 196.725 159.299 195.601 211.591 240.313"></polygon>
</svg>
