<?xml version="1.0" encoding="UTF-8"?>
<svg xmlns="http://www.w3.org/2000/svg" id="Layer_1" data-name="Layer 1" width="500" height="500" viewBox="0 0 500 500">
  <defs>
    <style>.cls-1{fill:#0A55EB;}</style>
  </defs>
  <path class="cls-1" d="M369.2538,243.3054,283.077,220.7479l-.0068-.0237-.0391.0116-.1836-.0481v.1025l-71.4892,21.1846-81.3228-21.2871V346.01l86.4063,22.6176v-1.1861l.4536,1.4929,71.0532-21.5891,81.3052,21.2823Zm-10,7.7192v47.1561l-66.4063-17.3824v-47.156Zm-76.4063,29.617L216.4418,299.08V250.8982L282.8475,231.22Zm-76.4057-29.617v47.1561l-66.4063-17.3824v-47.156Zm-66.4063,87.2665V291.1352l66.4063,17.3824v47.1558Zm76.4063,20.33V309.4588L282.8475,291.02v47.4242Zm76.4057-20.33V291.1352l66.4063,17.3824v47.1558Z"></path>
  <path class="cls-1" d="M251.0384,214.49l23.6709-25.2135a34.6006,34.6006,0,0,0,6.8218-37.0941A33.64,33.64,0,0,0,251.65,130.928c-1.2159-.0547-2.4536-.0547-3.6685,0A33.1938,33.1938,0,0,0,218.2372,152.44a34.1271,34.1271,0,0,0,7.6992,36.9472ZM227.56,156.0583a23.027,23.027,0,0,1,20.8716-15.1405q.6885-.0309,1.3843-.0311t1.3838.0311a23.4457,23.4457,0,0,1,21.0674,15.0287,24.7021,24.7021,0,0,1-4.8487,26.4851l-16.6064,17.6891-17.8042-17.8042A24.3049,24.3049,0,0,1,227.56,156.0583Z"></path>
  <circle class="cls-1" cx="249.9999" cy="164.3802" r="11.5771"></circle>
</svg>
