<?xml version="1.0" encoding="UTF-8"?>
<svg xmlns="http://www.w3.org/2000/svg" id="Layer_1" data-name="Layer 1" width="500" height="500" viewBox="0 0 500 500">
  <defs>
    <style>.cls-1{fill:#0A55EB;}</style>
  </defs>
  <path class="cls-1" d="M369.6034,154.1513l-76.4-20.52V130.254H206.7973v3.3776l-76.4009,20.52v49.7976h76.4009v166.099H293.203V203.9489h76.4Zm-10,7.6686v10.6306H293.226V143.9922Zm-152.83-17.8277v28.4583H140.3964V161.82Zm-66.3774,49.9567V182.4505h66.3774v11.4984Zm76.4009,166.099V140.254H283.203v22.1965H255.6054v10H283.203v10H255.6054v10H283.203v10H255.6054v10H283.203v10H255.6054v10H283.203v10H255.6054v10H283.203v10H255.6054v10H283.203v10H255.6054v10H283.203v67.5974Zm76.4287-166.099V182.4505h66.3774v11.4984Z"></path>
  <path class="cls-1" d="M250.13,314.4919a17.228,17.228,0,1,0,17.228,17.228A17.2476,17.2476,0,0,0,250.13,314.4919Zm0,24.456a7.228,7.228,0,1,1,7.228-7.228A7.2362,7.2362,0,0,1,250.13,338.9479Z"></path>
</svg>
