<?xml version="1.0" encoding="UTF-8"?>
<svg xmlns="http://www.w3.org/2000/svg" id="Layer_1" data-name="Layer 1" width="500" height="500" viewBox="0 0 500 500">
  <defs>
    <style>.cls-1{fill:#0A55EB;}</style>
  </defs>
  <path class="cls-1" d="M164.9312,334.4774a121.583,121.583,0,0,1,65.5957-204.5137l1.7548,9.8448a111.5832,111.5832,0,0,0-60.1889,187.69Z"></path>
  <path class="cls-1" d="M248,369.2059a122.6782,122.6782,0,0,1-21.4727-1.8912l1.7549-9.8447A111.6711,111.6711,0,0,0,359.5669,247.6392a110.4537,110.4537,0,0,0-23.5977-68.6277l7.88-6.1568a120.3625,120.3625,0,0,1,25.7178,74.7845A121.7045,121.7045,0,0,1,248,369.2059Z"></path>
  <path class="cls-1" d="M295.1841,200.6173l36.4829-54.871,10.4568-15.711H262.74l-3.1967,6.0127L206.7808,236.8248,199.25,251.15l16.181.3257,19.885.4-34.3516,69.6909-15.031,30.4942,9.1074,5.5234L217.38,332.6627,320.5547,217.5636l14.6494-16.3428-21.9448-.331Zm-85.25,125.3706,41.3032-83.7939-35.605-.7163L268.395,140.7009l54.9473-.4957L276.7,210.34l36.408.5493Z"></path>
</svg>
