<?xml version="1.0" encoding="UTF-8"?>
<svg xmlns="http://www.w3.org/2000/svg" id="Layer_1" data-name="Layer 1" width="500" height="500" viewBox="0 0 500 500">
  <defs>
    <style>.cls-1{fill:#0A55EB;}</style>
  </defs>
  <path class="cls-1" d="M236.8061,307.9985a33.12,33.12,0,0,0-16.418-28.5395l-29.3076-17.0414a17.538,17.538,0,0,0-13.4092-1.8645,17.8127,17.8127,0,0,0-3.7,1.4363l-8.9863-35.152a17.6989,17.6989,0,1,0-34.3,8.7484l15.7588,61.6482a29.2515,29.2515,0,0,0,9.0781,14.7966l18.4892,16.23a11.6552,11.6552,0,0,1,3.9649,8.7562v5.8564h-9.9151v27.0911h77.7842V342.8735h-9.039Zm-.961,51.9661H178.0609v-7.0911h57.7842ZM187.976,342.8735v-5.8564a21.6583,21.6583,0,0,0-7.3672-16.271L162.12,304.5156a19.2806,19.2806,0,0,1-5.9863-9.7578l-15.7588-61.646a7.6987,7.6987,0,1,1,14.9209-3.801l10.582,41.3993a17.711,17.711,0,0,0,7.2491,22.2406l24.917,14.6585,5.07-8.6191-24.916-14.6583a7.72,7.72,0,0,1,1.997-14.1023,7.62,7.62,0,0,1,5.8369.82l29.3291,17.0542a23.0877,23.0877,0,0,1,11.4454,19.8948v34.875Z"></path>
  <path class="cls-1" d="M356.6352,214.06a17.6973,17.6973,0,0,0-21.5215,12.7744L326.1273,261.99a17.8226,17.8226,0,0,0-3.7021-1.4368,17.5185,17.5185,0,0,0-13.3867,1.8517L279.7094,279.459a33.12,33.12,0,0,0-16.418,28.5395v34.875h-9.1367v27.0911h77.7842V342.8735h-9.8174v-5.8564a11.6531,11.6531,0,0,1,3.9648-8.756l18.4873-16.23a29.2451,29.2451,0,0,0,9.0791-14.7966l15.76-61.6518A17.7192,17.7192,0,0,0,356.6352,214.06ZM321.9389,359.9646H264.1547v-7.0911h57.7842ZM359.724,233.1092l-15.7588,61.648a19.29,19.29,0,0,1-5.9882,9.7584l-18.4883,16.23a21.6547,21.6547,0,0,0-7.3672,16.2711v5.8564h-38.83v-34.875a23.0878,23.0878,0,0,1,11.4453-19.8948l29.3506-17.0672a7.6877,7.6877,0,0,1,10.52,2.7539,7.7061,7.7061,0,0,1-2.708,10.5411L296.9828,298.99l5.07,8.6191,24.917-14.6587a17.7088,17.7088,0,0,0,7.249-22.2418l10.5831-41.4011a7.6992,7.6992,0,0,1,14.9218,3.8016Z"></path>
  <path class="cls-1" d="M314.0023,148.5111c-.1406-4.9077-.2724-9.5432-.2724-14.104l-8.544-3.5274c-9.6748,9.72-19.3027,14.2989-28.6015,13.6109-13.5254-1-22.4619-12.9176-22.541-13.0247l-7.8916-.2517c-.1055.1269-10.72,12.7193-25.2686,13.0941-8.8984.2287-17.6064-4.2422-25.9355-13.2882l-8.6778,3.387c0,4.5608-.1318,9.1964-.2724,14.1041-1.0684,37.4717-2.3985,84.1063,61.8818,114.199h4.24C316.4008,232.6175,315.0707,185.9828,314.0023,148.5111ZM249.9994,252.6432c-56.1894-27.267-55.08-66.19-54.0058-103.8469q.0468-1.6223.09-3.2084c7.9463,6.0156,16.333,8.9424,25.0566,8.717,13.0489-.3362,23.3184-7.7489,28.6641-12.5923,4.7764,4.7576,13.7861,11.804,25.9277,12.7421,9.4942.7336,18.9375-2.3632,28.1748-9.2207q.0469,1.7605.1,3.5621C305.0805,186.4529,306.19,225.3762,249.9994,252.6432Z"></path>
  <polygon class="cls-1" points="245.372 198.478 234.196 187.302 227.125 194.373 245.372 212.62 278.331 179.661 271.261 172.59 245.372 198.478"></polygon>
</svg>
