<?xml version="1.0" encoding="UTF-8"?>
<svg xmlns="http://www.w3.org/2000/svg" id="Layer_1" data-name="Layer 1" width="500" height="500" viewBox="0 0 500 500">
  <defs>
    <style>.cls-1{fill:#0A55EB;}</style>
  </defs>
  <path class="cls-1" d="M269.5227,140.2222v27.0791l6.81,2.292a81.4173,81.4173,0,0,1,15.601,7.1684l6.6831,3.9722,5.4971-5.4976,14.5986-14.5981,24.1314,24.1294-16.418,16.4175-4.9751,4.9755,3.003,6.3633a81.2707,81.2707,0,0,1,5.4135,15.2608l1.8706,7.6142h7.84l20.1987.0005-.0005,34.1235H329.5925l-2.4145,6.5328a82.3338,82.3338,0,0,1-6.4043,13.4248l-3.9639,6.6811,5.4927,5.4927,17.0586,17.06-24.1279,24.13-18.878-18.8818-4.976-4.977-6.3643,3.0043a81.1279,81.1279,0,0,1-13.0664,4.8438l-7.3472,2.0215v30.9228H235.3987V328.855l-7.3472-2.0215a81.0645,81.0645,0,0,1-13.0659-4.8438l-6.3648-3.0048-4.976,4.9775-18.8784,18.8823-24.1275-24.1308,17.0581-17.06,5.4922-5.4927-3.9629-6.68a82.3727,82.3727,0,0,1-6.4048-13.4267l-2.4155-6.5318H140.2229V235.3994l20.1987-.0005h7.8409l1.87-7.6152a81.2317,81.2317,0,0,1,5.4135-15.26l3.002-6.3632-4.9746-4.9751-16.418-16.4175,24.1314-24.1294,14.5981,14.5981,5.4976,5.4976,6.6831-3.9722a81.4128,81.4128,0,0,1,15.6015-7.1684l6.81-2.292V140.2222h39.0454m10-10H220.4773v29.8935a91.1471,91.1471,0,0,0-17.521,8.05l-21.6689-21.6689-38.2745,38.2705,23.4893,23.4892a90.9687,90.9687,0,0,0-6.0811,17.1426l-30.1982.001v54.123h33.2192a92.0814,92.0814,0,0,0,7.1836,15.0606l-24.1284,24.13,38.2695,38.2744,25.95-25.9551a90.79,90.79,0,0,0,14.6821,5.4424v33.3027h49.2026V336.4751a90.8074,90.8074,0,0,0,14.6821-5.4424l25.9493,25.9551,38.27-38.2744-24.1289-24.13a92,92,0,0,0,7.1836-15.0606h33.2192l.0005-54.123-30.1982-.001a90.97,90.97,0,0,0-6.0816-17.1426l23.4893-23.4892-38.2744-38.27-21.669,21.6689a91.1428,91.1428,0,0,0-17.5205-8.05V130.2222Z"></path>
  <path class="cls-1" d="M252.1453,219.916a30.16,30.16,0,0,1-.001,60.1685h-4.2891a30.16,30.16,0,0,1-.0014-60.1685h4.2915m.3266-10h-4.9448a40.16,40.16,0,0,0,.0015,80.1685h4.9423a40.16,40.16,0,0,0,.001-80.1685Z"></path>
</svg>
