<svg width="19" height="19" viewBox="0 0 19 19" fill="none" xmlns="http://www.w3.org/2000/svg">
<g clip-path="url(#clip0_2367_18426)">
<mask id="path-1-inside-1_2367_18426" fill="white">
<path d="M5.73701 18.6053C4.69731 18.6078 3.68029 18.3015 2.81488 17.7252C1.94947 17.149 1.27465 16.3288 0.875953 15.3686C0.47726 14.4083 0.372653 13.3514 0.575392 12.3316C0.778132 11.3119 1.27909 10.3753 2.01476 9.64059L9.96476 1.70184C10.6684 0.996594 11.6234 0.59976 12.6196 0.598635C13.6159 0.59751 14.5718 0.992186 15.277 1.69584C15.9822 2.39949 16.3791 3.35448 16.3802 4.35072C16.3813 5.34696 15.9867 6.30284 15.283 7.00809L7.33226 14.9461C6.90225 15.3559 6.33102 15.5845 5.73701 15.5845C5.14299 15.5845 4.57176 15.3559 4.14176 14.9461C3.93256 14.7371 3.7666 14.489 3.65337 14.2158C3.54014 13.9427 3.48186 13.6499 3.48186 13.3542C3.48186 13.0585 3.54014 12.7657 3.65337 12.4926C3.7666 12.2195 3.93256 11.9713 4.14176 11.7623L11.5623 4.35534L12.6258 5.41659L5.20526 12.8251C5.06465 12.9657 4.98567 13.1565 4.98567 13.3553C4.98567 13.5542 5.06465 13.7449 5.20526 13.8856C5.34853 14.0223 5.53897 14.0986 5.73701 14.0986C5.93505 14.0986 6.12548 14.0223 6.26876 13.8856L14.2248 5.94684C14.6469 5.52365 14.8837 4.95008 14.883 4.35231C14.8823 3.75454 14.6442 3.18153 14.221 2.75934C13.7978 2.33715 13.2243 2.10036 12.6265 2.10106C12.0287 2.10176 11.4557 2.3399 11.0335 2.76309L3.07826 10.7011C2.3745 11.4062 1.97969 12.3621 1.98068 13.3583C1.98166 14.3545 2.37836 15.3096 3.08351 16.0133C3.78865 16.7171 4.74448 17.1119 5.74072 17.1109C6.73696 17.1099 7.69201 16.7132 8.39576 16.0081L17.4115 7.00809L18.475 8.06934L9.45926 17.0693C8.97043 17.5577 8.39 17.9448 7.75125 18.2084C7.1125 18.472 6.428 18.6069 5.73701 18.6053Z"/>
</mask>
<path d="M5.73701 18.6053C4.69731 18.6078 3.68029 18.3015 2.81488 17.7252C1.94947 17.149 1.27465 16.3288 0.875953 15.3686C0.47726 14.4083 0.372653 13.3514 0.575392 12.3316C0.778132 11.3119 1.27909 10.3753 2.01476 9.64059L9.96476 1.70184C10.6684 0.996594 11.6234 0.59976 12.6196 0.598635C13.6159 0.59751 14.5718 0.992186 15.277 1.69584C15.9822 2.39949 16.3791 3.35448 16.3802 4.35072C16.3813 5.34696 15.9867 6.30284 15.283 7.00809L7.33226 14.9461C6.90225 15.3559 6.33102 15.5845 5.73701 15.5845C5.14299 15.5845 4.57176 15.3559 4.14176 14.9461C3.93256 14.7371 3.7666 14.489 3.65337 14.2158C3.54014 13.9427 3.48186 13.6499 3.48186 13.3542C3.48186 13.0585 3.54014 12.7657 3.65337 12.4926C3.7666 12.2195 3.93256 11.9713 4.14176 11.7623L11.5623 4.35534L12.6258 5.41659L5.20526 12.8251C5.06465 12.9657 4.98567 13.1565 4.98567 13.3553C4.98567 13.5542 5.06465 13.7449 5.20526 13.8856C5.34853 14.0223 5.53897 14.0986 5.73701 14.0986C5.93505 14.0986 6.12548 14.0223 6.26876 13.8856L14.2248 5.94684C14.6469 5.52365 14.8837 4.95008 14.883 4.35231C14.8823 3.75454 14.6442 3.18153 14.221 2.75934C13.7978 2.33715 13.2243 2.10036 12.6265 2.10106C12.0287 2.10176 11.4557 2.3399 11.0335 2.76309L3.07826 10.7011C2.3745 11.4062 1.97969 12.3621 1.98068 13.3583C1.98166 14.3545 2.37836 15.3096 3.08351 16.0133C3.78865 16.7171 4.74448 17.1119 5.74072 17.1109C6.73696 17.1099 7.69201 16.7132 8.39576 16.0081L17.4115 7.00809L18.475 8.06934L9.45926 17.0693C8.97043 17.5577 8.39 17.9448 7.75125 18.2084C7.1125 18.472 6.428 18.6069 5.73701 18.6053Z" fill="white"/>
<path d="M2.01476 9.64059L-13.0595 -5.45504L-13.0602 -5.45433L2.01476 9.64059ZM9.96476 1.70184L25.039 16.7975L25.0529 16.7836L25.0667 16.7697L9.96476 1.70184ZM15.283 7.00809L30.3558 22.1051L30.3704 22.0906L30.385 22.076L15.283 7.00809ZM7.33226 14.9461L22.0504 30.3891L22.2297 30.2182L22.4051 30.0431L7.33226 14.9461ZM5.73701 15.5845V-5.74882V15.5845ZM4.14176 14.9461L-10.9348 30.0394L-10.7576 30.2164L-10.5764 30.3891L4.14176 14.9461ZM3.48186 13.3542H24.8152H3.48186ZM4.14176 11.7623L-10.9294 -3.33634L-10.9348 -3.331L4.14176 11.7623ZM11.5623 4.35534L26.6312 -10.7456L11.56 -25.7849L-3.50895 -10.7433L11.5623 4.35534ZM12.6258 5.41659L27.6985 20.5137L42.8239 5.41283L27.6947 -9.68431L12.6258 5.41659ZM5.20526 12.8251L-9.86748 -2.27206L-9.87472 -2.26483L-9.88197 -2.25758L5.20526 12.8251ZM5.20526 13.8856L-9.88197 28.9683L-9.70427 29.146L-9.52243 29.3195L5.20526 13.8856ZM5.73701 14.0986V-7.23475V14.0986ZM6.26876 13.8856L20.9964 29.3195L21.1687 29.1551L21.3373 28.9869L6.26876 13.8856ZM14.2248 5.94684L29.2933 21.0481L29.3104 21.0311L29.3274 21.014L14.2248 5.94684ZM11.0335 2.76309L26.1021 17.8644L26.1191 17.8474L26.1362 17.8303L11.0335 2.76309ZM3.07826 10.7011L-11.9903 -4.40022L-12.006 -4.3846L-12.0216 -4.36894L3.07826 10.7011ZM8.39576 16.0081L-6.67599 0.90996L-6.69005 0.923995L-6.70409 0.938057L8.39576 16.0081ZM17.4115 7.00809L32.4805 -8.09282L17.4087 -23.1327L2.33975 -8.09004L17.4115 7.00809ZM18.475 8.06934L33.5468 23.1675L48.6741 8.06655L33.544 -7.03157L18.475 8.06934ZM9.45926 17.0693L-5.6125 1.97121L-5.61887 1.97758L9.45926 17.0693ZM5.68664 -2.72794C8.87176 -2.73546 11.9874 -1.79708 14.6386 -0.031781L-9.00879 35.4823C-4.62681 38.4 0.52285 39.951 5.78737 39.9386L5.68664 -2.72794ZM14.6386 -0.031781C17.2897 1.73352 19.357 4.24626 20.5784 7.1879L-18.8265 23.5492C-16.8077 28.4113 -13.3908 32.5645 -9.00879 35.4823L14.6386 -0.031781ZM20.5784 7.1879C21.7998 10.1295 22.1203 13.3676 21.4992 16.4916L-20.3484 8.17166C-21.375 13.3351 -20.8453 18.6871 -18.8265 23.5492L20.5784 7.1879ZM21.4992 16.4916C20.8781 19.6155 19.3434 22.4848 17.0897 24.7355L-13.0602 -5.45433C-16.7853 -1.73421 -19.3218 3.00819 -20.3484 8.17166L21.4992 16.4916ZM17.089 24.7362L25.039 16.7975L-5.1095 -13.3938L-13.0595 -5.45504L17.089 24.7362ZM25.0667 16.7697C21.7741 20.0698 17.3054 21.9267 12.6437 21.932L12.5955 -20.7347C5.94135 -20.7272 -0.43731 -18.0766 -5.13722 -13.3661L25.0667 16.7697ZM12.6437 21.932C7.98202 21.9372 3.50915 20.0904 0.209109 16.7978L30.3449 -13.4061C25.6344 -18.106 19.2497 -20.7422 12.5955 -20.7347L12.6437 21.932ZM0.209109 16.7978C-3.09094 13.5052 -4.94785 9.03653 -4.95311 4.37482L37.7135 4.32663C37.706 -2.32757 35.0554 -8.70623 30.3449 -13.4061L0.209109 16.7978ZM-4.95311 4.37482C-4.95838 -0.286884 -3.11158 -4.75976 0.181034 -8.05981L30.385 22.076C35.0849 17.3654 37.721 10.9808 37.7135 4.32663L-4.95311 4.37482ZM0.210172 -8.08896L-7.74058 -0.150959L22.4051 30.0431L30.3558 22.1051L0.210172 -8.08896ZM-7.38588 -0.496961C-3.84857 -3.86823 0.850508 -5.74882 5.73701 -5.74882V36.9179C11.8115 36.9179 17.6531 34.58 22.0504 30.3891L-7.38588 -0.496961ZM5.73701 -5.74882C10.6235 -5.74882 15.3226 -3.86822 18.8599 -0.496961L-10.5764 30.3891C-6.17906 34.58 -0.337527 36.9179 5.73701 36.9179V-5.74882ZM19.2183 -0.147247C20.9926 1.62507 22.4002 3.72974 23.3605 6.04643L-16.0538 22.3852C-14.867 25.2482 -13.1275 27.8492 -10.9348 30.0394L19.2183 -0.147247ZM23.3605 6.04643C24.3209 8.36312 24.8152 10.8464 24.8152 13.3542H-17.8515C-17.8515 16.4534 -17.2406 19.5222 -16.0538 22.3852L23.3605 6.04643ZM24.8152 13.3542C24.8152 15.8621 24.3209 18.3453 23.3605 20.662L-16.0538 4.3232C-17.2406 7.18618 -17.8515 10.255 -17.8515 13.3542H24.8152ZM23.3605 20.662C22.4002 22.9787 20.9926 25.0834 19.2183 26.8557L-10.9348 -3.331C-13.1275 -1.14075 -14.867 1.46022 -16.0538 4.3232L23.3605 20.662ZM19.213 26.861L26.6335 19.454L-3.50895 -10.7433L-10.9294 -3.33634L19.213 26.861ZM-3.50671 19.4562L-2.44321 20.5175L27.6947 -9.68431L26.6312 -10.7456L-3.50671 19.4562ZM-2.44698 -9.68056L-9.86748 -2.27206L20.278 27.9222L27.6985 20.5137L-2.44698 -9.68056ZM-9.88197 -2.25758C-14.022 1.88366 -16.3477 7.49964 -16.3477 13.3553H26.319C26.319 18.8133 24.1513 24.0478 20.2925 27.9078L-9.88197 -2.25758ZM-16.3477 13.3553C-16.3477 19.211 -14.022 24.827 -9.88197 28.9683L20.2925 -1.19708C24.1513 2.66287 26.319 7.89738 26.319 13.3553H-16.3477ZM-9.52243 29.3195C-5.41088 33.2429 0.0538885 35.4319 5.73701 35.4319V-7.23475C11.024 -7.23475 16.1079 -5.19832 19.9329 -1.54835L-9.52243 29.3195ZM5.73701 35.4319C11.4201 35.4319 16.8849 33.2429 20.9964 29.3195L-8.45893 -1.54835C-4.63392 -5.19833 0.449982 -7.23475 5.73701 -7.23475V35.4319ZM21.3373 28.9869L29.2933 21.0481L-0.843809 -9.15447L-8.79981 -1.21572L21.3373 28.9869ZM29.3274 21.014C33.7457 16.5854 36.2237 10.5829 36.2164 4.32721L-6.45028 4.37741C-6.45624 -0.68278 -4.45179 -5.53807 -0.877925 -9.12035L29.3274 21.014ZM36.2164 4.32721C36.209 -1.9285 33.7169 -7.92508 29.2882 -12.3433L-0.846181 17.862C-4.42848 14.2881 -6.44433 9.43758 -6.45028 4.37741L36.2164 4.32721ZM29.2882 -12.3433C24.8595 -16.7616 18.8571 -19.2396 12.6014 -19.2323L12.6516 23.4344C7.59141 23.4403 2.73612 21.4359 -0.846181 17.862L29.2882 -12.3433ZM12.6014 -19.2323C6.34565 -19.2249 0.349079 -16.7328 -4.06917 -12.3041L26.1362 17.8303C22.5623 21.4126 17.7118 23.4284 12.6516 23.4344L12.6014 -19.2323ZM-4.03506 -12.3382L-11.9903 -4.40022L18.1468 25.8024L26.1021 17.8644L-4.03506 -12.3382ZM-12.0216 -4.36894C-16.7222 0.340927 -19.3592 6.72519 -19.3526 13.3794L23.314 13.3372C23.3186 17.9989 21.4712 22.4715 18.1781 25.7711L-12.0216 -4.36894ZM-19.3526 13.3794C-19.3461 20.0336 -16.6964 26.4126 -11.9865 31.1132L18.1535 0.91349C21.4531 4.20656 23.3094 8.67551 23.314 13.3372L-19.3526 13.3794ZM-11.9865 31.1132C-7.27664 35.8138 -0.892374 38.4508 5.7618 38.4442L5.71964 -4.22241C10.3813 -4.22702 14.8539 -2.37959 18.1535 0.91349L-11.9865 31.1132ZM5.7618 38.4442C12.416 38.4377 18.795 35.788 23.4956 31.0781L-6.70409 0.938057C-3.41101 -2.36154 1.05794 -4.2178 5.71964 -4.22241L5.7618 38.4442ZM23.4675 31.1062L32.4833 22.1062L2.33975 -8.09004L-6.67599 0.90996L23.4675 31.1062ZM2.34254 22.109L3.40604 23.1702L33.544 -7.03157L32.4805 -8.09282L2.34254 22.109ZM3.40325 -7.02879L-5.61249 1.97121L24.531 32.1675L33.5468 23.1675L3.40325 -7.02879ZM-5.61887 1.97758C-4.12136 0.481419 -2.34322 -0.704413 -0.3864 -1.5119L15.8889 37.9287C19.1232 36.594 22.0622 34.634 24.5374 32.1611L-5.61887 1.97758ZM-0.3864 -1.5119C1.57041 -2.31939 3.66737 -2.73263 5.78421 -2.72795L5.6898 39.9386C9.18863 39.9464 12.6546 39.2633 15.8889 37.9287L-0.3864 -1.5119Z" fill="white" mask="url(#path-1-inside-1_2367_18426)"/>
</g>
<defs>
<clipPath id="clip0_2367_18426">
<rect width="18" height="18" fill="white" transform="translate(0.5 0.599609)"/>
</clipPath>
</defs>
</svg>
