<svg width="36" height="40" viewBox="0 0 36 40" fill="none" xmlns="http://www.w3.org/2000/svg">
<g clip-path="url(#clip0_1902_28015)">
<path fill-rule="evenodd" clip-rule="evenodd" d="M11.4255 15.5794L17.4053 12.2396V5.96029C16.7104 5.83671 16.0812 5.47256 15.6279 4.93164L6.04786 10.4753C6.1618 10.7943 6.22365 11.1361 6.22365 11.4941C6.22365 11.7936 6.18133 12.0801 6.09995 12.3535L11.4255 15.5794ZM15.1201 4.0625C14.993 3.72427 14.928 3.36588 14.9281 3.00456C14.9281 2.17448 15.2634 1.42253 15.807 0.878906C16.3506 0.335286 17.1026 0 17.9326 0C18.7627 0 19.5147 0.335286 20.0583 0.878906C20.3376 1.15786 20.559 1.48925 20.7098 1.85404C20.8607 2.21882 20.9379 2.60982 20.9372 3.00456C20.9372 3.36914 20.8721 3.71745 20.7549 4.03971L30.3806 9.60612C30.4489 9.52474 30.5173 9.44336 30.5921 9.36849C30.8711 9.0892 31.2025 8.86778 31.5673 8.71695C31.9321 8.56611 32.3231 8.48885 32.7178 8.48958C33.5479 8.48958 34.2998 8.82487 34.8434 9.36849C35.1227 9.64744 35.3442 9.97883 35.495 10.3436C35.6458 10.7084 35.7231 11.0994 35.7224 11.4941C35.7224 12.3242 35.3871 13.0729 34.8434 13.6165C34.3762 14.0843 33.7673 14.3842 33.1117 14.4694V25.5078C33.7855 25.5957 34.3877 25.9049 34.8434 26.3607C35.3871 26.9043 35.7224 27.6562 35.7224 28.4831C35.7227 28.8777 35.6452 29.2686 35.4943 29.6333C35.3435 29.998 35.1222 30.3293 34.8431 30.6084C34.564 30.8874 34.2327 31.1087 33.868 31.2596C33.5033 31.4105 33.1125 31.488 32.7178 31.4876C32.2722 31.4883 31.8321 31.3896 31.4294 31.1987C31.0268 31.0078 30.6718 30.7295 30.3903 30.3841L20.7516 35.957C20.8688 36.2793 20.9339 36.6276 20.9339 36.9922C20.9339 37.8223 20.5986 38.5742 20.055 39.1178C19.7761 39.3971 19.4447 39.6185 19.0799 39.7694C18.7151 39.9202 18.3241 39.9975 17.9294 39.9967C17.0993 39.9967 16.3473 39.6615 15.8037 39.1178C15.2601 38.5742 14.9248 37.8223 14.9248 36.9922C14.9248 36.6211 14.9932 36.263 15.1169 35.9342L5.54005 30.3971C5.2583 30.7399 4.90394 31.0158 4.50256 31.205C4.10118 31.3941 3.6628 31.4918 3.21909 31.4909C2.38901 31.4909 1.63706 31.1556 1.09344 30.612C0.55307 30.0684 0.217784 29.3164 0.217784 28.4863C0.217784 27.6562 0.55307 26.9075 1.09669 26.3639C1.55859 25.9016 2.1585 25.6022 2.80568 25.5111V14.4661C2.15805 14.3765 1.55771 14.0769 1.09669 13.6133C0.817193 13.3352 0.595606 13.0044 0.444746 12.6401C0.293886 12.2758 0.216745 11.8852 0.217784 11.4909C0.217784 10.6608 0.55307 9.90885 1.09669 9.36523C1.37564 9.08594 1.70703 8.86452 2.07182 8.71369C2.43661 8.56286 2.8276 8.48559 3.22234 8.48633C3.66875 8.48554 4.10969 8.58451 4.51293 8.776C4.91618 8.96748 5.27155 9.24665 5.55307 9.5931L15.1201 4.0625ZM20.2503 4.91211C19.7941 5.46838 19.1527 5.84165 18.4437 5.96354V12.2396L24.4105 15.6966L29.8955 12.526C29.7751 12.2038 29.7132 11.8522 29.7132 11.4909C29.7132 11.1393 29.7751 10.7975 29.8858 10.485L20.2503 4.91211ZM32.1937 14.4499C31.5866 14.3443 31.027 14.0532 30.5921 13.6165C30.5303 13.5547 30.4717 13.4928 30.4164 13.4245L24.9411 16.5885V23.3529L30.4391 26.5267C30.488 26.4714 30.5368 26.416 30.5889 26.3639C31.0242 25.9279 31.5835 25.6369 32.1905 25.5306V14.4499H32.1937ZM29.8923 29.5117C29.7751 29.1927 29.7132 28.8477 29.7132 28.4896C29.7132 28.112 29.7816 27.7507 29.9118 27.4154L24.5928 24.3457L18.4437 27.9199V34.0365C19.1527 34.1583 19.7941 34.5316 20.2503 35.0879L29.8923 29.5117ZM15.6279 35.0651C16.0812 34.5242 16.7104 34.16 17.4053 34.0365V27.8906L11.2334 24.3099L5.99578 27.334C6.14226 27.6888 6.2269 28.0794 6.2269 28.4896C6.2269 28.8542 6.1618 29.2025 6.04461 29.5247L15.6279 35.0651ZM3.72039 25.5241C4.34864 25.6283 4.9118 25.931 5.34474 26.3639C5.37729 26.3965 5.40659 26.429 5.43588 26.4616L10.7712 23.3822V16.3932L5.63445 13.2812C5.54656 13.4017 5.4489 13.5124 5.34474 13.6165C4.90338 14.058 4.33577 14.3515 3.72039 14.4564V25.5241ZM3.2256 13.457C3.23862 13.457 3.25164 13.4538 3.26466 13.4538H3.2907C3.78814 13.4382 4.26086 13.2332 4.61232 12.8809C4.79515 12.6985 4.94017 12.4819 5.03905 12.2433C5.13793 12.0048 5.18871 11.7491 5.18849 11.4909C5.18849 10.9473 4.96713 10.4557 4.61232 10.1009C4.2575 9.74609 3.76596 9.52474 3.22234 9.52474C2.67872 9.52474 2.18719 9.74609 1.83237 10.1009C1.64953 10.2832 1.50451 10.4999 1.40563 10.7384C1.30676 10.977 1.25597 11.2327 1.2562 11.4909C1.2562 12.0345 1.47755 12.526 1.83237 12.8809C2.01516 13.064 2.23236 13.2092 2.47146 13.308C2.71056 13.4069 2.96685 13.4576 3.2256 13.457ZM19.3194 35.6087C19.137 35.4259 18.9204 35.2809 18.6818 35.182C18.4433 35.0831 18.1876 35.0323 17.9294 35.0326C17.3858 35.0326 16.8942 35.2539 16.5394 35.6087C16.1846 35.9635 15.9632 36.4551 15.9632 36.9987C15.9632 37.5423 16.1846 38.0339 16.5394 38.3887C16.8942 38.7435 17.3858 38.9648 17.9294 38.9648C18.473 38.9648 18.9645 38.7435 19.3194 38.3887C19.6742 38.0339 19.8955 37.5423 19.8955 36.9987C19.8955 36.4551 19.6774 35.9635 19.3194 35.6087ZM19.3194 1.61458C19.137 1.43175 18.9204 1.28673 18.6818 1.18785C18.4433 1.08897 18.1876 1.03819 17.9294 1.03841C17.3858 1.03841 16.8942 1.25977 16.5394 1.61458C16.1846 1.9694 15.9632 2.46094 15.9632 3.00456C15.9632 3.54818 16.1846 4.03971 16.5394 4.39453C16.7217 4.57737 16.9384 4.72239 17.1769 4.82126C17.4155 4.92014 17.6712 4.97093 17.9294 4.9707C18.473 4.9707 18.9645 4.74935 19.3194 4.39453C19.5022 4.2122 19.6472 3.99555 19.7461 3.75702C19.845 3.51848 19.8957 3.26277 19.8955 3.00456C19.8955 2.46094 19.6774 1.9694 19.3194 1.61458ZM34.1045 27.0996C33.9222 26.9168 33.7055 26.7717 33.467 26.6729C33.2285 26.574 32.9728 26.5232 32.7145 26.5234C32.1709 26.5234 31.6794 26.7448 31.3246 27.0996C31.1417 27.2819 30.9967 27.4986 30.8978 27.7371C30.799 27.9757 30.7482 28.2314 30.7484 28.4896C30.7484 29.0332 30.9697 29.5247 31.3246 29.8796C31.5069 30.0624 31.7235 30.2074 31.9621 30.3063C32.2006 30.4052 32.4563 30.4559 32.7145 30.4557C33.2582 30.4557 33.7497 30.2344 34.1045 29.8796C34.2873 29.6972 34.4324 29.4806 34.5312 29.242C34.6301 29.0035 34.6809 28.7478 34.6807 28.4896C34.6807 27.946 34.4626 27.4544 34.1045 27.0996ZM4.61232 27.0996C4.2575 26.7448 3.76596 26.5234 3.22234 26.5234C2.67872 26.5234 2.18719 26.7448 1.83237 27.0996C1.64953 27.2819 1.50451 27.4986 1.40563 27.7371C1.30676 27.9757 1.25597 28.2314 1.2562 28.4896C1.2562 29.0332 1.47755 29.5247 1.83237 29.8796C2.18719 30.2344 2.67872 30.4557 3.22234 30.4557C3.76596 30.4557 4.2575 30.2344 4.61232 29.8796C4.79515 29.6972 4.94017 29.4806 5.03905 29.242C5.13793 29.0035 5.18871 28.7478 5.18849 28.4896C5.18744 27.9684 4.98032 27.4687 4.61232 27.0996ZM30.9632 12.3796C30.9893 12.4056 31.0088 12.4382 31.0283 12.4707C31.0479 12.5033 31.0609 12.5358 31.0739 12.5716C31.1488 12.6823 31.2334 12.7865 31.3246 12.8809C31.5069 13.0637 31.7235 13.2087 31.9621 13.3076C32.2006 13.4065 32.4563 13.4573 32.7145 13.457C33.2582 13.457 33.7497 13.2357 34.1045 12.8809C34.2873 12.6985 34.4324 12.4819 34.5312 12.2433C34.6301 12.0048 34.6809 11.7491 34.6807 11.4909C34.6807 10.9473 34.4593 10.4557 34.1045 10.1009C33.9222 9.91807 33.7055 9.77305 33.467 9.67418C33.2285 9.5753 32.9728 9.52452 32.7145 9.52474C32.1709 9.52474 31.6794 9.74609 31.3246 10.1009C31.1417 10.2832 30.9967 10.4999 30.8978 10.7384C30.799 10.977 30.7482 11.2327 30.7484 11.4909C30.7516 11.8132 30.8298 12.1126 30.9632 12.3796ZM11.7445 23.2715C11.8184 23.351 11.8672 23.4507 11.8845 23.5579L17.4606 26.8359V20.3646L11.7445 16.9629V23.2715ZM23.971 17.0508L18.4339 20.3678V26.8424L23.971 23.571V17.0508ZM17.9229 13.0176L12.5192 16.25L17.9522 19.5215L23.2289 16.3184L17.9229 13.0176Z" fill="#45E384"/>
</g>
<defs>
<clipPath id="clip0_1902_28015">
<rect width="35.5013" height="40" fill="#45E384" transform="translate(0.217773)"/>
</clipPath>
</defs>
</svg>
