<svg width="371" height="1116" viewBox="0 0 371 1116" fill="none" xmlns="http://www.w3.org/2000/svg">
<path d="M-479.633 768.307C-604.135 736.89 -710.715 684.819 -782.398 626.052C-854.116 567.258 -890.761 501.893 -875.801 443.864C-860.837 385.819 -797.025 345.804 -705.606 328.18C-614.231 310.564 -495.466 315.366 -370.963 346.783C-246.461 378.2 -139.879 430.262 -68.1942 489.025C3.52419 547.815 40.1692 613.18 25.205 671.225C10.2409 729.27 -53.5712 769.286 -144.989 786.91C-236.364 804.526 -355.13 799.724 -479.633 768.307Z" stroke="url(#paint0_linear_991_13687)"/>
<path d="M-491.692 815.08C-641.839 777.192 -770.28 714.028 -856.582 642.558C-942.917 571.06 -986.942 491.379 -968.652 420.432C-950.356 349.465 -873.135 300.379 -762.736 278.531C-652.378 256.692 -509.051 262.117 -358.905 300.005C-208.759 337.893 -80.315 401.047 5.98866 472.512C92.3243 544.004 136.35 623.685 118.054 694.653C99.759 765.62 22.537 814.706 -87.8618 836.554C-198.22 858.393 -341.546 852.968 -491.692 815.08Z" stroke="url(#paint1_linear_991_13687)"/>
<path d="M-507.811 873.69C-679.671 830.322 -826.07 755.612 -923.855 669.906C-1021.66 584.18 -1070.72 487.564 -1048.24 400.351C-1025.75 313.112 -935.909 251.546 -808.55 222.645C-681.221 193.751 -516.542 197.552 -344.682 240.92C-172.821 284.287 -26.4192 358.984 71.3672 444.684C169.176 530.404 218.236 627.02 195.746 714.259C173.256 801.497 83.4165 863.063 -43.9423 891.964C-171.271 920.858 -335.95 917.057 -507.811 873.69Z" stroke="url(#paint2_linear_991_13687)"/>
<path d="M-523.764 935.552C-714.46 887.432 -876.145 801.581 -983.421 701.705C-1090.71 601.816 -1143.49 487.993 -1116.65 383.889C-1089.81 279.754 -988.373 204.846 -845.833 168.007C-703.313 131.174 -519.822 132.44 -329.126 180.561C-138.43 228.681 23.2586 314.517 130.537 414.385C237.83 514.267 290.609 628.09 263.763 732.224C236.917 836.359 135.482 911.267 -7.05743 948.106C-149.577 984.939 -333.068 983.672 -523.764 935.552Z" stroke="url(#paint3_linear_991_13687)"/>
<defs>
<linearGradient id="paint0_linear_991_13687" x1="-760.856" y1="318.631" x2="-579.504" y2="933.346" gradientUnits="userSpaceOnUse">
<stop offset="0.02" stop-color="#0035F0"/>
<stop offset="0.385" stop-color="#0052F0"/>
<stop offset="1" stop-opacity="0"/>
</linearGradient>
<linearGradient id="paint1_linear_991_13687" x1="-829.362" y1="267.189" x2="-604.405" y2="1014.24" gradientUnits="userSpaceOnUse">
<stop offset="0.02" stop-color="#0035F0"/>
<stop offset="0.385" stop-color="#0052F0"/>
<stop offset="1" stop-opacity="0"/>
</linearGradient>
<linearGradient id="paint2_linear_991_13687" x1="-884.93" y1="210.201" x2="-585.932" y2="1100.75" gradientUnits="userSpaceOnUse">
<stop offset="0.02" stop-color="#0035F0"/>
<stop offset="0.385" stop-color="#0052F0"/>
<stop offset="1" stop-opacity="0"/>
</linearGradient>
<linearGradient id="paint3_linear_991_13687" x1="-930.732" y1="154.826" x2="-547.619" y2="1181.4" gradientUnits="userSpaceOnUse">
<stop offset="0.02" stop-color="#0035F0"/>
<stop offset="0.385" stop-color="#0052F0"/>
<stop offset="1" stop-opacity="0"/>
</linearGradient>
</defs>
</svg>
