<svg width="80" height="81" viewBox="0 0 80 81" fill="none" xmlns="http://www.w3.org/2000/svg">
<circle cx="2.97143" cy="3.54761" r="2.97143" fill="#D9D9D9" fill-opacity="0.12"/>
<circle cx="13.4861" cy="3.54761" r="2.97143" fill="#D9D9D9" fill-opacity="0.12"/>
<circle cx="23.9998" cy="3.54761" r="2.97143" fill="#D9D9D9" fill-opacity="0.12"/>
<ellipse cx="34.743" cy="3.54761" rx="3.20001" ry="2.97143" fill="#D9D9D9" fill-opacity="0.12"/>
<ellipse cx="45.2566" cy="3.54761" rx="3.20001" ry="2.97143" fill="#D9D9D9" fill-opacity="0.12"/>
<circle cx="55.9998" cy="3.54761" r="2.97143" fill="#D9D9D9" fill-opacity="0.12"/>
<circle cx="66.5144" cy="3.54761" r="2.97143" fill="#D9D9D9" fill-opacity="0.12"/>
<circle cx="77.0291" cy="3.54761" r="2.97143" fill="#D9D9D9" fill-opacity="0.12"/>
<circle cx="2.97143" cy="14.0623" r="2.97143" fill="#D9D9D9" fill-opacity="0.12"/>
<circle cx="13.4861" cy="14.0623" r="2.97143" fill="#D9D9D9" fill-opacity="0.12"/>
<circle cx="23.9998" cy="14.0623" r="2.97143" fill="#D9D9D9" fill-opacity="0.12"/>
<ellipse cx="34.743" cy="14.0623" rx="3.20001" ry="2.97143" fill="#D9D9D9" fill-opacity="0.12"/>
<ellipse cx="45.2566" cy="14.0623" rx="3.20001" ry="2.97143" fill="#D9D9D9" fill-opacity="0.12"/>
<circle cx="55.9998" cy="14.0623" r="2.97143" fill="#D9D9D9" fill-opacity="0.12"/>
<circle cx="66.5144" cy="14.0623" r="2.97143" fill="#D9D9D9" fill-opacity="0.12"/>
<circle cx="77.0291" cy="14.0623" r="2.97143" fill="#D9D9D9" fill-opacity="0.12"/>
<circle cx="2.97143" cy="24.5759" r="2.97143" fill="#D9D9D9" fill-opacity="0.12"/>
<circle cx="13.4861" cy="24.5759" r="2.97143" fill="#D9D9D9" fill-opacity="0.12"/>
<circle cx="23.9998" cy="24.5759" r="2.97143" fill="#D9D9D9" fill-opacity="0.12"/>
<ellipse cx="34.743" cy="24.5759" rx="3.20001" ry="2.97143" fill="#D9D9D9" fill-opacity="0.12"/>
<ellipse cx="45.2566" cy="24.5759" rx="3.20001" ry="2.97143" fill="#D9D9D9" fill-opacity="0.12"/>
<circle cx="55.9998" cy="24.5759" r="2.97143" fill="#D9D9D9" fill-opacity="0.12"/>
<circle cx="66.5144" cy="24.5759" r="2.97143" fill="#D9D9D9" fill-opacity="0.12"/>
<circle cx="77.0291" cy="24.5759" r="2.97143" fill="#D9D9D9" fill-opacity="0.12"/>
<ellipse cx="2.97143" cy="35.3191" rx="2.97143" ry="3.20001" fill="#D9D9D9" fill-opacity="0.12"/>
<ellipse cx="13.4861" cy="35.3191" rx="2.97143" ry="3.20001" fill="#D9D9D9" fill-opacity="0.12"/>
<ellipse cx="23.9998" cy="35.3191" rx="2.97143" ry="3.20001" fill="#D9D9D9" fill-opacity="0.12"/>
<circle cx="34.743" cy="35.3191" r="3.20001" fill="#D9D9D9" fill-opacity="0.12"/>
<circle cx="45.2566" cy="35.3191" r="3.20001" fill="#D9D9D9" fill-opacity="0.12"/>
<ellipse cx="55.9998" cy="35.3191" rx="2.97143" ry="3.20001" fill="#D9D9D9" fill-opacity="0.12"/>
<ellipse cx="66.5144" cy="35.3191" rx="2.97143" ry="3.20001" fill="#D9D9D9" fill-opacity="0.12"/>
<ellipse cx="77.0291" cy="35.3191" rx="2.97143" ry="3.20001" fill="#D9D9D9" fill-opacity="0.12"/>
<ellipse cx="2.97143" cy="45.8328" rx="2.97143" ry="3.20001" fill="#D9D9D9" fill-opacity="0.12"/>
<ellipse cx="13.4861" cy="45.8328" rx="2.97143" ry="3.20001" fill="#D9D9D9" fill-opacity="0.12"/>
<ellipse cx="23.9998" cy="45.8328" rx="2.97143" ry="3.20001" fill="#D9D9D9" fill-opacity="0.12"/>
<circle cx="34.743" cy="45.8328" r="3.20001" fill="#D9D9D9" fill-opacity="0.12"/>
<circle cx="45.2566" cy="45.8328" r="3.20001" fill="#D9D9D9" fill-opacity="0.12"/>
<ellipse cx="55.9998" cy="45.8328" rx="2.97143" ry="3.20001" fill="#D9D9D9" fill-opacity="0.12"/>
<ellipse cx="66.5144" cy="45.8328" rx="2.97143" ry="3.20001" fill="#D9D9D9" fill-opacity="0.12"/>
<ellipse cx="77.0291" cy="45.8328" rx="2.97143" ry="3.20001" fill="#D9D9D9" fill-opacity="0.12"/>
<circle cx="2.97143" cy="56.5759" r="2.97143" fill="#D9D9D9" fill-opacity="0.12"/>
<circle cx="13.4861" cy="56.5759" r="2.97143" fill="#D9D9D9" fill-opacity="0.12"/>
<circle cx="23.9998" cy="56.5759" r="2.97143" fill="#D9D9D9" fill-opacity="0.12"/>
<ellipse cx="34.743" cy="56.5759" rx="3.20001" ry="2.97143" fill="#D9D9D9" fill-opacity="0.12"/>
<ellipse cx="45.2566" cy="56.5759" rx="3.20001" ry="2.97143" fill="#D9D9D9" fill-opacity="0.12"/>
<circle cx="55.9998" cy="56.5759" r="2.97143" fill="#D9D9D9" fill-opacity="0.12"/>
<circle cx="66.5144" cy="56.5759" r="2.97143" fill="#D9D9D9" fill-opacity="0.12"/>
<circle cx="77.0291" cy="56.5759" r="2.97143" fill="#D9D9D9" fill-opacity="0.12"/>
<circle cx="2.97143" cy="67.0906" r="2.97143" fill="#D9D9D9" fill-opacity="0.12"/>
<circle cx="13.4861" cy="67.0906" r="2.97143" fill="#D9D9D9" fill-opacity="0.12"/>
<circle cx="23.9998" cy="67.0906" r="2.97143" fill="#D9D9D9" fill-opacity="0.12"/>
<ellipse cx="34.743" cy="67.0906" rx="3.20001" ry="2.97143" fill="#D9D9D9" fill-opacity="0.12"/>
<ellipse cx="45.2566" cy="67.0906" rx="3.20001" ry="2.97143" fill="#D9D9D9" fill-opacity="0.12"/>
<circle cx="55.9998" cy="67.0906" r="2.97143" fill="#D9D9D9" fill-opacity="0.12"/>
<circle cx="66.5144" cy="67.0906" r="2.97143" fill="#D9D9D9" fill-opacity="0.12"/>
<circle cx="77.0291" cy="67.0906" r="2.97143" fill="#D9D9D9" fill-opacity="0.12"/>
<circle cx="2.97143" cy="77.6052" r="2.97143" fill="#D9D9D9" fill-opacity="0.12"/>
<circle cx="13.4861" cy="77.6052" r="2.97143" fill="#D9D9D9" fill-opacity="0.12"/>
<circle cx="23.9998" cy="77.6052" r="2.97143" fill="#D9D9D9" fill-opacity="0.12"/>
<ellipse cx="34.743" cy="77.6052" rx="3.20001" ry="2.97143" fill="#D9D9D9" fill-opacity="0.12"/>
<ellipse cx="45.2566" cy="77.6052" rx="3.20001" ry="2.97143" fill="#D9D9D9" fill-opacity="0.12"/>
<circle cx="55.9998" cy="77.6052" r="2.97143" fill="#D9D9D9" fill-opacity="0.12"/>
<circle cx="66.5144" cy="77.6052" r="2.97143" fill="#D9D9D9" fill-opacity="0.12"/>
<circle cx="77.0291" cy="77.6052" r="2.97143" fill="#D9D9D9" fill-opacity="0.12"/>
</svg>
