<svg width="49" height="48" viewBox="0 0 49 48" fill="none" xmlns="http://www.w3.org/2000/svg">
<path d="M15.7692 9.0301L15.206 7.87695C14.8028 8.07117 14.4034 8.28911 14.0195 8.52307L14.695 9.61596C15.0428 9.40315 15.404 9.20573 15.7692 9.0301Z" fill="#50B0FF"/>
<path d="M18.0644 8.19537L17.747 6.95312C17.3109 7.06273 16.8754 7.1967 16.4521 7.3499L16.8954 8.55432C17.2773 8.41587 17.6709 8.29472 18.0644 8.19537Z" fill="#50B0FF"/>
<path d="M11.895 11.9633L10.9253 11.1172C10.6285 11.4531 10.3459 11.8075 10.084 12.171L11.1337 12.9171C11.3704 12.5876 11.6266 12.2671 11.895 11.9633Z" fill="#50B0FF"/>
<path d="M12.7491 11.0882C13.0459 10.812 13.3607 10.5479 13.6846 10.3024L12.902 9.2832C12.544 9.55434 12.1962 9.84664 11.8672 10.1511L12.7491 11.0882Z" fill="#50B0FF"/>
<path d="M19.0781 6.68868L19.2672 7.95721C19.6723 7.8976 20.0826 7.85721 20.4878 7.83734L20.4239 6.55664C19.9775 6.57908 19.5246 6.6233 19.0781 6.68868Z" fill="#50B0FF"/>
<path d="M33.4507 14.5072C33.2662 14.0983 33.0597 13.6945 32.8365 13.3086L31.7178 13.947C31.9197 14.2964 32.1068 14.6611 32.2733 15.0316L33.4507 14.5072Z" fill="#50B0FF"/>
<path d="M30.323 10.157C29.9952 9.85185 29.6475 9.55956 29.2894 9.28906L28.5068 10.3082C28.8301 10.5537 29.1449 10.8178 29.4417 11.0941L30.323 10.157Z" fill="#50B0FF"/>
<path d="M8.73926 14.4975L9.91603 15.0231C10.0831 14.6533 10.2709 14.2885 10.4722 13.9392L9.35345 13.3008C9.13087 13.6867 8.92377 14.0892 8.73926 14.4975Z" fill="#50B0FF"/>
<path d="M22.929 7.95849L23.1219 6.68997C22.6793 6.6233 22.2258 6.57908 21.7748 6.55664L21.7109 7.83734C22.1193 7.85785 22.5296 7.89824 22.929 7.95849Z" fill="#50B0FF"/>
<path d="M28.1758 8.52631C27.7913 8.29106 27.3919 8.07313 26.9887 7.87891L26.4268 9.03333C26.7906 9.20768 27.1513 9.40511 27.499 9.61792L28.1758 8.52631Z" fill="#50B0FF"/>
<path d="M24.1299 8.19863C24.5215 8.29799 24.915 8.41977 25.2989 8.55951L25.7428 7.35509C25.3183 7.20125 24.8828 7.06728 24.4499 6.95703L24.1299 8.19863Z" fill="#50B0FF"/>
<path d="M30.2939 11.9672C30.5636 12.2743 30.8198 12.5948 31.0552 12.9223L32.1049 12.1762C31.8449 11.8153 31.5623 11.4608 31.2649 11.123L30.2939 11.9672Z" fill="#50B0FF"/>
<path d="M19.2564 32.043L19.0635 33.3115C19.5061 33.3782 19.9596 33.4224 20.4106 33.4448L20.4744 32.1641C20.0661 32.1436 19.6557 32.1032 19.2564 32.043Z" fill="#50B0FF"/>
<path d="M23.1099 33.3154L22.9208 32.0469C22.5157 32.1065 22.1054 32.1469 21.7002 32.1667L21.7641 33.4474C22.2105 33.425 22.6634 33.3808 23.1099 33.3154Z" fill="#50B0FF"/>
<path d="M26.417 30.9726L26.9802 32.1257C27.3834 31.9315 27.7828 31.7136 28.1667 31.4796L27.4918 30.3867C27.1434 30.5995 26.7822 30.797 26.417 30.9726Z" fill="#50B0FF"/>
<path d="M24.1201 31.8043L24.4375 33.0465C24.8737 32.9369 25.3091 32.8029 25.7324 32.6497L25.2891 31.4453C24.9072 31.5838 24.5137 31.7049 24.1201 31.8043Z" fill="#50B0FF"/>
<path d="M29.4374 28.9102C29.1407 29.1864 28.8258 29.4505 28.502 29.696L29.2845 30.7152C29.6426 30.444 29.9903 30.1518 30.3194 29.8473L29.4374 28.9102Z" fill="#50B0FF"/>
<path d="M33.4477 25.5022L32.271 24.9766C32.1039 25.3464 31.9161 25.7111 31.7148 26.0605L32.8336 26.6989C33.0561 26.313 33.2632 25.9105 33.4477 25.5022Z" fill="#50B0FF"/>
<path d="M14.0107 31.4725C14.3953 31.7077 14.7946 31.9257 15.1978 32.1199L15.7598 30.9654C15.3959 30.7911 15.0353 30.5937 14.6875 30.3809L14.0107 31.4725Z" fill="#50B0FF"/>
<path d="M30.29 28.0397L31.2597 28.8858C31.5565 28.55 31.8391 28.1955 32.101 27.8321L31.0513 27.0859C30.8146 27.4154 30.5584 27.7359 30.29 28.0397Z" fill="#50B0FF"/>
<path d="M11.8901 28.0332C11.6204 27.7262 11.3643 27.4057 11.1288 27.0781L10.0791 27.8242C10.3391 28.1851 10.6217 28.5396 10.9191 28.8774L11.8901 28.0332Z" fill="#50B0FF"/>
<path d="M11.8623 29.8434C12.19 30.1485 12.5378 30.4408 12.8959 30.7113L13.6784 29.6921C13.3552 29.4466 13.0404 29.1825 12.7436 28.9062L11.8623 29.8434Z" fill="#50B0FF"/>
<path d="M8.73633 25.4931C8.92084 25.902 9.1273 26.3059 9.35052 26.6917L10.4692 26.0533C10.2673 25.704 10.0802 25.3392 9.91375 24.9688L8.73633 25.4931Z" fill="#50B0FF"/>
<path d="M18.0553 31.8023C17.6637 31.7029 17.2701 31.5811 16.8863 31.4414L16.4424 32.6458C16.8669 32.7997 17.3024 32.9336 17.7353 33.0439L18.0553 31.8023Z" fill="#50B0FF"/>
<path d="M20.4481 1.96849V5.25742H21.7385V1.96849L24.6062 3.86774L25.3223 2.80113L21.0933 0L16.8643 2.80113L17.5804 3.86774L20.4481 1.96849Z" fill="#50B0FF"/>
<path d="M7.80262 7.70165L10.1433 10.0272L11.0555 9.12081L8.71488 6.79529L12.0949 6.12417L11.842 4.86719L6.8581 5.85752L5.86133 10.8079L7.12649 11.0598L7.80262 7.70165Z" fill="#50B0FF"/>
<path d="M11.0555 30.8804L10.1433 29.974L7.80262 32.2996L7.12649 28.9414L5.86133 29.1933L6.8581 34.1443L11.842 35.134L12.0949 33.877L8.71488 33.2059L11.0555 30.8804Z" fill="#50B0FF"/>
<path d="M21.7385 38.0311V34.7422H20.4481V38.0311L17.5804 36.1319L16.8643 37.1985L21.0933 39.9996L25.3223 37.1985L24.6062 36.1319L21.7385 38.0311Z" fill="#50B0FF"/>
<path d="M34.3821 32.2996L32.0415 29.974L31.1292 30.8804L33.4698 33.2059L30.0898 33.877L30.3427 35.134L35.3266 34.1443L36.3234 29.1933L35.0582 28.9414L34.3821 32.2996Z" fill="#50B0FF"/>
<path d="M31.1292 9.12081L32.0415 10.0272L34.3821 7.70165L35.0582 11.0598L36.3234 10.8079L35.3266 5.85752L30.3427 4.86719L30.0898 6.12417L33.4698 6.79529L31.1292 9.12081Z" fill="#50B0FF"/>
<path d="M37.2218 16.1545C36.4579 16.1545 35.7192 16.3949 35.0831 16.8212C32.1392 14.7642 27.3205 12.3086 21.0928 12.3086C14.865 12.3086 10.0463 14.7642 7.10245 16.8212C6.46568 16.3949 5.72697 16.1545 4.96374 16.1545C2.8289 16.1545 1.09277 17.8795 1.09277 20.0005C1.09277 22.1215 2.8289 23.8464 4.96374 23.8464C5.72761 23.8464 6.46632 23.6061 7.10245 23.1798C10.0463 25.2368 14.865 27.6924 21.0928 27.6924C27.3205 27.6924 32.1392 25.2368 35.0831 23.1798C35.7192 23.6061 36.4579 23.8464 37.2218 23.8464C39.3566 23.8464 41.0928 22.1215 41.0928 20.0005C41.0928 17.8795 39.3566 16.1545 37.2218 16.1545ZM4.96374 22.5645C3.54052 22.5645 2.3831 21.4145 2.3831 20.0005C2.3831 18.5865 3.54052 17.4365 4.96374 17.4365C5.31342 17.4365 5.65471 17.5173 5.97471 17.657C4.66697 18.6826 3.9289 19.4736 3.84116 19.5691L3.44632 20.0005L3.84116 20.4319C3.9289 20.5274 4.66697 21.3184 5.97471 22.344C5.65535 22.4837 5.31342 22.5645 4.96374 22.5645ZM5.23084 19.9999C6.47664 18.8204 10.3418 15.5552 16.025 14.1995C14.3902 15.6103 13.3508 17.6852 13.3508 20.0005C13.3508 22.3145 14.3889 24.3874 16.0218 25.7989C10.3489 24.4413 6.47729 21.1774 5.23084 19.9999ZM21.0928 26.4104C17.5354 26.4104 14.6412 23.5349 14.6412 20.0005C14.6412 16.4661 17.5354 13.5906 21.0928 13.5906C24.6502 13.5906 27.5444 16.4661 27.5444 20.0005C27.5444 23.5349 24.6502 26.4104 21.0928 26.4104ZM26.1605 25.8015C27.7954 24.3906 28.8347 22.3158 28.8347 20.0005C28.8347 17.6865 27.7966 15.6135 26.1637 14.2021C31.8366 15.5597 35.7076 18.8236 36.9547 20.0011C35.7089 21.1806 31.8437 24.4458 26.1605 25.8015ZM37.2218 22.5645C36.8721 22.5645 36.5302 22.4837 36.2108 22.344C37.5186 21.3184 38.2566 20.5274 38.3444 20.4319L38.7392 20.0005L38.3444 19.5691C38.2566 19.4736 37.5186 18.6826 36.2108 17.657C36.5302 17.5173 36.8721 17.4365 37.2218 17.4365C38.645 17.4365 39.8024 18.5865 39.8024 20.0005C39.8024 21.4145 38.645 22.5645 37.2218 22.5645Z" fill="#50B0FF"/>
<path d="M21.0943 15.5117C18.6039 15.5117 16.5781 17.5251 16.5781 19.9987C16.5781 22.4722 18.6039 24.4856 21.0943 24.4856C21.9852 24.4856 22.8478 24.2273 23.5891 23.7376L22.8755 22.6697C22.3459 23.019 21.7304 23.2036 21.0943 23.2036C19.3155 23.2036 17.8684 21.7659 17.8684 19.9987C17.8684 18.2314 19.3155 16.7937 21.0943 16.7937C22.873 16.7937 24.3201 18.2314 24.3201 19.9987C24.3201 20.5582 24.1697 21.1121 23.8852 21.6005L25.0014 22.2428C25.4001 21.5595 25.6104 20.7839 25.6104 19.9987C25.6104 17.5251 23.5846 15.5117 21.0943 15.5117Z" fill="#50B0FF"/>
</svg>
