<svg width="40" height="40" viewBox="0 0 40 40" fill="none" xmlns="http://www.w3.org/2000/svg">
<path d="M19.9997 3.33301H14.4997C11.333 3.33301 8.83301 5.83301 8.83301 8.83301C8.83301 11.833 11.333 14.333 14.333 14.333H19.9997V3.33301Z" stroke="white" stroke-width="1.5" stroke-miterlimit="10"/>
<path d="M20 14.5H14.5C11.5 14.5 9 17 9 20C9 23 11.5 25.5 14.5 25.5H20V14.5Z" stroke="white" stroke-width="1.5" stroke-miterlimit="10"/>
<path d="M20 25.5H14.5C11.5 25.5 9 28 9 31C9 34 11.5 36.5 14.5 36.5C17.5 36.5 20 34 20 31V25.5Z" stroke="white" stroke-width="1.5" stroke-miterlimit="10"/>
<path d="M20 3.33301H25.5C28.5 3.33301 31 5.83301 31 8.83301C31 11.833 28.5 14.333 25.5 14.333H20V3.33301Z" stroke="white" stroke-width="1.5" stroke-miterlimit="10"/>
<path d="M25.5 14.5C28.5 14.5 31 17 31 20C31 23 28.5 25.5 25.5 25.5C22.5 25.5 20 23 20 20C20 17 22.5 14.5 25.5 14.5Z" stroke="white" stroke-width="1.5" stroke-miterlimit="10"/>
</svg>
