<svg width="41" height="40" viewBox="0 0 41 40" fill="none" xmlns="http://www.w3.org/2000/svg">
<path d="M9.53957 20.9841C8.88148 20.9841 8.26339 21.3401 7.92661 21.912L6.9556 23.5572L6.90399 23.4523V21.428L9.00148 20.5749C9.68667 20.2969 10.1299 19.6326 10.1299 18.8824C10.1299 18.2962 9.8499 17.7434 9.38279 17.4011C8.91438 17.0595 8.3092 16.9677 7.76337 17.1546L7.53498 17.2326L7.79563 16.7028C8.05629 16.1723 8.19436 15.5788 8.19436 14.9867C8.19436 13.9546 7.36852 13.1152 6.353 13.1152C5.65104 13.1152 5.0207 13.5113 4.70585 14.15L3.10127 17.4123L1.75542 24.1342L1.74252 32.7874L2.24899 35.4103H0.452148V40.0005H10.1299V35.4103H8.19436V31.0188L9.37634 29.2169L11.1338 24.5034C11.3241 23.9874 11.4203 23.4464 11.4203 22.8956C11.4203 21.8418 10.5764 20.9841 9.53957 20.9841ZM8.17565 18.3972C8.33049 18.3447 8.4963 18.3697 8.62986 18.4667C8.76341 18.5638 8.83954 18.7152 8.83954 18.8824C8.83954 19.0929 8.71567 19.2785 8.5234 19.3572L6.90399 20.0156V18.832L8.17565 18.3972ZM8.83954 36.7218V38.689H1.74252V36.7218H8.83954ZM9.92539 24.0424L8.2621 28.552L6.90399 30.6215V35.4103H3.56194L3.03288 32.7224V24.3277L4.29357 17.9205L5.86008 14.7375C5.95363 14.5454 6.14267 14.4267 6.353 14.4267C6.65624 14.4267 6.90399 14.6785 6.90399 14.9867C6.90399 15.3762 6.81302 15.767 6.6414 16.1172L5.61362 18.2064V23.7624L6.85237 26.2805L9.0331 22.5867C9.13891 22.407 9.33311 22.2956 9.53957 22.2956C9.86538 22.2956 10.1299 22.5644 10.1299 22.8956C10.1299 23.289 10.0615 23.6752 9.92539 24.0424Z" fill="white"/>
<path d="M38.6589 35.4103L39.1499 32.9159L39.1621 24.2628L37.8589 17.5769L36.1988 14.15C35.8846 13.5113 35.2536 13.1152 34.5517 13.1152C33.5361 13.1152 32.7103 13.9546 32.7103 14.9867C32.7103 15.5782 32.8484 16.1723 33.109 16.7034L33.369 17.232L33.1413 17.1539C32.5961 16.9664 31.9903 17.0588 31.5219 17.4005C31.0548 17.7434 30.7747 18.2962 30.7747 18.8824C30.7747 19.6333 31.218 20.2969 31.9025 20.5749L34.0007 21.428V23.4523L33.949 23.5572L32.978 21.9126C32.6413 21.3401 32.0232 20.9841 31.3651 20.9841C30.3283 20.9841 29.4844 21.8418 29.4844 22.8956C29.4844 23.4464 29.5805 23.9874 29.7708 24.5034L31.4606 29.0831L32.7103 31.0188V35.4103H30.7747V40.0005H40.4525V35.4103H38.6589ZM32.3806 19.3572C32.189 19.2785 32.0651 19.0929 32.0651 18.8824C32.0651 18.7152 32.1412 18.5644 32.2748 18.4667C32.4083 18.369 32.5729 18.3441 32.729 18.3972L34.0007 18.832V20.0156L32.3806 19.3572ZM32.6432 28.552L30.9799 24.0424C30.8431 23.6752 30.7747 23.289 30.7747 22.8956C30.7747 22.5644 31.0393 22.2956 31.3651 22.2956C31.5715 22.2956 31.7657 22.407 31.8716 22.5867L34.0523 26.2798L35.291 23.7618V18.2057L34.2633 16.1172C34.0916 15.7677 34.0007 15.3762 34.0007 14.9867C34.0007 14.6785 34.2484 14.4267 34.5517 14.4267C34.7613 14.4267 34.9504 14.5454 35.0446 14.7369L36.6111 17.9198L37.8718 24.3277V32.7231L37.3427 35.4103H34.0007V30.6215L32.6432 28.552ZM39.1621 38.689H32.0651V36.7218H39.1621V38.689Z" fill="white"/>
<path d="M28.6067 11.8033H30.1299V7.86885H28.6067C28.4008 6.97967 28.0595 6.14098 27.5879 5.36655L28.6641 4.27213L25.9272 1.49049L24.8497 2.58361C24.0871 2.10426 23.2626 1.75738 22.3877 1.5482V0H18.5166V1.5482C17.6418 1.75738 16.8166 2.10426 16.0546 2.58361L14.9778 1.48984L12.2409 4.27147L13.3171 5.3659C12.8455 6.14098 12.5042 6.97901 12.2983 7.86819H10.7744V11.8026H12.2977C12.5035 12.6918 12.8448 13.5305 13.3164 14.3049L12.2403 15.3993L14.9771 18.181L15.9656 17.1764C15.9578 17.2426 15.9456 17.3075 15.9456 17.3757C15.9456 17.9593 16.2488 18.4682 16.7011 18.7593C16.6327 18.9416 16.5907 19.137 16.5907 19.3429C16.5907 20.2472 17.314 20.9823 18.2037 20.9823H22.72C23.6097 20.9823 24.333 20.2472 24.333 19.3429C24.333 19.1364 24.291 18.941 24.2226 18.7593C24.6749 18.4688 24.9781 17.9593 24.9781 17.3757C24.9781 17.3154 24.9672 17.2577 24.9607 17.1993L25.9266 18.181L28.6634 15.3993L27.5873 14.3049C28.0595 13.5311 28.4002 12.6925 28.6067 11.8033ZM22.7206 19.6721H18.2044C18.0269 19.6721 17.8818 19.5246 17.8818 19.3443C17.8818 19.1639 18.0269 19.0164 18.2044 19.0164H22.7206C22.8981 19.0164 23.0432 19.1639 23.0432 19.3443C23.0432 19.5246 22.8981 19.6721 22.7206 19.6721ZM23.3658 17.7049H22.7206H18.2044H17.5592C17.3817 17.7049 17.2366 17.5574 17.2366 17.377C17.2366 17.1967 17.3817 17.0492 17.5592 17.0492H23.3658C23.5432 17.0492 23.6884 17.1967 23.6884 17.377C23.6884 17.5574 23.5432 17.7049 23.3658 17.7049ZM21.1077 11.6826C21.8567 11.4111 22.398 10.6898 22.398 9.83606C22.398 8.75147 21.5296 7.86885 20.4625 7.86885C19.3954 7.86885 18.5269 8.75147 18.5269 9.83606C18.5269 10.6898 19.0683 11.4111 19.8173 11.6826V15.7377H18.5269V13.9967L18.205 13.8072C16.812 12.9869 15.9462 11.4656 15.9462 9.83606C15.9462 7.30557 17.9727 5.2459 20.4625 5.2459C22.9523 5.2459 24.9788 7.30557 24.9788 9.83606C24.9788 11.4649 24.1129 12.9869 22.72 13.8072L22.398 13.9967V15.7377H21.1077V11.6826ZM20.4625 10.4918C20.1064 10.4918 19.8173 10.198 19.8173 9.83606C19.8173 9.47409 20.1064 9.18032 20.4625 9.18032C20.8186 9.18032 21.1077 9.47409 21.1077 9.83606C21.1077 10.198 20.8186 10.4918 20.4625 10.4918ZM27.4421 11.0387C27.2634 12.1207 26.8563 13.1206 26.233 14.0098L25.9169 14.461L26.8395 15.4L25.9272 16.3272L25.0033 15.3882L24.5588 15.7102C24.4407 15.7954 24.3117 15.8806 24.1736 15.9652C24.0246 15.8767 23.8633 15.8059 23.6884 15.7698V14.737C25.2891 13.6466 26.2692 11.802 26.2692 9.83475C26.2692 6.58033 23.6645 3.93311 20.4625 3.93311C17.2604 3.93311 14.6558 6.58033 14.6558 9.83475C14.6558 11.8013 15.6359 13.6459 17.2366 14.7364V15.7698C17.0579 15.8066 16.8933 15.8793 16.7411 15.9711C16.6004 15.8846 16.4675 15.798 16.3462 15.7102L15.9017 15.3882L14.9778 16.3272L14.0655 15.4L14.9881 14.461L14.672 14.0098C14.0487 13.1206 13.6416 12.1207 13.4629 11.0387L13.3713 10.4918H12.0648V9.18032H13.3713L13.4623 8.63344C13.641 7.55147 14.0481 6.55147 14.6713 5.66229L14.9875 5.21114L14.0649 4.27213L14.9771 3.34492L15.901 4.28262L16.3449 3.96131C17.2198 3.32787 18.2037 2.9141 19.2683 2.73246L19.807 2.63934V1.31147H21.0974V2.63934L21.6354 2.7318C22.7 2.91344 23.6839 3.32721 24.5588 3.96065L25.0027 4.28197L25.9266 3.34426L26.8388 4.27147L25.9162 5.21049L26.2324 5.66164C26.8556 6.55082 27.2627 7.55082 27.4415 8.63278L27.5331 9.18032H28.8396V10.4918H27.5331L27.4421 11.0387Z" fill="white"/>
<path d="M21.098 22.2949H19.8076V23.6064H21.098V22.2949Z" fill="white"/>
<path d="M21.098 24.918H19.8076V26.2294H21.098V24.918Z" fill="white"/>
<path d="M21.098 27.541H19.8076V28.8525H21.098V27.541Z" fill="white"/>
<path d="M21.098 30.1641H19.8076V31.4755H21.098V30.1641Z" fill="white"/>
</svg>
