<svg xmlns="http://www.w3.org/2000/svg" width="30" height="21" viewBox="0 0 30 21" fill="none">
  <path d="M27.954 15.2352C28.2009 15.3793 28.378 15.2092 28.482 15.0407C28.6948 14.6982 28.9059 14.3549 29.1171 14.0116L29.133 13.9864C29.3752 13.5927 29.6173 13.1982 29.8619 12.8053C29.869 12.7934 29.8754 12.7801 29.8809 12.7675C29.9063 12.7131 29.9397 12.6423 30 12.5816V12.3635C29.9111 12.2454 29.7872 12.1438 29.6014 12.036C29.0219 11.6997 28.4431 11.3619 27.8643 11.0241C27.1593 10.6123 26.4304 10.1871 25.7127 9.77217C25.3943 9.58871 25.0958 9.39186 24.933 9.00131C24.9124 8.95091 24.856 8.89264 24.7973 8.83044C24.7385 8.76902 24.6782 8.70603 24.6258 8.62729L24.5813 8.56036C24.3741 8.25012 24.1391 7.89894 24.1605 7.45721C24.201 6.61311 23.8755 6.01547 23.1657 5.63121C22.8426 5.45641 22.8561 5.23594 22.9188 5.02413C23.1887 4.1131 22.7235 3.17372 21.8367 2.83908C21.7755 2.81624 21.6866 2.80522 21.6009 2.79498C21.4317 2.77451 21.2404 2.75089 21.1102 2.61782C20.9657 2.47136 20.9562 2.2627 20.9474 2.07844C20.9435 1.99577 20.9395 1.91073 20.9236 1.8501C20.7807 1.30679 20.4115 0.865841 19.909 0.640644C19.3993 0.411509 18.8093 0.428832 18.2909 0.687888C17.4835 1.09025 16.6863 1.52254 15.9448 1.92962C15.6812 2.07451 15.4581 2.07057 15.2009 1.91703C14.3736 1.42332 13.3438 0.809148 12.3419 0.251666C11.6837 -0.114477 11.0049 -0.0806189 10.3784 0.350091C9.75838 0.776865 9.50431 1.37057 9.6242 2.11388C9.68137 2.46742 9.42413 2.56034 9.31377 2.60049L9.29789 2.60601C8.43805 2.92097 7.97438 3.67451 8.08871 4.57373C8.13793 4.96113 7.87038 5.06035 7.74176 5.10759C6.97719 5.39027 6.51749 6.02413 6.54052 6.76114C6.55799 7.31941 6.2412 7.55878 5.96332 7.70524C5.39247 8.00603 5.07093 8.47847 5.0082 9.10918C4.98042 9.38477 4.87323 9.54776 4.63823 9.67296C3.80776 10.1155 2.96459 10.5698 2.15 11.0092C1.57916 11.3171 1.0099 11.6242 0.439845 11.9297C0.280263 12.0147 0.115916 12.11 0 12.2501V12.4761C0.0444609 12.5289 0.0682793 12.584 0.0849521 12.6226C0.0913037 12.6383 0.0952734 12.647 0.100037 12.6557C0.567671 13.4753 1.03372 14.2966 1.49897 15.1171L2.66448 17.1698C3.29487 18.2809 3.92526 19.3919 4.55645 20.5021C4.78828 20.9092 4.99868 20.7966 5.08919 20.7486C6.10385 20.2069 7.16932 19.625 8.25623 19.0195C8.4698 18.9006 8.51506 18.7305 8.39359 18.5013C8.26576 18.2596 8.11094 17.9746 7.93548 17.6974C7.86879 17.5919 7.80607 17.4643 7.84656 17.321C7.89181 17.158 8.04743 17.0785 8.09903 17.0525C8.44599 16.8761 8.79373 16.6816 9.12957 16.4935L9.26057 16.4202C9.36855 16.3596 9.53687 16.2911 9.75203 16.3903C11.5003 17.195 13.2533 17.1651 15.1127 16.3005C15.2874 16.2194 15.4573 16.2108 15.6312 16.2746C17.1246 16.8187 18.6252 16.7864 20.09 16.1785C20.2766 16.1013 20.4417 16.1131 20.61 16.2155C20.9808 16.4423 21.3762 16.6832 21.7731 16.9061C21.8176 16.9313 21.9534 17.0076 21.9907 17.1572C22.0232 17.2887 21.9653 17.4021 21.9105 17.4856C21.7033 17.8045 21.5381 18.0722 21.3921 18.3281C21.2055 18.6557 21.423 18.7872 21.4945 18.8305C22.494 19.4344 23.5182 20.0415 24.6258 20.6848C24.7909 20.7809 24.9608 20.7407 25.0696 20.5809C25.2991 20.2423 25.492 19.9281 25.6595 19.6202C25.7484 19.4565 25.6913 19.2659 25.5237 19.1659C25.365 19.0714 25.1641 19.1171 25.0474 19.2746C24.9886 19.3541 24.9378 19.4439 24.8957 19.5218C24.8529 19.6013 24.7798 19.7116 24.6409 19.7494C24.4868 19.7911 24.3551 19.7116 24.3114 19.6848C23.7588 19.3494 23.1768 19.0045 22.5314 18.6305C22.4551 18.5864 22.3495 18.5124 22.3162 18.3809C22.2829 18.2494 22.3416 18.1328 22.3885 18.0572C23.7397 15.8746 25.099 13.6683 26.4296 11.5013C26.5773 11.2604 26.7782 11.2139 27.0259 11.3619C27.696 11.7619 28.247 12.0824 28.7614 12.3706C28.8543 12.4226 28.9647 12.4997 28.9996 12.6375C29.0346 12.7753 28.9734 12.8958 28.9163 12.9864C28.5622 13.5431 28.2168 14.1123 27.8833 14.6627C27.7976 14.8045 27.7674 14.9344 27.7952 15.0407C27.8159 15.1202 27.8698 15.1864 27.9556 15.2368L27.954 15.2352ZM10.5317 1.15718C10.8191 0.780802 11.3359 0.613872 11.7337 0.768991C12.2704 0.97844 12.7984 1.28395 13.3454 1.70285C13.6884 1.96506 13.7972 2.45719 13.609 2.89892C13.4256 3.32963 13.0064 3.569 12.4268 3.57294H12.376L12.2442 3.51624C11.6885 3.2753 10.9969 2.9753 10.4872 2.38553C10.203 2.05718 10.2212 1.56348 10.5317 1.15639V1.15718ZM8.91997 3.76506C9.07558 3.49735 9.32409 3.31231 9.62102 3.24302C9.91399 3.1753 10.2308 3.22648 10.5134 3.3879C11.097 3.72176 11.7869 4.12018 12.4864 4.54696C12.931 4.81782 13.1144 5.29263 12.9651 5.78633C12.827 6.24381 12.3808 6.5635 11.8806 6.5635C11.8703 6.5635 11.8552 6.56429 11.8409 6.56429C11.5916 6.56429 11.386 6.46114 11.2534 6.38319L10.9215 6.18948C10.4174 5.89578 9.89652 5.59184 9.38681 5.28712C8.79612 4.93436 8.60478 4.30837 8.92076 3.76428L8.91997 3.76506ZM7.28047 6.49815C7.4083 6.04303 7.86402 5.70602 8.36421 5.69578H8.36738H8.37612C8.60081 5.70759 8.81279 5.77216 9.01048 5.88948C9.2709 6.04303 9.5321 6.19578 9.79252 6.34854L9.81792 6.3635C10.1808 6.57531 10.5563 6.795 10.9239 7.0139C11.5201 7.36902 11.7083 7.98004 11.3923 8.5328C11.247 8.78713 11.0104 8.96981 10.7262 9.04619C10.6285 9.07217 10.5269 9.08556 10.4253 9.08556C10.2117 9.08556 9.99497 9.0265 9.79966 8.91469C9.0208 8.46823 8.3785 8.09107 7.77987 7.72728C7.3424 7.46193 7.1463 6.97925 7.28206 6.49815H7.28047ZM5.83788 8.78083C6.11655 8.25957 6.74456 8.04146 7.26777 8.28319C7.70285 8.48477 8.15143 8.74697 8.67941 9.10682C8.92315 9.27296 9.07161 9.54855 9.0994 9.8832V9.8958C9.10734 10.3029 8.90727 10.669 8.56587 10.8777C8.38723 10.9871 8.1824 11.0446 7.97438 11.0446C7.7886 11.0446 7.60123 10.9982 7.43291 10.91C7.05976 10.7147 6.66199 10.4816 6.21659 10.1966C5.71879 9.87769 5.56317 9.29579 5.83867 8.78083H5.83788ZM7.49881 18.4502C7.48849 18.6399 7.34002 18.7179 7.29159 18.7431L7.28127 18.7486C7.08437 18.8557 6.88747 18.9628 6.68978 19.0698C6.27058 19.2966 5.83788 19.5313 5.4155 19.7691C5.33293 19.8155 5.2575 19.8384 5.18367 19.8384C5.14476 19.8384 5.10665 19.8321 5.07013 19.8187C4.91928 19.7651 4.86768 19.6297 4.83909 19.5565L4.83592 19.547C4.83274 19.5391 4.83036 19.5321 4.82719 19.5258C4.05071 18.1643 3.2774 16.8013 2.5041 15.4383L1.70142 14.0226C1.49659 13.6596 1.28381 13.2848 1.07024 12.9194C1.02498 12.8423 0.949558 12.7131 0.994813 12.5612C1.04086 12.4068 1.18854 12.3312 1.23697 12.3068C1.7959 12.0218 2.3731 11.7123 3.0027 11.3612C3.09559 11.3092 3.22024 11.2549 3.35918 11.2974C3.48939 11.3375 3.56481 11.4446 3.61483 11.5344C4.60091 13.2745 5.60763 15.0431 6.58101 16.7525L7.40195 18.1935C7.42021 18.2257 7.43688 18.2588 7.45355 18.2903L7.50278 18.3848L7.49881 18.4494V18.4502ZM8.86916 15.7108C8.82073 15.8627 8.68417 15.9423 8.57143 15.9942C8.31737 16.1116 8.05616 16.2541 7.79416 16.4194C7.71794 16.4675 7.61552 16.5226 7.49643 16.5226C7.46546 16.5226 7.43529 16.5187 7.40592 16.5116C7.2511 16.473 7.16297 16.3446 7.10263 16.2383C6.55878 15.2667 6.00302 14.2927 5.46631 13.3501L4.96613 12.4714C4.90261 12.3604 4.83989 12.2493 4.77717 12.1383C4.59615 11.8186 4.41036 11.4895 4.22141 11.1714C4.17456 11.0919 4.1166 10.9706 4.15868 10.836C4.20553 10.6864 4.34844 10.6202 4.39528 10.5989C4.53422 10.5344 4.67157 10.4596 4.80337 10.3879C4.86529 10.3541 4.92008 10.3241 4.97407 10.2958L5.01853 10.2722L5.06854 10.2682C5.28132 10.2517 5.38692 10.3997 5.42185 10.4486C5.42741 10.4564 5.42979 10.4604 5.43217 10.4627C5.55206 10.595 5.69338 10.7423 5.85614 10.8147C6.31107 11.0194 6.55322 11.3698 6.74694 11.7179C7.39322 12.8793 8.07918 14.084 8.7858 15.2998C8.8501 15.4108 8.91838 15.558 8.86916 15.7116V15.7108ZM14.9246 15.5982C14.0592 16.0391 13.1803 16.2628 12.3125 16.2628C11.6043 16.2628 10.8921 16.1139 10.195 15.8194C9.91399 15.7005 9.7155 15.5234 9.56942 15.2604C9.14625 14.4982 8.72307 13.7549 8.27449 12.9682L8.24829 12.9226C8.09744 12.6588 7.94659 12.3927 7.79416 12.1242L7.6179 11.8147L7.97438 11.7738C8.92553 11.6651 9.49161 11.247 9.70598 10.4966C9.85365 9.97926 10.0609 9.80918 10.5936 9.76824C11.1057 9.72887 11.5511 9.50682 11.8457 9.14304C12.1624 8.75249 12.2934 8.22729 12.2148 7.66351C12.2013 7.56823 12.1609 7.27925 12.5102 7.16665C13.0151 7.00445 13.4312 6.59893 13.6209 6.08161C13.8138 5.55877 13.7535 5.00523 13.4502 4.52255C13.374 4.40129 13.3542 4.28711 13.3915 4.18318C13.4447 4.03357 13.5828 3.98554 13.6495 3.96192L13.6582 3.95877C13.663 3.95719 13.6678 3.95562 13.6717 3.95404C14.7499 3.37215 15.8471 2.78632 16.9079 2.22018L17.5374 1.88396C17.8884 1.69577 18.2512 1.50128 18.614 1.31624C19.0324 1.10285 19.4699 1.14616 19.8454 1.43671C20.186 1.70049 20.3218 2.07136 20.2369 2.50837C20.1503 2.95561 19.8248 3.17687 19.5882 3.30522C19.123 3.5564 18.6585 3.80837 18.1932 4.06034C17.6248 4.369 17.0571 4.67688 16.4879 4.98318C16.2878 5.09105 16.2132 5.16665 16.1917 5.28318C16.1623 5.44224 16.2068 5.55641 16.3307 5.6446C16.4593 5.73515 16.5887 5.73673 16.7499 5.64932C17.331 5.33436 17.913 5.02019 18.4949 4.70601L18.965 4.45168C19.1182 4.369 19.2706 4.28554 19.4231 4.20286L19.4501 4.1879C19.8375 3.97609 20.2377 3.75798 20.6394 3.55247C21.057 3.33908 21.4945 3.3816 21.8716 3.67215C22.213 3.93593 22.3456 4.30837 22.2543 4.74853C22.1614 5.19657 21.8351 5.4257 21.5286 5.59027C20.51 6.13752 19.4763 6.69736 18.4767 7.23988L17.9479 7.5265C17.8717 7.56744 17.8002 7.60602 17.7471 7.65012C17.6168 7.75799 17.5891 7.94461 17.6812 8.09343C17.7701 8.23752 17.9352 8.29579 18.0932 8.23989C18.1766 8.20996 18.2599 8.16587 18.3536 8.11548L18.7919 7.87847C19.7327 7.36902 20.7053 6.84303 21.6596 6.32098C22.0169 6.1257 22.3495 6.08318 22.6767 6.19027C23.1252 6.33752 23.3968 6.66901 23.4412 7.12335C23.4881 7.59264 23.2745 7.9761 22.8402 8.20288C22.3924 8.43674 21.9351 8.66902 21.4929 8.89422L21.4667 8.9076C21.2738 9.00603 21.08 9.10367 20.8871 9.20288L20.4687 9.41627C20.0805 9.61391 19.693 9.81154 19.3064 10.0123C19.1587 10.0895 19.0634 10.184 19.0324 10.2856C19.0086 10.3619 19.0221 10.447 19.0706 10.5367C19.2143 10.7997 19.4818 10.7155 19.6279 10.6415C20.0836 10.4115 20.5386 10.18 20.9935 9.94934L21.0046 9.94383C21.5921 9.64462 22.1995 9.33595 22.7997 9.03595C23.1221 8.87453 23.4698 8.84382 23.7787 8.95091C24.0597 9.04776 24.286 9.25249 24.4146 9.52729C24.6774 10.0879 24.4495 10.6761 23.8477 10.9895C23.0022 11.4304 22.1169 11.8871 21.3357 12.2903L20.4274 12.7596C19.8883 13.0383 19.3492 13.3171 18.8109 13.5966L18.78 13.6123C17.5184 14.2659 16.2132 14.9423 14.9254 15.599L14.9246 15.5982ZM20.7609 14.3336C20.5878 14.6131 20.4123 14.8966 20.2456 15.1777C20.1281 15.3761 19.9606 15.4627 19.8454 15.5116C19.1515 15.8013 18.4695 15.9423 17.7598 15.9423C17.4723 15.9423 17.177 15.9187 16.8817 15.8706L16.1719 15.7572L20.8553 13.3391L20.9784 13.4769C21.0673 13.5769 21.1428 13.7415 20.9935 13.9572L20.9911 13.9604C20.9879 13.9651 20.984 13.9706 20.9808 13.9753C20.907 14.095 20.8339 14.2139 20.7601 14.3328L20.7609 14.3336ZM25.9025 10.9793L25.8437 11.0785C25.8207 11.1171 25.7961 11.1596 25.7707 11.2013L25.0696 12.3399C24.3154 13.5659 23.5349 14.8336 22.7624 16.1013C22.7132 16.1824 22.6219 16.332 22.4496 16.369C22.425 16.3746 22.3988 16.3769 22.3734 16.3769C22.2511 16.3769 22.1495 16.3179 22.0748 16.2667C21.8065 16.0832 21.5223 15.9234 21.2047 15.7478C21.1626 15.7242 21.034 15.6533 20.9959 15.51C20.9625 15.3824 21.0149 15.2753 21.0642 15.1958C21.581 14.3643 22.1272 13.4777 22.7338 12.4856C22.8299 12.3289 22.9585 12.2493 23.072 12.1927C23.2316 12.1123 23.3904 12.0297 23.5492 11.947L23.5635 11.9399C23.7469 11.8446 23.9374 11.7454 24.1264 11.6517C24.5718 11.4297 24.8814 11.1265 25.072 10.7249C25.0728 10.7226 25.0736 10.7202 25.0744 10.7171C25.0934 10.6572 25.1292 10.547 25.2474 10.4879C25.326 10.4486 25.4166 10.4446 25.515 10.4769C25.619 10.5115 25.9167 10.6871 25.9056 10.9218L25.9032 10.9808L25.9025 10.9793Z" fill="#50B0FF"/>
</svg>