<svg width="49" height="48" viewBox="0 0 49 48" fill="none" xmlns="http://www.w3.org/2000/svg">
<g clip-path="url(#clip0_1902_381)">
<path d="M13.3877 29.0322H12.0973V28.4896C14.3728 27.4915 15.9683 25.2199 15.9683 22.5806V16.1289H3.06503V22.5806C3.06503 25.2206 4.66053 27.4922 6.93602 28.4896V29.0322H5.64569C2.79987 29.0322 0.484375 31.3477 0.484375 34.1935V40H1.7747V34.1935C1.7747 32.0587 3.51084 30.3225 5.64569 30.3225L4.12182 32.3542L9.51668 36.9787L14.9116 32.3548L13.3877 30.3225C15.5225 30.3225 17.2587 32.0587 17.2587 34.1935V40H18.549V34.1935C18.549 31.3477 16.2335 29.0322 13.3877 29.0322ZM4.35536 22.5806V17.4192H14.678V22.5806C14.678 25.4264 12.3625 27.7419 9.51668 27.7419C6.67086 27.7419 4.35536 25.4264 4.35536 22.5806ZM5.87924 32.1619L7.17538 30.4335L8.74442 34.618L5.87924 32.1619ZM8.22635 29.5599V28.9019C8.64313 28.987 9.07475 29.0322 9.51668 29.0322C9.95862 29.0322 10.3902 28.987 10.807 28.9019V29.5599L9.51668 33.0013L8.22635 29.5599ZM10.2889 34.6174L11.858 30.4329L13.1541 32.1612L10.2889 34.6174Z" fill="#50B0FF"/>
<path d="M5.90481 11.7324L4.95513 12.6821L5.86739 13.5944L6.81708 12.6447C7.4074 13.0873 8.10805 13.3873 8.87128 13.4976V14.8395H10.1616V13.4976C10.9248 13.3879 11.6255 13.0873 12.2158 12.6447L13.1655 13.5944L14.0778 12.6821L13.1281 11.7324C13.5707 11.1421 13.8707 10.4414 13.981 9.67821H15.3229V8.38788H13.981C13.8713 7.62465 13.5707 6.924 13.1281 6.33368L14.0778 5.38399L13.1655 4.47173L12.2158 5.42141C11.6255 4.97883 10.9248 4.67818 10.1616 4.5685V3.22656H8.87128V4.5685C8.10805 4.67818 7.4074 4.97883 6.81708 5.42141L5.86675 4.47109L4.95448 5.38335L5.90417 6.33303C5.46223 6.924 5.16158 7.62465 5.0519 8.38788H3.70996V9.67821H5.0519C5.16158 10.4414 5.46223 11.1421 5.90481 11.7324ZM9.51645 5.80722C11.2952 5.80722 12.7423 7.25433 12.7423 9.03304C12.7423 10.8118 11.2952 12.2589 9.51645 12.2589C7.73773 12.2589 6.29062 10.8118 6.29062 9.03304C6.29062 7.25433 7.73773 5.80722 9.51645 5.80722Z" fill="#50B0FF"/>
<path d="M9.51655 10.9667C10.5837 10.9667 11.452 10.0983 11.452 9.0312C11.452 7.96409 10.5837 7.0957 9.51655 7.0957C8.44945 7.0957 7.58105 7.96409 7.58105 9.0312C7.58105 10.0983 8.44945 10.9667 9.51655 10.9667ZM9.51655 8.38603C9.87204 8.38603 10.1617 8.67571 10.1617 9.0312C10.1617 9.38668 9.87204 9.67636 9.51655 9.67636C9.16106 9.67636 8.87138 9.38668 8.87138 9.0312C8.87138 8.67571 9.16106 8.38603 9.51655 8.38603Z" fill="#50B0FF"/>
<path d="M35.3232 29.0322H34.0329V28.4896C36.3084 27.4915 37.9039 25.2199 37.9039 22.5806V16.1289H25.0006V22.5806C25.0006 25.2206 26.5961 27.4922 28.8716 28.4896V29.0322H27.5812C24.7354 29.0322 22.4199 31.3477 22.4199 34.1935V40H23.7103V34.1935C23.7103 32.0587 25.4464 30.3225 27.5812 30.3225L26.0574 32.3542L31.4522 36.9787L36.8471 32.3548L35.3232 30.3225C37.4581 30.3225 39.1942 32.0587 39.1942 34.1935V40H40.4845V34.1935C40.4845 31.3477 38.169 29.0322 35.3232 29.0322ZM26.2909 22.5806V17.4192H36.6136V22.5806C36.6136 25.4264 34.2981 27.7419 31.4522 27.7419C28.6064 27.7419 26.2909 25.4264 26.2909 22.5806ZM27.8148 32.1619L29.1109 30.4335L30.68 34.618L27.8148 32.1619ZM30.1619 29.5599V28.9019C30.5787 28.987 31.0103 29.0322 31.4522 29.0322C31.8942 29.0322 32.3258 28.987 32.7426 28.9019V29.5599L31.4522 33.0013L30.1619 29.5599ZM32.2245 34.6174L33.7935 30.4329L35.0897 32.1612L32.2245 34.6174Z" fill="#50B0FF"/>
<path d="M27.802 4.47173L26.8897 5.38399L27.8394 6.33368C27.3968 6.924 27.0962 7.62465 26.9865 8.38788H25.6445V9.67821H26.9865C27.0962 10.4414 27.3968 11.1421 27.8394 11.7324L26.8897 12.6821L27.802 13.5944L28.7516 12.6447C29.342 13.0873 30.0426 13.3873 30.8059 13.4976V14.8395H32.0962V13.4976C32.8594 13.3879 33.5601 13.0873 34.1504 12.6447L35.1001 13.5944L36.0123 12.6821L35.0626 11.7324C35.5052 11.1421 35.8052 10.4414 35.9156 9.67821H37.2575V8.38788H35.9156C35.8059 7.62465 35.5052 6.924 35.0626 6.33368L36.0123 5.38399L35.1001 4.47173L34.1504 5.42141C33.5601 4.97883 32.8594 4.67818 32.0962 4.5685V3.22656H30.8059V4.5685C30.0426 4.67818 29.342 4.97883 28.7516 5.42141L27.802 4.47173ZM31.451 5.80722C33.2297 5.80722 34.6768 7.25433 34.6768 9.03304C34.6768 10.8118 33.2297 12.2589 31.451 12.2589C29.6723 12.2589 28.2252 10.8118 28.2252 9.03304C28.2252 7.25433 29.6723 5.80722 31.451 5.80722Z" fill="#50B0FF"/>
<path d="M31.4521 10.9667C32.5192 10.9667 33.3876 10.0983 33.3876 9.0312C33.3876 7.96409 32.5192 7.0957 31.4521 7.0957C30.385 7.0957 29.5166 7.96409 29.5166 9.0312C29.5166 10.0983 30.385 10.9667 31.4521 10.9667ZM31.4521 8.38603C31.8076 8.38603 32.0973 8.67571 32.0973 9.0312C32.0973 9.38668 31.8076 9.67636 31.4521 9.67636C31.0966 9.67636 30.8069 9.38668 30.8069 9.0312C30.8069 8.67571 31.0966 8.38603 31.4521 8.38603Z" fill="#50B0FF"/>
<path d="M29.2716 2.71937C26.9883 0.914844 24.0322 0 20.4844 0C16.9367 0 13.9805 0.914844 11.6973 2.71937L12.4973 3.73163C14.547 2.11162 17.2347 1.29033 20.4844 1.29033C23.7341 1.29033 26.4219 2.11162 28.4716 3.73228L29.2716 2.71937Z" fill="#50B0FF"/>
</g>
<defs>
<clipPath id="clip0_1902_381">
<rect width="48" height="48" fill="#50B0FF" transform="translate(0.484375)"/>
</clipPath>
</defs>
</svg>
