<svg width="24" height="25" viewBox="0 0 24 25" fill="none" xmlns="http://www.w3.org/2000/svg">
<g clip-path="url(#clip0_1724_19155)">
<path d="M12 2.50371C15.2063 2.50371 15.5859 2.51777 16.8469 2.57402C18.0188 2.62559 18.6516 2.82246 19.0734 2.98652C19.6313 3.20215 20.0344 3.46465 20.4516 3.88184C20.8734 4.30371 21.1313 4.70215 21.3469 5.25996C21.5109 5.68184 21.7078 6.31934 21.7594 7.48652C21.8156 8.75215 21.8297 9.13184 21.8297 12.3334C21.8297 15.5396 21.8156 15.9193 21.7594 17.1803C21.7078 18.3521 21.5109 18.985 21.3469 19.4068C21.1313 19.9646 20.8687 20.3678 20.4516 20.785C20.0297 21.2068 19.6313 21.4646 19.0734 21.6803C18.6516 21.8443 18.0141 22.0412 16.8469 22.0928C15.5813 22.149 15.2016 22.1631 12 22.1631C8.79375 22.1631 8.41406 22.149 7.15313 22.0928C5.98125 22.0412 5.34844 21.8443 4.92656 21.6803C4.36875 21.4646 3.96563 21.2021 3.54844 20.785C3.12656 20.3631 2.86875 19.9646 2.65313 19.4068C2.48906 18.985 2.29219 18.3475 2.24063 17.1803C2.18438 15.9146 2.17031 15.535 2.17031 12.3334C2.17031 9.12715 2.18438 8.74746 2.24063 7.48652C2.29219 6.31465 2.48906 5.68184 2.65313 5.25996C2.86875 4.70215 3.13125 4.29902 3.54844 3.88184C3.97031 3.45996 4.36875 3.20215 4.92656 2.98652C5.34844 2.82246 5.98594 2.62559 7.15313 2.57402C8.41406 2.51777 8.79375 2.50371 12 2.50371ZM12 0.342773C8.74219 0.342773 8.33438 0.356836 7.05469 0.413086C5.77969 0.469336 4.90313 0.675586 4.14375 0.970898C3.35156 1.28027 2.68125 1.68809 2.01563 2.3584C1.34531 3.02402 0.9375 3.69434 0.628125 4.48184C0.332812 5.2459 0.126563 6.11777 0.0703125 7.39277C0.0140625 8.67715 0 9.08496 0 12.3428C0 15.6006 0.0140625 16.0084 0.0703125 17.2881C0.126563 18.5631 0.332812 19.4396 0.628125 20.199C0.9375 20.9912 1.34531 21.6615 2.01563 22.3271C2.68125 22.9928 3.35156 23.4053 4.13906 23.71C4.90313 24.0053 5.775 24.2115 7.05 24.2678C8.32969 24.324 8.7375 24.3381 11.9953 24.3381C15.2531 24.3381 15.6609 24.324 16.9406 24.2678C18.2156 24.2115 19.0922 24.0053 19.8516 23.71C20.6391 23.4053 21.3094 22.9928 21.975 22.3271C22.6406 21.6615 23.0531 20.9912 23.3578 20.2037C23.6531 19.4396 23.8594 18.5678 23.9156 17.2928C23.9719 16.0131 23.9859 15.6053 23.9859 12.3475C23.9859 9.08965 23.9719 8.68184 23.9156 7.40215C23.8594 6.12715 23.6531 5.25059 23.3578 4.49121C23.0625 3.69434 22.6547 3.02402 21.9844 2.3584C21.3188 1.69277 20.6484 1.28027 19.8609 0.975586C19.0969 0.680273 18.225 0.474023 16.95 0.417773C15.6656 0.356836 15.2578 0.342773 12 0.342773Z" fill="white"/>
<path d="M12 6.17871C8.59688 6.17871 5.83594 8.93965 5.83594 12.3428C5.83594 15.7459 8.59688 18.5068 12 18.5068C15.4031 18.5068 18.1641 15.7459 18.1641 12.3428C18.1641 8.93965 15.4031 6.17871 12 6.17871ZM12 16.3412C9.79219 16.3412 8.00156 14.5506 8.00156 12.3428C8.00156 10.135 9.79219 8.34434 12 8.34434C14.2078 8.34434 15.9984 10.135 15.9984 12.3428C15.9984 14.5506 14.2078 16.3412 12 16.3412Z" fill="white"/>
<path d="M19.8469 5.93516C19.8469 6.73204 19.2 7.37422 18.4078 7.37422C17.6109 7.37422 16.9688 6.72735 16.9688 5.93516C16.9688 5.13828 17.6156 4.49609 18.4078 4.49609C19.2 4.49609 19.8469 5.14297 19.8469 5.93516Z" fill="white"/>
</g>
<defs>
<clipPath id="clip0_1724_19155">
<rect width="24" height="24" fill="white" transform="translate(0 0.342773)"/>
</clipPath>
</defs>
</svg>
