<svg xmlns="http://www.w3.org/2000/svg" width="24" height="28" viewBox="0 0 24 28" fill="none">
  <path d="M13.9203 25.6954C13.9203 26.0374 13.9251 26.3404 13.9195 26.6434C13.9083 27.2299 13.5114 27.636 12.9321 27.6425C12.312 27.6498 11.6918 27.6498 11.0717 27.6425C10.482 27.636 10.0875 27.2225 10.0803 26.6158C10.0771 26.3225 10.0803 26.0293 10.0803 25.6946C9.77785 25.6946 9.49219 25.6962 9.20653 25.6946C8.5552 25.6897 8.16152 25.2925 8.16072 24.6305C8.15832 23.1277 8.15592 21.625 8.16473 20.1222C8.16553 19.9143 8.10471 19.803 7.92228 19.6958C4.89447 17.9225 3.42138 14.5206 3.93428 11.3161C4.51119 7.71189 7.06771 5.04836 10.4916 4.38715C14.9893 3.5188 19.3654 6.64697 20.0519 11.2202C20.5712 14.6774 19.0397 17.9379 16.0559 19.7063C15.8799 19.8111 15.8375 19.9265 15.8383 20.1174C15.8447 21.5998 15.8423 23.0822 15.8415 24.5647C15.8415 25.3136 15.471 25.6914 14.7388 25.6938C14.4804 25.6938 14.2211 25.6938 13.9211 25.6938L13.9203 25.6954ZM14.8805 20.8094C14.8805 20.4821 14.9077 20.1848 14.8741 19.8948C14.8197 19.422 15.0117 19.1629 15.4246 18.9428C18.0883 17.5196 19.607 14.4077 19.1181 11.4355C18.4692 7.48932 15.1165 4.88184 11.1965 5.2758C7.66302 5.62997 4.81446 8.75814 4.80645 12.3639C4.79925 15.3589 6.13232 17.5862 8.71764 19.0281C9.0129 19.193 9.14012 19.3936 9.12252 19.7291C9.10411 20.0889 9.11852 20.4504 9.11852 20.8062H11.519C11.519 20.1531 11.5102 19.5154 11.5238 18.8786C11.5286 18.6666 11.4654 18.5196 11.3158 18.3758C10.9669 18.0411 10.6316 17.6918 10.2956 17.3442C10.0403 17.0802 10.0171 16.8113 10.2219 16.5944C10.4348 16.3694 10.7092 16.393 10.9829 16.6626C11.1189 16.7967 11.2573 16.9299 11.3854 17.0728C11.5782 17.2873 11.7622 17.5099 11.9695 17.7511C12.364 17.3409 12.6824 17.0038 13.0073 16.674C13.2809 16.3954 13.5498 16.3678 13.7666 16.5838C13.9851 16.8015 13.9611 17.0793 13.6922 17.3563C13.341 17.7178 12.9841 18.0736 12.6336 18.4351C12.5736 18.4976 12.4888 18.578 12.488 18.6511C12.4768 19.3676 12.4816 20.0849 12.4816 20.8094H14.8805ZM9.13132 22.7484H14.8653V21.8142H9.13132V22.7484ZM9.13372 24.7004H14.8565V23.7613H9.13372V24.7004ZM12.9353 26.6637V25.7157H11.0629V26.6637H12.9353Z" fill="#50B0FF"/>
  <path d="M3.82351 3.70117C4.00275 3.81571 4.14277 3.87663 4.24439 3.97654C4.66768 4.39082 5.08136 4.81484 5.49344 5.24048C5.74309 5.49879 5.7607 5.77822 5.55346 5.98942C5.34621 6.20062 5.06936 6.18356 4.81651 5.93094C4.38362 5.49798 3.95474 5.06096 3.52825 4.62151C3.37782 4.46636 3.2922 4.26653 3.41863 4.07321C3.51305 3.92862 3.67708 3.83195 3.82351 3.70198V3.70117Z" fill="#50B0FF"/>
  <path d="M18.7293 6.17481C18.6148 6.08059 18.4324 6.00261 18.3804 5.87101C18.3236 5.72724 18.3204 5.47217 18.41 5.37307C18.8797 4.85076 19.3758 4.35282 19.8839 3.86869C20.0647 3.69648 20.3 3.73547 20.4792 3.91256C20.6689 4.09938 20.7113 4.3447 20.5312 4.53884C20.0543 5.05384 19.5534 5.5469 19.0541 6.04078C18.9893 6.10496 18.8757 6.11714 18.7293 6.17563V6.17481Z" fill="#50B0FF"/>
  <path d="M3.80787 21.343C3.68465 21.2431 3.49421 21.1594 3.4374 21.0197C3.37979 20.88 3.39179 20.6249 3.48381 20.5217C3.9415 20.0124 4.4256 19.5259 4.92089 19.0539C5.11293 18.8711 5.35458 18.9053 5.54102 19.0978C5.72826 19.2911 5.75306 19.5356 5.57303 19.7289C5.10653 20.2301 4.61843 20.711 4.13114 21.1927C4.06472 21.2577 3.9543 21.2772 3.80787 21.343Z" fill="#50B0FF"/>
  <path d="M12.4795 1.81322C12.4795 2.12758 12.4859 2.44275 12.4779 2.75711C12.4691 3.06822 12.2714 3.27292 11.9994 3.27292C11.7281 3.27292 11.5265 3.06741 11.5233 2.7563C11.5161 2.12677 11.5153 1.49723 11.5233 0.868514C11.5273 0.556591 11.7273 0.353516 12.0002 0.353516C12.2722 0.353516 12.4691 0.557403 12.4779 0.869327C12.4867 1.18369 12.4795 1.49886 12.4795 1.81322Z" fill="#50B0FF"/>
  <path d="M1.44778 13.0221C1.13811 13.0221 0.827652 13.0278 0.51799 13.0205C0.209129 13.0132 0.00668803 12.8199 0.00108691 12.5445C-0.00451421 12.2569 0.203527 12.053 0.529193 12.0498C1.13891 12.0433 1.74944 12.0433 2.35916 12.0498C2.66882 12.053 2.87126 12.2496 2.87686 12.525C2.88246 12.8101 2.67282 13.0132 2.34876 13.0205C2.0487 13.027 1.74864 13.0221 1.44858 13.0221H1.44778Z" fill="#50B0FF"/>
  <path d="M22.5421 13.0221C22.242 13.0221 21.9419 13.0278 21.6419 13.0205C21.3322 13.0124 21.1298 12.8199 21.1242 12.5453C21.1178 12.2577 21.3266 12.053 21.6515 12.0498C22.2612 12.0433 22.8717 12.0433 23.4814 12.0498C23.7911 12.053 23.9935 12.2488 23.9991 12.5242C24.0055 12.8093 23.7951 13.0132 23.471 13.0205C23.1614 13.027 22.8509 13.0221 22.5412 13.0221H22.5421Z" fill="#50B0FF"/>
  <path d="M20.174 21.3505C20.0028 21.2474 19.8587 21.1921 19.7571 21.093C19.3322 20.6779 18.9169 20.2531 18.5049 19.825C18.2656 19.5773 18.2528 19.3092 18.4545 19.098C18.6569 18.886 18.9297 18.8884 19.1706 19.1272C19.6067 19.5594 20.05 19.9867 20.4541 20.4481C20.5621 20.5707 20.5997 20.8282 20.5573 20.9931C20.5213 21.1304 20.3196 21.223 20.174 21.3505Z" fill="#50B0FF"/>
</svg>