<svg width="23" height="23" viewBox="0 0 23 23" fill="none" xmlns="http://www.w3.org/2000/svg">
<path d="M20.8533 0.168049H1.94083C1.69707 0.15663 1.45343 0.193393 1.22389 0.276254C0.994345 0.359115 0.783403 0.48643 0.603118 0.650905C0.422847 0.815394 0.276774 1.01383 0.173287 1.23483C0.0697994 1.45584 0.0109083 1.69509 0 1.93888V20.8939C0.01428 21.4041 0.223351 21.8896 0.584276 22.2504C0.9452 22.6113 1.43061 22.8204 1.94083 22.8348H20.8533C21.3493 22.8127 21.8169 22.597 22.156 22.2342C22.495 21.8714 22.6783 21.3903 22.6667 20.8939V1.93888C22.6708 1.70159 22.6263 1.46598 22.5361 1.24649C22.4458 1.027 22.3117 0.828258 22.1418 0.662437C21.9721 0.49663 21.7702 0.367261 21.5486 0.282247C21.3271 0.197232 21.0905 0.158373 20.8533 0.168049ZM7.08333 19.0664H3.7825V8.96559H7.08333V19.0664ZM5.51083 7.43555C5.2805 7.44358 5.05098 7.40389 4.83673 7.31897C4.62246 7.23406 4.42806 7.10575 4.26577 6.94211C4.10346 6.77847 3.97674 6.58304 3.89358 6.36809C3.81041 6.15314 3.7726 5.92331 3.7825 5.69305C3.77231 5.46029 3.81089 5.22799 3.89576 5.01102C3.98064 4.79405 4.10992 4.59721 4.27532 4.43315C4.44073 4.26907 4.63859 4.14139 4.85623 4.05829C5.07389 3.97517 5.30651 3.93848 5.53917 3.95055C5.7695 3.94253 5.99902 3.98221 6.21327 4.06713C6.42755 4.15204 6.62194 4.28035 6.78423 4.44399C6.94654 4.60763 7.07326 4.80306 7.15642 5.01801C7.23959 5.23296 7.2774 5.46278 7.2675 5.69305C7.27769 5.92581 7.23911 6.15811 7.15424 6.37508C7.06937 6.59205 6.94008 6.78888 6.77468 6.95295C6.60927 7.11703 6.41141 7.24471 6.19377 7.32781C5.97611 7.41093 5.74349 7.44762 5.51083 7.43555ZM18.8983 19.0664H15.5833V13.5414C15.5833 12.2239 15.1158 11.3173 13.94 11.3173C13.5748 11.3204 13.2193 11.4364 12.9227 11.6495C12.6259 11.8625 12.4024 12.1622 12.2825 12.5073C12.1904 12.7659 12.1519 13.0406 12.1692 13.3148V19.0664H8.91083V8.96559H12.1692V10.3823C12.4589 9.85002 12.89 9.4083 13.415 9.1057C13.94 8.80324 14.5384 8.65177 15.1442 8.66805C17.2833 8.66805 18.8983 10.0848 18.8983 13.1023V19.0664Z" fill="white"/>
</svg>
