<svg width="41" height="40" viewBox="0 0 41 40" fill="none" xmlns="http://www.w3.org/2000/svg">
<path d="M17.6351 7.49968V29.9997C17.6351 31.7997 16.9017 33.4497 15.7351 34.6497L15.6684 34.7164C15.5184 34.8664 15.3518 35.0164 15.2018 35.133C14.7018 35.5664 14.1351 35.8997 13.5517 36.133C13.3684 36.2164 13.1851 36.283 13.0018 36.3497C12.3518 36.5664 11.6518 36.6664 10.9684 36.6664C10.5184 36.6664 10.0684 36.6164 9.63511 36.533C9.41844 36.483 9.20175 36.433 8.98508 36.3664C8.71842 36.283 8.46843 36.1997 8.21843 36.083C8.21843 36.0664 8.21842 36.0664 8.20175 36.083C7.73508 35.8497 7.2851 35.583 6.86844 35.2664L6.85175 35.2497C6.63509 35.083 6.43511 34.9164 6.25178 34.7164C6.06845 34.5164 5.88508 34.3164 5.70175 34.0997C5.38508 33.683 5.11843 33.233 4.8851 32.7664C4.90177 32.7497 4.90177 32.7497 4.8851 32.7497C4.8851 32.7497 4.88508 32.733 4.86842 32.7164C4.76842 32.483 4.68508 32.233 4.60175 31.983C4.53508 31.7664 4.48507 31.5497 4.43507 31.333C4.35174 30.8997 4.30176 30.4497 4.30176 29.9997V7.49968C4.30176 4.99968 5.96842 3.33301 8.46842 3.33301H13.4684C15.9684 3.33301 17.6351 4.99968 17.6351 7.49968Z" stroke="#FFB51F" stroke-width="1.5" stroke-linecap="round" stroke-linejoin="round"/>
<path d="M37.6354 27.4997V32.4997C37.6354 34.9997 35.9687 36.6663 33.4687 36.6663H10.9688C11.6521 36.6663 12.3521 36.5663 13.0021 36.3497C13.1854 36.283 13.3687 36.2163 13.5521 36.133C14.1354 35.8997 14.7021 35.5663 15.2021 35.133C15.3521 35.0163 15.5188 34.8663 15.6688 34.7163L15.7354 34.6497L27.0687 23.333H33.4687C35.9687 23.333 37.6354 24.9997 37.6354 27.4997Z" stroke="#FFB51F" stroke-width="1.5" stroke-linecap="round" stroke-linejoin="round"/>
<path d="M8.98588 36.3667C7.98588 36.0667 7.03591 35.5167 6.25258 34.7167C5.45257 33.9334 4.90254 32.9834 4.60254 31.9834C5.25254 34.0667 6.90255 35.7167 8.98588 36.3667Z" stroke="#FFB51F" stroke-width="1.5" stroke-linecap="round" stroke-linejoin="round"/>
<path d="M31.5854 18.8169L27.0687 23.3336L15.7354 34.6502C16.902 33.4502 17.6354 31.8003 17.6354 30.0003V13.9002L22.152 9.38359C23.9187 7.61693 26.2854 7.61693 28.0521 9.38359L31.5854 12.9169C33.352 14.6836 33.352 17.0502 31.5854 18.8169Z" stroke="#FFB51F" stroke-width="1.5" stroke-linecap="round" stroke-linejoin="round"/>
<path d="M10.9684 31.6663C11.8889 31.6663 12.6351 30.9201 12.6351 29.9997C12.6351 29.0792 11.8889 28.333 10.9684 28.333C10.0479 28.333 9.30176 29.0792 9.30176 29.9997C9.30176 30.9201 10.0479 31.6663 10.9684 31.6663Z" stroke="#FFB51F" stroke-width="1.5" stroke-linecap="round" stroke-linejoin="round"/>
</svg>
