<svg width="18" height="19" viewBox="0 0 18 19" fill="none" xmlns="http://www.w3.org/2000/svg">
<mask id="path-1-inside-1_2395_22867" fill="white">
<path d="M5.23701 18.0555C4.19731 18.058 3.18029 17.7517 2.31488 17.1754C1.44947 16.5992 0.774647 15.779 0.375953 14.8188C-0.02274 13.8585 -0.127347 12.8016 0.0753925 11.7818C0.278132 10.7621 0.77909 9.82548 1.51476 9.09078L9.46476 1.15203C10.1684 0.44679 11.1234 0.0499557 12.1196 0.0488305C13.1159 0.0477053 14.0718 0.442381 14.777 1.14603C15.4822 1.84969 15.8791 2.80468 15.8802 3.80092C15.8813 4.79716 15.4867 5.75304 14.783 6.45828L6.83226 14.3963C6.40225 14.8061 5.83102 15.0347 5.23701 15.0347C4.64299 15.0347 4.07176 14.8061 3.64176 14.3963C3.43256 14.1873 3.2666 13.9392 3.15337 13.666C3.04014 13.3929 2.98186 13.1001 2.98186 12.8044C2.98186 12.5087 3.04014 12.2159 3.15337 11.9428C3.2666 11.6696 3.43256 11.4215 3.64176 11.2125L11.0623 3.80553L12.1258 4.86678L4.70526 12.2753C4.56465 12.4159 4.48567 12.6067 4.48567 12.8055C4.48567 13.0044 4.56465 13.1951 4.70526 13.3358C4.84853 13.4725 5.03897 13.5488 5.23701 13.5488C5.43505 13.5488 5.62548 13.4725 5.76876 13.3358L13.7248 5.39703C14.1469 4.97385 14.3837 4.40028 14.383 3.80251C14.3823 3.20473 14.1442 2.63172 13.721 2.20953C13.2978 1.78734 12.7243 1.55055 12.1265 1.55126C11.5287 1.55196 10.9557 1.7901 10.5335 2.21328L2.57826 10.1513C1.8745 10.8564 1.47969 11.8123 1.48068 12.8085C1.48166 13.8047 1.87836 14.7598 2.58351 15.4635C3.28865 16.1673 4.24448 16.5621 5.24072 16.5611C6.23696 16.5601 7.19201 16.1634 7.89576 15.4583L16.9115 6.45828L17.975 7.51953L8.95926 16.5195C8.47043 17.0079 7.89 17.395 7.25125 17.6586C6.6125 17.9222 5.928 18.0571 5.23701 18.0555Z"/>
</mask>
<path d="M5.23701 18.0555C4.19731 18.058 3.18029 17.7517 2.31488 17.1754C1.44947 16.5992 0.774647 15.779 0.375953 14.8188C-0.02274 13.8585 -0.127347 12.8016 0.0753925 11.7818C0.278132 10.7621 0.77909 9.82548 1.51476 9.09078L9.46476 1.15203C10.1684 0.44679 11.1234 0.0499557 12.1196 0.0488305C13.1159 0.0477053 14.0718 0.442381 14.777 1.14603C15.4822 1.84969 15.8791 2.80468 15.8802 3.80092C15.8813 4.79716 15.4867 5.75304 14.783 6.45828L6.83226 14.3963C6.40225 14.8061 5.83102 15.0347 5.23701 15.0347C4.64299 15.0347 4.07176 14.8061 3.64176 14.3963C3.43256 14.1873 3.2666 13.9392 3.15337 13.666C3.04014 13.3929 2.98186 13.1001 2.98186 12.8044C2.98186 12.5087 3.04014 12.2159 3.15337 11.9428C3.2666 11.6696 3.43256 11.4215 3.64176 11.2125L11.0623 3.80553L12.1258 4.86678L4.70526 12.2753C4.56465 12.4159 4.48567 12.6067 4.48567 12.8055C4.48567 13.0044 4.56465 13.1951 4.70526 13.3358C4.84853 13.4725 5.03897 13.5488 5.23701 13.5488C5.43505 13.5488 5.62548 13.4725 5.76876 13.3358L13.7248 5.39703C14.1469 4.97385 14.3837 4.40028 14.383 3.80251C14.3823 3.20473 14.1442 2.63172 13.721 2.20953C13.2978 1.78734 12.7243 1.55055 12.1265 1.55126C11.5287 1.55196 10.9557 1.7901 10.5335 2.21328L2.57826 10.1513C1.8745 10.8564 1.47969 11.8123 1.48068 12.8085C1.48166 13.8047 1.87836 14.7598 2.58351 15.4635C3.28865 16.1673 4.24448 16.5621 5.24072 16.5611C6.23696 16.5601 7.19201 16.1634 7.89576 15.4583L16.9115 6.45828L17.975 7.51953L8.95926 16.5195C8.47043 17.0079 7.89 17.395 7.25125 17.6586C6.6125 17.9222 5.928 18.0571 5.23701 18.0555Z" fill="white"/>
<path d="M1.51476 9.09078L-13.5595 -6.00484L-13.5602 -6.00413L1.51476 9.09078ZM9.46476 1.15203L24.539 16.2477L24.5529 16.2338L24.5667 16.2199L9.46476 1.15203ZM14.783 6.45828L29.8558 21.5553L29.8704 21.5408L29.885 21.5262L14.783 6.45828ZM6.83226 14.3963L21.5504 29.8393L21.7297 29.6684L21.9051 29.4933L6.83226 14.3963ZM5.23701 15.0347V-6.29862V15.0347ZM3.64176 14.3963L-11.4348 29.4896L-11.2576 29.6666L-11.0764 29.8393L3.64176 14.3963ZM2.98186 12.8044H24.3152H2.98186ZM3.64176 11.2125L-11.4294 -3.88614L-11.4348 -3.8808L3.64176 11.2125ZM11.0623 3.80553L26.1312 -11.2954L11.06 -26.3347L-4.00895 -11.2931L11.0623 3.80553ZM12.1258 4.86678L27.1985 19.9639L42.3239 4.86302L27.1947 -10.2341L12.1258 4.86678ZM4.70526 12.2753L-10.3675 -2.82187L-10.3747 -2.81463L-10.382 -2.80739L4.70526 12.2753ZM4.70526 13.3358L-10.382 28.4184L-10.2043 28.5962L-10.0224 28.7697L4.70526 13.3358ZM5.23701 13.5488V-7.78455V13.5488ZM5.76876 13.3358L20.4964 28.7697L20.6687 28.6053L20.8373 28.4371L5.76876 13.3358ZM13.7248 5.39703L28.7933 20.4983L28.8104 20.4813L28.8274 20.4642L13.7248 5.39703ZM10.5335 2.21328L25.6021 17.3146L25.6191 17.2976L25.6362 17.2805L10.5335 2.21328ZM2.57826 10.1513L-12.4903 -4.95003L-12.506 -4.9344L-12.5216 -4.91875L2.57826 10.1513ZM7.89576 15.4583L-7.17599 0.360155L-7.19005 0.37419L-7.20409 0.388252L7.89576 15.4583ZM16.9115 6.45828L31.9805 -8.64262L16.9087 -23.6825L1.83975 -8.63984L16.9115 6.45828ZM17.975 7.51953L33.0468 22.6177L48.1741 7.51675L33.044 -7.58138L17.975 7.51953ZM8.95926 16.5195L-6.1125 1.4214L-6.11887 1.42777L8.95926 16.5195ZM5.18664 -3.27774C8.37176 -3.28526 11.4874 -2.34689 14.1386 -0.581586L-9.50879 34.9325C-5.12681 37.8502 0.0228499 39.4012 5.28737 39.3888L5.18664 -3.27774ZM14.1386 -0.581586C16.7897 1.18371 18.857 3.69645 20.0784 6.6381L-19.3265 22.9994C-17.3077 27.8615 -13.8908 32.0147 -9.50879 34.9325L14.1386 -0.581586ZM20.0784 6.6381C21.2998 9.57973 21.6203 12.8178 20.9992 15.9418L-20.8484 7.62185C-21.875 12.7853 -21.3453 18.1373 -19.3265 22.9994L20.0784 6.6381ZM20.9992 15.9418C20.3781 19.0657 18.8434 21.935 16.5897 24.1857L-13.5602 -6.00413C-17.2853 -2.28401 -19.8218 2.45838 -20.8484 7.62185L20.9992 15.9418ZM16.589 24.1864L24.539 16.2477L-5.6095 -13.9436L-13.5595 -6.00484L16.589 24.1864ZM24.5667 16.2199C21.2741 19.52 16.8054 21.3769 12.1437 21.3822L12.0955 -21.2845C5.44135 -21.277 -0.93731 -18.6264 -5.63722 -13.9159L24.5667 16.2199ZM12.1437 21.3822C7.48202 21.3874 3.00915 19.5406 -0.290891 16.248L29.8449 -13.9559C25.1344 -18.6558 18.7497 -21.292 12.0955 -21.2845L12.1437 21.3822ZM-0.290891 16.248C-3.59094 12.9554 -5.44785 8.48672 -5.45311 3.82501L37.2135 3.77682C37.206 -2.87737 34.5554 -9.25604 29.8449 -13.9559L-0.290891 16.248ZM-5.45311 3.82501C-5.45838 -0.836689 -3.61158 -5.30956 -0.318966 -8.60962L29.885 21.5262C34.5849 16.8156 37.221 10.431 37.2135 3.77682L-5.45311 3.82501ZM-0.289828 -8.63876L-8.24058 -0.700764L21.9051 29.4933L29.8558 21.5553L-0.289828 -8.63876ZM-7.88588 -1.04677C-4.34857 -4.41803 0.350508 -6.29862 5.23701 -6.29862V36.368C11.3115 36.368 17.1531 34.0302 21.5504 29.8393L-7.88588 -1.04677ZM5.23701 -6.29862C10.1235 -6.29862 14.8226 -4.41803 18.3599 -1.04677L-11.0764 29.8393C-6.67906 34.0302 -0.837527 36.368 5.23701 36.368V-6.29862ZM18.7183 -0.697052C20.4926 1.07527 21.9002 3.17994 22.8605 5.49663L-16.5538 21.8354C-15.367 24.6984 -13.6275 27.2994 -11.4348 29.4896L18.7183 -0.697052ZM22.8605 5.49663C23.8209 7.81331 24.3152 10.2966 24.3152 12.8044H-18.3515C-18.3515 15.9036 -17.7406 18.9724 -16.5538 21.8354L22.8605 5.49663ZM24.3152 12.8044C24.3152 15.3122 23.8209 17.7955 22.8605 20.1122L-16.5538 3.7734C-17.7406 6.63637 -18.3515 9.7052 -18.3515 12.8044H24.3152ZM22.8605 20.1122C21.9002 22.4289 20.4926 24.5335 18.7183 26.3059L-11.4348 -3.8808C-13.6275 -1.69055 -15.367 0.910415 -16.5538 3.7734L22.8605 20.1122ZM18.713 26.3112L26.1335 18.9042L-4.00895 -11.2931L-11.4294 -3.88614L18.713 26.3112ZM-4.00671 18.9064L-2.94321 19.9677L27.1947 -10.2341L26.1312 -11.2954L-4.00671 18.9064ZM-2.94698 -10.2304L-10.3675 -2.82187L19.778 27.3724L27.1985 19.9639L-2.94698 -10.2304ZM-10.382 -2.80739C-14.522 1.33386 -16.8477 6.94983 -16.8477 12.8055H25.819C25.819 18.2635 23.6513 23.498 19.7925 27.3579L-10.382 -2.80739ZM-16.8477 12.8055C-16.8477 18.6612 -14.522 24.2772 -10.382 28.4184L19.7925 -1.74689C23.6513 2.11307 25.819 7.34758 25.819 12.8055H-16.8477ZM-10.0224 28.7697C-5.91088 32.6931 -0.446112 34.8821 5.23701 34.8821V-7.78455C10.524 -7.78455 15.6079 -5.74812 19.4329 -2.09815L-10.0224 28.7697ZM5.23701 34.8821C10.9201 34.8821 16.3849 32.6931 20.4964 28.7697L-8.95893 -2.09815C-5.13392 -5.74813 -0.050018 -7.78455 5.23701 -7.78455V34.8821ZM20.8373 28.4371L28.7933 20.4983L-1.34381 -9.70427L-9.29981 -1.76552L20.8373 28.4371ZM28.8274 20.4642C33.2457 16.0356 35.7237 10.0331 35.7164 3.77741L-6.95028 3.8276C-6.95624 -1.23259 -4.95179 -6.08787 -1.37793 -9.67015L28.8274 20.4642ZM35.7164 3.77741C35.709 -2.47831 33.2169 -8.47489 28.7882 -12.8931L-1.34618 17.3122C-4.92848 13.7383 -6.94433 8.88778 -6.95028 3.8276L35.7164 3.77741ZM28.7882 -12.8931C24.3595 -17.3114 18.3571 -19.7894 12.1014 -19.7821L12.1516 22.8846C7.09141 22.8905 2.23612 20.8861 -1.34618 17.3122L28.7882 -12.8931ZM12.1014 -19.7821C5.84565 -19.7747 -0.150921 -17.2826 -4.56917 -12.8539L25.6362 17.2805C22.0623 20.8628 17.2118 22.8786 12.1516 22.8846L12.1014 -19.7821ZM-4.53506 -12.888L-12.4903 -4.95003L17.6468 25.2526L25.6021 17.3146L-4.53506 -12.888ZM-12.5216 -4.91875C-17.2222 -0.208878 -19.8592 6.17538 -19.8526 12.8296L22.814 12.7874C22.8186 17.4491 20.9712 21.9217 17.6781 25.2213L-12.5216 -4.91875ZM-19.8526 12.8296C-19.8461 19.4838 -17.1964 25.8628 -12.4865 30.5634L17.6535 0.363686C20.9531 3.65675 22.8094 8.1257 22.814 12.7874L-19.8526 12.8296ZM-12.4865 30.5634C-7.77664 35.264 -1.39237 37.901 5.2618 37.8944L5.21964 -4.77221C9.88133 -4.77682 14.3539 -2.92939 17.6535 0.363686L-12.4865 30.5634ZM5.2618 37.8944C11.916 37.8879 18.295 35.2382 22.9956 30.5283L-7.20409 0.388252C-3.91101 -2.91134 0.557942 -4.76761 5.21964 -4.77221L5.2618 37.8944ZM22.9675 30.5564L31.9833 21.5564L1.83975 -8.63984L-7.17599 0.360155L22.9675 30.5564ZM1.84254 21.5592L2.90604 22.6204L33.044 -7.58138L31.9805 -8.64262L1.84254 21.5592ZM2.90325 -7.57859L-6.11249 1.4214L24.031 31.6177L33.0468 22.6177L2.90325 -7.57859ZM-6.11887 1.42777C-4.62136 -0.0683856 -2.84322 -1.25422 -0.8864 -2.0617L15.3889 37.3789C18.6232 36.0442 21.5622 34.0842 24.0374 31.6113L-6.11887 1.42777ZM-0.8864 -2.0617C1.07041 -2.86919 3.16737 -3.28243 5.28421 -3.27775L5.1898 39.3888C8.68863 39.3966 12.1546 38.7135 15.3889 37.3789L-0.8864 -2.0617Z" fill="white" mask="url(#path-1-inside-1_2395_22867)"/>
</svg>
