<svg width="40" height="40" viewBox="0 0 40 40" fill="none" xmlns="http://www.w3.org/2000/svg">
<path d="M17.9159 37.5H22.1159C23.7159 37.5 24.7492 36.3667 24.4492 34.9834L23.7659 31.9668H16.2659L15.5826 34.9834C15.2826 36.2834 16.4159 37.5 17.9159 37.5Z" stroke="#FFB51F" stroke-width="1.5" stroke-linecap="round" stroke-linejoin="round"/>
<path d="M23.7663 31.9503L26.6496 29.3836C28.2663 27.9502 28.3329 26.9502 27.0496 25.3335L21.9663 18.8836C20.8996 17.5336 19.1496 17.5336 18.0829 18.8836L12.9996 25.3335C11.7163 26.9502 11.7163 28.0002 13.3996 29.3836L16.2829 31.9503" stroke="#FFB51F" stroke-width="1.5" stroke-linecap="round" stroke-linejoin="round"/>
<path d="M20.0166 18.5332V22.7499" stroke="#FFB51F" stroke-width="1.5" stroke-linecap="round" stroke-linejoin="round"/>
<path d="M18.5838 8.64975L17.2838 7.34971C16.5005 6.56637 16.5005 5.29979 17.2838 4.51645L18.5838 3.21641C19.3671 2.43307 20.6338 2.43307 21.4171 3.21641L22.7171 4.51645C23.5005 5.29979 23.5005 6.56637 22.7171 7.34971L21.4171 8.64975C20.6338 9.43309 19.3671 9.43309 18.5838 8.64975Z" stroke="#FFB51F" stroke-width="1.5" stroke-linecap="round" stroke-linejoin="round"/>
<path d="M32.417 16.3496H34.2503C35.3503 16.3496 36.2503 17.2496 36.2503 18.3496V20.1829C36.2503 21.2829 35.3503 22.183 34.2503 22.183H32.417C31.317 22.183 30.417 21.2829 30.417 20.1829V18.3496C30.417 17.2496 31.317 16.3496 32.417 16.3496Z" stroke="#FFB51F" stroke-width="1.5" stroke-linecap="round" stroke-linejoin="round"/>
<path d="M7.58334 16.3496H5.75C4.65 16.3496 3.75 17.2496 3.75 18.3496V20.1829C3.75 21.2829 4.65 22.183 5.75 22.183H7.58334C8.68334 22.183 9.58334 21.2829 9.58334 20.1829V18.3496C9.58334 17.2496 8.68334 16.3496 7.58334 16.3496Z" stroke="#FFB51F" stroke-width="1.5" stroke-linecap="round" stroke-linejoin="round"/>
<path d="M30.8997 16.8333L22.0664 8" stroke="#FFB51F" stroke-width="1.5" stroke-linecap="round" stroke-linejoin="round"/>
<path d="M9.09961 16.8333L17.9329 8" stroke="#FFB51F" stroke-width="1.5" stroke-linecap="round" stroke-linejoin="round"/>
</svg>
