<svg width="223" height="63" viewBox="0 0 223 63" fill="none" xmlns="http://www.w3.org/2000/svg">
<g filter="url(#filter0_d_1476_28234)">
<path d="M210.834 2.23828C210.834 2.23828 200.273 22.5436 191.033 22.5436C181.792 22.5436 177.832 10.7879 165.951 10.7879C154.07 10.7879 139.549 40.7116 127.668 40.7116C115.788 40.7116 101.267 22.5436 93.3461 22.5436C85.4256 22.5436 76.185 36.4367 61.664 36.4367C48.7375 36.4367 48.7375 29.3621 44.5029 31.2667C40.2682 33.1713 36.3204 33.1981 29.8509 27.4233C23.3814 21.6484 18.5584 33.137 11.5006 27.4233" stroke="url(#paint0_linear_1476_28234)" stroke-width="3" stroke-linecap="round" stroke-linejoin="round"/>
</g>
<defs>
<filter id="filter0_d_1476_28234" x="0.000488281" y="0.738281" width="222.334" height="61.4727" filterUnits="userSpaceOnUse" color-interpolation-filters="sRGB">
<feFlood flood-opacity="0" result="BackgroundImageFix"/>
<feColorMatrix in="SourceAlpha" type="matrix" values="0 0 0 0 0 0 0 0 0 0 0 0 0 0 0 0 0 0 127 0" result="hardAlpha"/>
<feOffset dy="10"/>
<feGaussianBlur stdDeviation="5"/>
<feColorMatrix type="matrix" values="0 0 0 0 0.0456816 0 0 0 0 0.0410428 0 0 0 0 0.12686 0 0 0 0.54362 0"/>
<feBlend mode="normal" in2="BackgroundImageFix" result="effect1_dropShadow_1476_28234"/>
<feBlend mode="normal" in="SourceGraphic" in2="effect1_dropShadow_1476_28234" result="shape"/>
</filter>
<linearGradient id="paint0_linear_1476_28234" x1="128" y1="-5.58984" x2="143.134" y2="54.4023" gradientUnits="userSpaceOnUse">
<stop stop-color="#FFB800" stop-opacity="0"/>
<stop offset="0.64824" stop-color="#0B91AE"/>
<stop offset="1" stop-color="#001768"/>
</linearGradient>
</defs>
</svg>
