<svg width="49" height="48" viewBox="0 0 49 48" fill="none" xmlns="http://www.w3.org/2000/svg">
<g clip-path="url(#clip0_1902_366)">
<path d="M39.0004 27.7419C38.8468 25.8929 38.0442 24.2271 36.8165 22.9742C36.9997 21.9948 37.0978 20.9961 37.0978 20C37.0978 11.1065 29.8623 3.87097 20.9688 3.87097C20.2217 3.87097 19.461 3.93935 18.7017 4.0471L15.6642 1.00968L14.4591 2.21484C14.0636 2.0129 13.6513 1.84194 13.2268 1.70516V0H8.06552V1.70516C7.64101 1.84194 7.22875 2.0129 6.83327 2.21484L5.6281 1.00968L1.97843 4.65935L3.18359 5.86452C2.98101 6.26 2.81069 6.67226 2.67391 7.09677H0.96875V12.2581H2.67391C2.81133 12.6826 2.98165 13.0948 3.18423 13.4903L1.97907 14.6955L5.01649 17.7329C4.9081 18.4935 4.83972 19.2542 4.83972 20C4.83972 28.8935 12.0752 36.129 20.9688 36.129C22.9726 36.129 24.9217 35.7632 26.7752 35.0458V36.129H25.4849V37.4194H26.7752V40H35.8075V37.4194H37.0978V36.129H35.8075V34.671C37.6578 33.3406 38.8075 31.2852 38.9946 29.0323H40.9688V27.7419H39.0004ZM3.80359 14.6955L4.79198 13.7065L4.53778 13.2761C4.2023 12.7084 3.94875 12.0948 3.78294 11.4516L3.65778 10.9677H2.25907V8.3871H3.65778L3.78294 7.90323C3.94875 7.26 4.2023 6.64645 4.53778 6.07871L4.79198 5.64839L3.80359 4.65935L5.6281 2.83419L6.61714 3.82323L7.0481 3.56839C7.6152 3.23355 8.22875 2.97935 8.87198 2.81355L9.35585 2.68903V1.29032H11.9365V2.68903L12.4204 2.81355C13.0636 2.97935 13.6771 3.23355 14.2442 3.56839L14.6752 3.82323L15.6642 2.83419L17.4888 4.65935L16.5004 5.64839L16.7546 6.07871C17.09 6.64645 17.3436 7.26 17.5094 7.90323L17.6346 8.3871H19.0333V10.9677H17.6346L17.5094 11.4516C17.3436 12.0948 17.09 12.7084 16.7546 13.2761L16.5004 13.7065L17.4888 14.6955L15.6642 16.5206L14.6752 15.5316L14.2442 15.7865C13.6771 16.1213 13.0636 16.3755 12.4204 16.5413L11.9365 16.6658V18.0645H9.35585V16.6658L8.87198 16.5413C8.22875 16.3755 7.6152 16.1213 7.0481 15.7865L6.61714 15.5316L5.6281 16.5206L3.80359 14.6955ZM20.9688 34.8387C12.7862 34.8387 6.13004 28.1819 6.13004 20C6.13004 19.2265 6.20101 18.4355 6.32746 17.6458L6.83327 17.14C7.22875 17.3419 7.64101 17.5129 8.06552 17.6497V19.3548H13.2268V17.6497C13.6513 17.5129 14.0636 17.3419 14.4591 17.14L15.6642 18.3452L19.3133 14.6955L18.1081 13.4903C18.3107 13.0948 18.481 12.6826 18.6184 12.2581H20.3236V7.09677H18.6184C18.481 6.67226 18.3107 6.26 18.1081 5.86452L18.6139 5.35871C19.4029 5.23226 20.1939 5.16129 20.9688 5.16129C29.1513 5.16129 35.8075 11.8181 35.8075 20C35.8075 20.6703 35.7571 21.3413 35.6668 22.0065C34.421 21.1497 32.9146 20.6452 31.2913 20.6452C27.2397 20.6452 23.912 23.7748 23.5823 27.7419H21.6139V29.0323H23.5881C23.7455 30.9252 24.5842 32.6742 25.9475 33.9748C24.352 34.5452 22.6823 34.8387 20.9688 34.8387ZM34.5171 38.7097H28.0655V37.4194H34.5171V38.7097ZM34.8094 33.7903L34.5171 33.9813V36.129H31.9365V30.8761C33.0468 30.5877 33.872 29.5858 33.872 28.3871C33.872 26.9639 32.7146 25.8064 31.2913 25.8064C29.8681 25.8064 28.7107 26.9639 28.7107 28.3871C28.7107 29.5858 29.5358 30.5877 30.6462 30.8761V36.129H28.0655V33.9813L27.7733 33.7903C25.9358 32.5916 24.8397 30.5716 24.8397 28.3871C24.8397 24.8297 27.7339 21.9355 31.2913 21.9355C34.8487 21.9355 37.7429 24.8297 37.7429 28.3871C37.7429 30.5716 36.6468 32.5916 34.8094 33.7903ZM31.2913 29.6774C30.5797 29.6774 30.001 29.0987 30.001 28.3871C30.001 27.6755 30.5797 27.0968 31.2913 27.0968C32.0029 27.0968 32.5817 27.6755 32.5817 28.3871C32.5817 29.0987 32.0029 29.6774 31.2913 29.6774Z" fill="white"/>
<path d="M31.9368 23.2266H30.6465V24.5169H31.9368V23.2266Z" fill="white"/>
<path d="M27.1878 25.1894L28.1006 26.1016L29.0128 25.1887L28.0999 24.2765L27.1878 25.1894Z" fill="white"/>
<path d="M27.4183 27.7422H26.1279V29.0325H27.4183V27.7422Z" fill="white"/>
<path d="M27.1874 31.5794L28.0996 32.4922L29.0124 31.58L28.1003 30.6672L27.1874 31.5794Z" fill="white"/>
<path d="M33.5745 31.58L34.4873 32.4922L35.3995 31.5794L34.4867 30.6672L33.5745 31.58Z" fill="white"/>
<path d="M36.4554 27.7422H35.165V29.0325H36.4554V27.7422Z" fill="white"/>
<path d="M35.3995 25.196L34.4873 24.2832L33.5745 25.1954L34.4867 26.1082L35.3995 25.196Z" fill="white"/>
<path d="M10.6447 14.8382C13.4905 14.8382 15.806 12.5227 15.806 9.67692C15.806 6.83111 13.4905 4.51562 10.6447 4.51562C7.79888 4.51562 5.4834 6.83111 5.4834 9.67692C5.4834 12.5227 7.79888 14.8382 10.6447 14.8382ZM6.83179 9.03175C6.93114 8.4453 7.16082 7.90337 7.49243 7.43756L8.3634 8.30788L9.27566 7.39563L8.40469 6.5253C8.87114 6.19304 9.41308 5.96337 9.99953 5.86401V7.09627H11.2899V5.86401C11.8763 5.96337 12.4182 6.19304 12.884 6.5253L12.0131 7.39563L12.9253 8.30788L13.7963 7.43756C14.1286 7.90337 14.3582 8.4453 14.4576 9.03175H13.2253V10.3221H14.4576C14.3582 10.9085 14.1286 11.4505 13.7969 11.9163L12.926 11.0459L12.0137 11.9582L12.8847 12.8285C12.4182 13.1608 11.8763 13.3905 11.2899 13.4898V12.2576H9.99953V13.4898C9.41308 13.3905 8.87114 13.1608 8.40533 12.8285L9.2763 11.9582L8.36404 11.0459L7.49308 11.9163C7.16082 11.4505 6.93114 10.9085 6.83179 10.3221H8.06404V9.03175H6.83179Z" fill="white"/>
<path d="M30.3587 17.7186L27.6245 16.807L27.2162 18.0309L31.5781 19.4845L33.78 15.8148L32.6736 15.1509L31.5213 17.0715C30.2929 12.6322 26.3671 9.35736 21.6536 9.06445L21.5742 10.3522C25.8394 10.618 29.3742 13.6496 30.3587 17.7186Z" fill="white"/>
<path d="M11.6543 22.5143L14.2292 23.8021L14.8066 22.6479L10.4014 20.4453L8.1582 24.1834L9.26465 24.8472L10.4259 22.9118C11.6485 27.3602 15.5724 30.6427 20.2847 30.9343L20.364 29.6466C16.1885 29.3872 12.715 26.466 11.6543 22.5143Z" fill="white"/>
</g>
<defs>
<clipPath id="clip0_1902_366">
<rect width="48" height="48" fill="white" transform="translate(0.96875)"/>
</clipPath>
</defs>
</svg>
