<svg width="48" height="48" viewBox="0 0 48 48" fill="none" xmlns="http://www.w3.org/2000/svg">
<path d="M23.871 0C14.9774 0 7.74194 7.23548 7.74194 16.129C7.74194 18.7555 8.39484 21.3465 9.62 23.6613L1.39161 31.8897C0.494194 32.7871 0 33.98 0 35.249C0 37.869 2.13097 40 4.75097 40C6.02 40 7.2129 39.5058 8.11032 38.6084L16.3387 30.38C18.6535 31.6052 21.2445 32.2581 23.871 32.2581C32.7645 32.2581 40 25.0226 40 16.129C40 7.23548 32.7645 0 23.871 0ZM7.19806 37.6961C6.54452 38.3497 5.67548 38.7097 4.75097 38.7097C2.84258 38.7097 1.29032 37.1574 1.29032 35.249C1.29032 34.3245 1.65032 33.4555 2.30387 32.8019L2.58065 32.5252L7.47484 37.4194L7.19806 37.6961ZM8.3871 36.5071L3.4929 31.6129L4.83871 30.2671L9.7329 35.1613L8.3871 36.5071ZM10.6452 34.249L8.65419 32.2581L9.48839 31.4239L8.57613 30.5116L7.74194 31.3458L5.75097 29.3548L17.0968 18.009L19.0877 20L9.86645 29.2213L10.7787 30.1335L20 20.9123L21.991 22.9032L10.6452 34.249ZM22.5806 16.129C22.5806 15.4174 23.1594 14.8387 23.871 14.8387C24.5826 14.8387 25.1613 15.4174 25.1613 16.129C25.1613 16.8406 24.5826 17.4194 23.871 17.4194V16.129H22.5806ZM23.871 18.7097C25.2942 18.7097 26.4516 17.5523 26.4516 16.129C26.4516 14.7058 25.2942 13.5484 23.871 13.5484C22.4477 13.5484 21.2903 14.7058 21.2903 16.129H18.0645C18.0645 12.9277 20.6697 10.3226 23.871 10.3226C27.0723 10.3226 29.6774 12.9277 29.6774 16.129C29.6774 19.3303 27.0723 21.9355 23.871 21.9355V18.7097ZM22.5806 17.4194V21.6684L18.3316 17.4194H22.5806ZM23.871 30.9677C21.5871 30.9677 19.3316 30.4348 17.2929 29.4258L19.7465 26.9723C21.0645 27.4742 22.4471 27.7419 23.871 27.7419C27.2781 27.7419 30.5019 26.2484 32.7161 23.6439L31.7335 22.8077C29.7645 25.1232 26.8987 26.4516 23.871 26.4516C22.8013 26.4516 21.7561 26.2877 20.751 25.9684L23.5116 23.2077C23.631 23.2142 23.7497 23.2258 23.871 23.2258C27.7839 23.2258 30.9677 20.0419 30.9677 16.129C30.9677 12.2161 27.7839 9.03226 23.871 9.03226C19.9581 9.03226 16.7742 12.2161 16.7742 16.129C16.7742 16.2503 16.7858 16.369 16.7923 16.489L14.0316 19.2497C13.7123 18.2439 13.5484 17.1987 13.5484 16.129C13.5484 10.4374 18.1794 5.80645 23.871 5.80645C29.5626 5.80645 34.1935 10.4374 34.1935 16.129C34.1935 18.0561 33.6484 19.9458 32.6168 21.5929L33.7103 22.2781C34.8703 20.4252 35.4839 18.2987 35.4839 16.129C35.4839 9.72581 30.2742 4.51613 23.871 4.51613C17.4677 4.51613 12.2581 9.72581 12.2581 16.129C12.2581 17.5529 12.5258 18.9355 13.0277 20.2535L10.5742 22.7071C9.56516 20.6684 9.03226 18.4129 9.03226 16.129C9.03226 7.9471 15.689 1.29032 23.871 1.29032C32.0529 1.29032 38.7097 7.9471 38.7097 16.129C38.7097 24.311 32.0529 30.9677 23.871 30.9677Z" fill="white"/>
</svg>
