<svg xmlns="http://www.w3.org/2000/svg" width="30" height="30" viewBox="0 0 30 30" fill="none">
  <path d="M16.1431 26.6762C16.1995 26.7716 16.2385 26.8837 16.314 26.96C17.245 27.8987 18.1808 28.8326 19.1166 29.7665C19.4299 30.0789 19.5396 30.0781 19.856 29.7625C23.1603 26.4592 26.4638 23.1559 29.7673 19.8526C30.0782 19.5418 30.0774 19.4258 29.7658 19.1142C28.8387 18.1858 27.9109 17.2575 26.9814 16.3323C26.9043 16.256 26.8081 16.1995 26.7206 16.1336C26.7246 16.0962 26.7278 16.0597 26.7318 16.0223C26.8693 15.9563 27.0005 15.8641 27.146 15.8292C28.4459 15.5152 29.3674 14.4136 29.3945 13.1267C29.4223 11.7739 28.5946 10.6429 27.3066 10.2757C25.7809 9.84011 24.1876 10.7558 23.7773 12.2985C23.7288 12.4805 23.6493 12.6538 23.561 12.8931C23.414 12.7532 23.3281 12.6753 23.247 12.5942C21.187 10.5356 19.1277 8.47618 17.0685 6.41677C16.7203 6.06863 16.6217 6.07261 16.2631 6.41995C15.9348 6.73788 15.6772 7.06058 15.5611 7.54623C15.3106 8.59858 14.2643 9.23683 13.1894 9.09456C12.1669 8.95943 11.352 8.06684 11.317 7.04548C11.2788 5.92636 11.9984 4.99243 13.0868 4.80088C13.6418 4.70312 13.8938 4.25642 14.2158 3.89795C14.3589 3.73899 14.2087 3.5522 14.064 3.40913C13.1894 2.54038 12.3196 1.66766 11.4482 0.795728C11.2447 0.592251 11.0419 0.38639 10.8368 0.184503C10.5855 -0.0618945 10.4337 -0.0626893 10.1816 0.189272C9.13295 1.23527 8.08585 2.28206 7.04193 3.33283C6.96639 3.40913 6.92107 3.51484 6.80261 3.60069C6.38281 2.01659 5.48916 1.04133 3.82667 0.992846C3.01093 0.969001 2.3065 1.28852 1.7595 1.89259C0.975559 2.75737 0.781563 3.76442 1.1791 4.85652C1.57902 5.95259 2.45439 6.50182 3.57702 6.72914C3.5961 6.77762 3.61439 6.82611 3.63347 6.87459C3.53727 6.92546 3.42119 6.95646 3.34725 7.02959C2.30968 8.0581 1.27769 9.09297 0.244892 10.1262C-0.0794945 10.4505 -0.0810833 10.5682 0.236942 10.8861C1.24191 11.8908 2.24767 12.8938 3.30988 13.9542C3.1445 14.013 3.02842 14.0662 2.90678 14.0956C1.73087 14.3826 0.862658 15.3268 0.710005 16.4905C0.554171 17.6779 1.12583 18.8066 2.1785 19.3916C3.78612 20.2842 5.85091 19.3884 6.31046 17.6008C6.34783 17.4554 6.39394 17.3123 6.43529 17.1716C8.57561 19.3113 10.681 21.416 12.8308 23.566C12.679 23.6304 12.5231 23.7218 12.3554 23.764C11.15 24.0692 10.2468 25.1215 10.1832 26.3082C10.1117 27.6483 10.8368 28.7809 12.0516 29.226C13.6322 29.8047 15.3774 28.8843 15.7996 27.2556C15.8457 27.0768 15.9308 26.9067 15.9976 26.7334C16.0477 26.7152 16.097 26.6977 16.147 26.6794L16.1431 26.6762ZM19.5801 9.97523C19.3639 10.1795 19.1063 10.4108 18.8614 10.6548C17.924 11.5871 16.9898 12.5227 16.0556 13.4582C15.7845 13.73 15.7837 13.8643 16.0469 14.1338C16.2067 14.2975 16.3585 14.4716 16.535 14.6147C16.6519 14.7092 16.8014 14.7943 16.9469 14.8189C18.0329 14.9994 18.8312 15.9245 18.8121 17.0015C18.7922 18.1413 17.9455 19.0395 16.7831 19.1539C15.7447 19.2557 14.7294 18.5189 14.5124 17.453C14.4456 17.1247 14.3049 16.8871 14.0687 16.6788C13.994 16.6129 13.9272 16.5389 13.8572 16.469C13.4979 16.1105 13.4064 16.1089 13.0558 16.4595C12.0858 17.4291 11.1159 18.3996 10.1459 19.3693C10.0711 19.444 9.99242 19.5148 9.88509 19.6173C9.71812 19.4361 9.56865 19.2628 9.40805 19.1015C8.55256 18.2423 7.69865 17.3807 6.82964 16.535C6.72231 16.43 6.46152 16.3227 6.38122 16.3776C6.0791 16.5827 5.76266 16.7909 5.69349 17.2193C5.5146 18.3345 4.54939 19.1086 3.43789 19.0601C2.34626 19.0125 1.4526 18.1429 1.36355 17.0437C1.27609 15.9579 2.01392 14.9668 3.11827 14.7561C3.45538 14.6918 3.66289 14.5026 3.87756 14.2848C4.17014 13.9883 4.17014 13.8643 3.87279 13.5671C2.93143 12.6244 1.98927 11.6833 1.04791 10.7414C0.973969 10.6667 0.903208 10.5896 0.814955 10.4966C1.16637 10.1509 1.50189 9.8258 1.83264 9.49674C2.62135 8.71065 3.41324 7.92854 4.18763 7.12894C4.29258 7.02084 4.39912 6.75855 4.34426 6.68145C4.13357 6.38339 3.93003 6.0583 3.4999 5.99472C2.42179 5.83416 1.63546 4.88116 1.65932 3.7978C1.68396 2.67868 2.53866 1.77814 3.68117 1.66766C4.71079 1.5683 5.72291 2.29319 5.94712 3.3376C6.02026 3.67937 6.16497 3.9361 6.41541 4.16502C6.75093 4.47261 6.84872 4.48215 7.17868 4.1523C8.21942 3.11266 9.25937 2.07223 10.3001 1.03259C10.3677 0.965822 10.4392 0.90303 10.4623 0.882364C11.4482 1.86795 12.4142 2.83526 13.4327 3.85344C13.2307 3.952 13.028 4.09745 12.8038 4.15389C11.4569 4.49169 10.5426 5.75229 10.646 7.16073C10.7501 8.57871 11.8529 9.66683 13.3055 9.78606C14.6475 9.89654 15.926 8.96182 16.2679 7.64319C16.3283 7.41031 16.4754 7.20047 16.5827 6.98031C17.6068 8.00484 18.5744 8.97374 19.5809 9.98079L19.5801 9.97523ZM29.1186 19.4178C25.8731 22.6639 22.6531 25.8862 19.4052 29.1338C19.3543 29.0742 19.2836 28.9772 19.1993 28.893C18.2659 27.9567 17.3293 27.0236 16.3975 26.0864C16.2599 25.9481 16.0795 25.8194 15.93 25.9474C15.6239 26.2096 15.2518 26.4203 15.1755 26.894C14.999 27.9829 14.0512 28.7499 12.966 28.7205C11.8696 28.6911 10.9799 27.8589 10.8527 26.7454C10.7366 25.728 11.4275 24.6804 12.446 24.4531C12.8769 24.3569 13.1806 24.1534 13.4605 23.849C13.7245 23.5613 13.7332 23.4269 13.4549 23.148C12.5136 22.2053 11.5714 21.2642 10.6301 20.3215C10.5553 20.246 10.4846 20.1665 10.4416 20.1204C11.4657 19.0951 12.473 18.0873 13.5344 17.0254C13.6394 17.232 13.7865 17.4315 13.8461 17.6549C14.2126 19.0355 15.4681 19.9488 16.8713 19.8319C18.2524 19.7175 19.3766 18.5864 19.4816 17.2066C19.5889 15.7997 18.669 14.5463 17.2903 14.1894C17.0685 14.1322 16.8713 13.9796 16.6948 13.8874C17.8723 12.7102 18.9997 11.5824 20.1526 10.4299C20.1987 10.4839 20.2647 10.5714 20.3418 10.6484C21.2824 11.5911 22.2198 12.5378 23.1738 13.4677C23.2804 13.5718 23.5571 13.672 23.6262 13.6163C23.9387 13.362 24.3179 13.153 24.3903 12.6808C24.5565 11.603 25.5209 10.8114 26.5934 10.8456C27.7081 10.8813 28.5891 11.7119 28.7147 12.8462C28.8284 13.8707 28.1168 14.9 27.0689 15.1257C26.6761 15.21 26.4106 15.4063 26.1538 15.6742C25.8238 16.0191 25.8174 16.1264 26.1514 16.4595C27.15 17.457 28.1494 18.4529 29.1194 19.4194L29.1186 19.4178Z" fill="#50B0FF"/>
</svg>