<svg width="41" height="40" viewBox="0 0 41 40" fill="none" xmlns="http://www.w3.org/2000/svg">
<path d="M37.6029 24.9997V14.9997C37.6029 6.66634 34.2695 3.33301 25.9362 3.33301H15.9362C7.60286 3.33301 4.26953 6.66634 4.26953 14.9997V24.9997C4.26953 33.333 7.60286 36.6663 15.9362 36.6663H25.9362C34.2695 36.6663 37.6029 33.333 37.6029 24.9997Z" stroke="white" stroke-width="1.5" stroke-linecap="round" stroke-linejoin="round"/>
<path d="M5.13672 11.8496H36.7367" stroke="white" stroke-width="1.5" stroke-linecap="round" stroke-linejoin="round"/>
<path d="M15.1367 3.5166V11.6166" stroke="white" stroke-width="1.5" stroke-linecap="round" stroke-linejoin="round"/>
<path d="M26.7363 3.5166V10.8666" stroke="white" stroke-width="1.5" stroke-linecap="round" stroke-linejoin="round"/>
<path d="M17.1865 24.0832V22.0832C17.1865 19.5165 19.0032 18.4665 21.2199 19.7499L22.9532 20.7499L24.6865 21.7499C26.9032 23.0332 26.9032 25.1332 24.6865 26.4165L22.9532 27.4165L21.2199 28.4165C19.0032 29.6999 17.1865 28.6499 17.1865 26.0832V24.0832V24.0832Z" stroke="white" stroke-width="1.5" stroke-miterlimit="10" stroke-linecap="round" stroke-linejoin="round"/>
</svg>
