<svg width="180" height="42" viewBox="0 0 180 42" fill="none" xmlns="http://www.w3.org/2000/svg">
<path d="M16.2475 0.274414L34.607 41.3424H18.2905L0 0.274414H16.2475ZM179.998 15.9216H170.485L164.227 29.9602L165.23 33.5949L163.913 30.6657L157.35 15.9427L157.359 15.9216H147.828L147.837 15.9427L136.514 41.3424H146.028L152.359 27.1395L151.633 24.4876L152.594 26.6118L159.156 41.3348L159.153 41.3424H168.673L168.67 41.3348L180 15.9216H179.998ZM128.135 31.6803H137.646L140.364 25.5837H127.715L131.052 25.1419L132.445 22.0182H141.956L144.674 15.9216H125.649L114.316 41.3424H133.338L136.056 35.2457H126.549L128.138 31.6803H128.135ZM74.2651 31.5672L71.6863 31.5748L74.4662 31.115L81.2556 15.9201H71.7733H62.2596L57.8915 25.6937H67.4082L60.4088 41.3409H79.3432L83.6963 31.5657H74.2651V31.5672ZM112.963 15.9216L108.654 25.5852H99.1422L95.9855 25.5761L99.3764 25.0605L103.45 15.9201H93.9365L82.6035 41.3409H92.1172L96.4238 31.6803H105.936L108.446 31.6863L105.754 32.0889L101.629 41.3409H111.143L122.476 15.9201H112.963V15.9216ZM34.607 41.3424H50.9236L57.8915 25.6952H41.605L34.607 41.3424ZM57.8915 0.274414H41.605L34.607 15.9216H50.9236L57.8915 0.274414Z" fill="url(#paint0_linear_1724_19152)"/>
<defs>
<linearGradient id="paint0_linear_1724_19152" x1="-5.81112e-07" y1="20.8865" x2="179.998" y2="20.8865" gradientUnits="userSpaceOnUse">
<stop stop-color="#0B55EA"/>
<stop offset="1" stop-color="#51B0FF"/>
</linearGradient>
</defs>
</svg>
