<svg xmlns="http://www.w3.org/2000/svg" width="28" height="30" viewBox="0 0 28 30" fill="none">
  <path d="M13.7207 0.210938C11.8485 1.29202 9.97635 2.37368 8.10362 3.4536C6.8085 4.20035 5.51164 4.94537 4.20084 5.69964C3.81654 5.33985 3.38174 5.0894 2.86102 4.99685C1.64079 4.78109 0.437384 5.52148 0.0954628 6.70841C-0.251102 7.91039 0.371786 9.1916 1.545 9.63237C1.79869 9.72781 1.86835 9.84291 1.86718 10.1038C1.8579 13.5443 1.86719 16.9853 1.85325 20.4258C1.85151 20.8539 1.99432 21.1136 2.37049 21.3282C5.38973 23.049 8.39794 24.7889 11.4137 26.5161C11.5919 26.6185 11.6413 26.7104 11.6088 26.921C11.4514 27.939 11.7934 28.7772 12.6514 29.3498C13.5093 29.923 14.4271 29.9358 15.2991 29.3816C16.1675 28.8298 16.5332 28.0084 16.4078 26.9817C16.4009 26.9245 16.3922 26.8672 16.3823 26.8099C16.3742 26.7637 16.3637 26.7185 16.351 26.6555C17.0754 26.2384 17.7941 25.8243 18.5122 25.4107C20.9132 24.0289 23.313 22.6441 25.7181 21.2692C26.0223 21.0951 26.1488 20.8718 26.1483 20.523C26.1407 17.0247 26.1442 13.5258 26.1413 10.0274C26.1413 9.85217 26.1575 9.74632 26.3648 9.66881C27.3418 9.30324 27.9031 8.58773 27.9914 7.54945C28.0756 6.56207 27.5374 5.64064 26.6428 5.21607C25.6844 4.76085 24.7852 4.89504 23.962 5.55677C23.9168 5.59321 23.8738 5.63196 23.8291 5.6684C23.8221 5.67419 23.8117 5.6765 23.7803 5.6898C23.2341 5.37572 22.675 5.05469 22.116 4.73366C19.5896 3.28007 17.0621 1.82706 14.5351 0.372897C14.4533 0.325466 14.379 0.26531 14.3012 0.210938C14.1079 0.210938 13.914 0.210938 13.7207 0.210938ZM12.2409 25.6444C12.2096 25.6317 12.1904 25.6265 12.1736 25.6166C9.17641 23.8947 6.17923 22.1738 3.18669 20.4438C3.10309 20.3952 3.02937 20.25 3.02879 20.1493C3.02066 16.7563 3.02357 13.3632 3.01834 9.97017C3.01834 9.79143 3.08452 9.72838 3.2459 9.66881C4.07603 9.36108 4.6281 8.77687 4.80341 7.91096C4.8812 7.52631 4.81677 7.11331 4.81677 6.69106C4.83592 6.67834 4.87366 6.65057 4.91487 6.62686C7.88535 4.91645 10.8547 3.20488 13.8304 1.50372C13.9204 1.45224 14.0951 1.46323 14.1891 1.51703C17.1312 3.19909 20.0668 4.89215 23.0071 6.57653C23.1691 6.66966 23.2085 6.76105 23.176 6.94036C22.9612 8.1325 23.5923 9.24713 24.7295 9.65492C24.953 9.73533 24.9872 9.84407 24.9866 10.0506C24.9808 13.3858 24.9797 16.721 24.9884 20.0562C24.9884 20.2795 24.9205 20.3963 24.7283 20.5062C22.3221 21.8806 19.9211 23.2636 17.5189 24.6443C16.9355 24.9798 16.3527 25.3159 15.7762 25.6479C14.6396 24.6142 13.2162 24.7224 12.2415 25.6432L12.2409 25.6444ZM24.2871 7.40253C24.2784 6.7061 24.8421 6.12536 25.5381 6.11321C26.2377 6.10107 26.824 6.65983 26.8391 7.35278C26.8542 8.06251 26.2823 8.65135 25.5735 8.65598C24.8734 8.66061 24.2953 8.09722 24.2871 7.40253ZM2.43493 8.6554C1.73076 8.65367 1.16941 8.09259 1.16767 7.38865C1.16535 6.6847 1.7238 6.11784 2.42622 6.11263C3.13444 6.10685 3.72424 6.6928 3.71611 7.39443C3.70799 8.0897 3.13212 8.65714 2.43493 8.65598V8.6554ZM12.7291 27.3444C12.7274 26.6404 13.2864 26.0736 13.9883 26.0672C14.6959 26.0609 15.2863 26.6462 15.2805 27.3479C15.2747 28.0397 14.6942 28.6117 13.9993 28.6112C13.298 28.6106 12.7315 28.0449 12.7297 27.3444H12.7291Z" fill="#50B0FF"/>
  <path d="M4.71696 13.9672C4.71696 15.4888 4.7235 17.0103 4.71238 18.5318C4.70977 18.8804 4.84647 19.108 5.16568 19.2814C7.95937 20.7961 10.7498 22.3164 13.5376 23.841C13.8535 24.0138 14.1361 24.0168 14.4553 23.8422C17.2431 22.317 20.0335 20.7967 22.8279 19.2833C23.1602 19.1031 23.2975 18.8649 23.2969 18.5083C23.2903 15.4857 23.2897 12.4636 23.2969 9.44099C23.2975 9.06956 23.149 8.83201 22.8063 8.64691C20.0388 7.15009 17.2758 5.64709 14.5188 4.13361C14.1564 3.93432 13.8509 3.92691 13.4866 4.12682C10.7295 5.63969 7.96722 7.14454 5.19969 8.64136C4.8576 8.82646 4.7065 9.05845 4.70976 9.43358C4.7235 10.9446 4.71565 12.4562 4.71565 13.9672H4.71696ZM6.04349 10.3689C6.17627 10.435 6.28093 10.4819 6.38036 10.5361C8.74691 11.8244 11.1154 13.109 13.4761 14.4065C13.8359 14.604 14.1374 14.6169 14.5063 14.414C16.8657 13.1139 19.2349 11.8312 21.6014 10.5429C21.7113 10.4831 21.8232 10.4282 21.9651 10.3548C21.9749 10.4448 21.9841 10.4923 21.9841 10.5399C21.9847 13.0584 21.9821 15.5764 21.99 18.0949C21.99 18.2856 21.8984 18.3633 21.7466 18.4454C19.6332 19.5924 17.5218 20.7431 15.4103 21.8925C15.1774 22.019 14.9439 22.1436 14.6587 22.2967C14.6587 22.0431 14.6587 21.8419 14.6587 21.6408C14.6587 20.9417 14.6666 20.2427 14.6535 19.5443C14.6463 19.171 14.3565 18.9087 13.9968 18.9106C13.6292 18.9125 13.3649 19.171 13.3531 19.551C13.3453 19.7873 13.3505 20.0237 13.3505 20.26C13.3505 20.9232 13.3505 21.5865 13.3505 22.2874C13.24 22.238 13.1706 22.2127 13.1078 22.1788C10.8165 20.9319 8.52713 19.6825 6.23318 18.4411C6.06442 18.3498 6.0219 18.2436 6.0219 18.074C6.02648 15.5967 6.02518 13.1195 6.02583 10.6423C6.02583 10.5639 6.03564 10.4862 6.04415 10.3708L6.04349 10.3689ZM21.3071 9.26082C21.1815 9.33671 21.0945 9.39409 21.0029 9.44469C18.7606 10.6663 16.5157 11.8849 14.2774 13.1127C14.072 13.225 13.9255 13.2262 13.7188 13.1127C11.4804 11.8843 9.23619 10.6657 6.99325 9.44407C6.90168 9.39409 6.81468 9.33671 6.70348 9.26946C6.76955 9.22565 6.80945 9.1948 6.85393 9.17074C9.17208 7.90776 11.4915 6.64847 13.8051 5.37808C13.9863 5.27875 14.1014 5.33243 14.2466 5.4114C16.0827 6.41402 17.9208 7.41478 19.7582 8.41554C20.2638 8.69072 20.7687 8.9659 21.3084 9.26021L21.3071 9.26082Z" fill="#50B0FF"/>
  <path d="M13.9851 16.1317C13.6201 16.1403 13.3382 16.4291 13.3546 16.777C13.3703 17.109 13.6666 17.37 14.0178 17.3607C14.3632 17.3521 14.6562 17.0695 14.6562 16.7456C14.6562 16.4093 14.3429 16.1224 13.9851 16.131V16.1317Z" fill="#50B0FF"/>
</svg>