<svg width="24" height="25" viewBox="0 0 24 25" fill="none" xmlns="http://www.w3.org/2000/svg">
<path d="M23.7609 7.54258C23.7609 7.54258 23.5266 5.88789 22.8047 5.16133C21.8906 4.20508 20.8688 4.20039 20.4 4.14414C17.0438 3.90039 12.0047 3.90039 12.0047 3.90039H11.9953C11.9953 3.90039 6.95625 3.90039 3.6 4.14414C3.13125 4.20039 2.10938 4.20508 1.19531 5.16133C0.473438 5.88789 0.24375 7.54258 0.24375 7.54258C0.24375 7.54258 0 9.48789 0 11.4285V13.2473C0 15.1879 0.239062 17.1332 0.239062 17.1332C0.239062 17.1332 0.473437 18.7879 1.19062 19.5145C2.10469 20.4707 3.30469 20.4379 3.83906 20.541C5.76094 20.7238 12 20.7801 12 20.7801C12 20.7801 17.0438 20.7707 20.4 20.5316C20.8688 20.4754 21.8906 20.4707 22.8047 19.5145C23.5266 18.7879 23.7609 17.1332 23.7609 17.1332C23.7609 17.1332 24 15.1926 24 13.2473V11.4285C24 9.48789 23.7609 7.54258 23.7609 7.54258ZM9.52031 15.4551V8.70977L16.0031 12.0941L9.52031 15.4551Z" fill="white"/>
</svg>
