<svg viewBox="0 0 378 176" fill="none" xmlns="http://www.w3.org/2000/svg">
<path d="M49.3311 175.5L0.5 131.78V0.500008L327.731 0.505246L377.5 44.3882V175.5H49.3311Z" fill="url(#paint0_linear_1290_13579)" stroke="url(#paint1_linear_1290_13579)"/>
<g filter="url(#filter0_f_1290_13579)">
<ellipse cx="117.172" cy="29" rx="2.9948" ry="3" fill="#FEBA4A" fill-opacity="0.16"/>
</g>
<mask id="mask0_1290_13579" style="mask-type:luminance" maskUnits="userSpaceOnUse" x="11" y="0" width="367" height="176">
<path fill-rule="evenodd" clip-rule="evenodd" d="M11.0439 0V132.003L58.7117 176H377.719V44.1625L329.139 0.00524902L11.0439 0Z" fill="white"/>
</mask>
<g mask="url(#mask0_1290_13579)">
<g filter="url(#filter1_b_1290_13579)">
<path d="M340.724 102H279.679L251.724 153H312.769L340.724 102Z" stroke="#FFB51F"/>
</g>
<path fill-rule="evenodd" clip-rule="evenodd" d="M280.099 23.6033L252.864 73.3967H312.349L339.583 23.6033H280.099ZM279.618 23L251.724 74H312.829L340.724 23H279.618Z" fill="white" fill-opacity="0.12"/>
<path d="M152.744 95.5V81.276L152.464 79.036H156.72L163.048 90.236L169.6 79.036H173.38V95.5H169.684V85.056H169.376L168.284 87.492L164.756 93.82H161.368L157.84 87.492L156.72 85.056H156.44V95.5H152.744ZM180.722 95.5C179.789 95.5 179.07 95.3787 178.566 95.136C178.062 94.8933 177.698 94.5853 177.474 94.212C177.269 93.8387 177.138 93.4467 177.082 93.036C177.045 92.6253 177.026 92.252 177.026 91.916V86.54C177.026 86.26 177.045 85.924 177.082 85.532C177.138 85.1213 177.269 84.72 177.474 84.328C177.698 83.936 178.062 83.6093 178.566 83.348C179.089 83.0867 179.807 82.956 180.722 82.956H186.742C187.974 82.956 188.935 83.0773 189.626 83.32C190.335 83.544 190.83 83.9173 191.11 84.44C191.409 84.9627 191.558 85.6627 191.558 86.54V90.684H186.658C184.978 90.684 183.606 90.6467 182.542 90.572C181.497 90.4973 180.797 90.4507 180.442 90.432V91.972C180.423 92.7187 180.871 93.092 181.786 93.092H183.214C184.222 93.092 185.202 93.0827 186.154 93.064C187.125 93.0267 188.011 92.9893 188.814 92.952C189.617 92.896 190.261 92.8493 190.746 92.812L191.866 94.632C191.866 95.2107 190.027 95.5 186.35 95.5H180.722ZM180.442 88.276H188.142V86.484C188.142 86.1107 188.095 85.8493 188.002 85.7C187.927 85.5507 187.685 85.4573 187.274 85.42C186.863 85.3827 186.163 85.364 185.174 85.364H181.786C180.89 85.364 180.442 85.7373 180.442 86.484V88.276ZM198.085 95.5C197.152 95.5 196.433 95.3787 195.929 95.136C195.425 94.8933 195.061 94.5853 194.837 94.212C194.632 93.8387 194.501 93.4467 194.445 93.036C194.408 92.6253 194.389 92.252 194.389 91.916V86.54C194.389 86.26 194.408 85.924 194.445 85.532C194.501 85.1213 194.632 84.72 194.837 84.328C195.061 83.936 195.425 83.6093 195.929 83.348C196.452 83.0867 197.171 82.956 198.085 82.956H199.513C201.231 82.956 202.612 82.9933 203.657 83.068C204.721 83.124 205.533 83.1893 206.093 83.264V77.748H209.509V95.5H207.213L206.121 94.94C205.337 95.0707 204.395 95.2013 203.293 95.332C202.192 95.444 200.923 95.5 199.485 95.5H198.085ZM199.149 93.092H205.225C205.617 93.092 205.86 93.0453 205.953 92.952C206.047 92.8587 206.093 92.6253 206.093 92.252V85.56C205.459 85.5227 204.656 85.4853 203.685 85.448C202.715 85.392 201.679 85.364 200.577 85.364H199.149C198.253 85.364 197.805 85.7373 197.805 86.484V91.972C197.805 92.7187 198.253 93.092 199.149 93.092ZM215.142 81.192C214.451 81.192 213.947 81.052 213.63 80.772C213.312 80.492 213.154 80.0253 213.154 79.372C213.154 78.7 213.303 78.2333 213.602 77.972C213.919 77.692 214.432 77.552 215.142 77.552C215.851 77.552 216.364 77.692 216.682 77.972C216.999 78.2333 217.158 78.7 217.158 79.372C217.158 80.0067 216.999 80.4733 216.682 80.772C216.364 81.052 215.851 81.192 215.142 81.192ZM213.434 95.5V82.956H216.85V95.5H213.434ZM224.121 95.5C222.702 95.5 221.676 95.1733 221.041 94.52C220.406 93.848 220.089 92.9333 220.089 91.776C220.089 90.5627 220.416 89.6293 221.069 88.976C221.741 88.3227 222.758 87.996 224.121 87.996H225.549C226.949 87.996 228.209 88.0333 229.329 88.108C230.449 88.1827 231.373 88.2573 232.101 88.332V86.484C232.101 86.316 232.082 86.148 232.045 85.98C232.008 85.7933 231.896 85.644 231.709 85.532C231.522 85.42 231.205 85.364 230.757 85.364H229.357C227.322 85.364 225.624 85.4013 224.261 85.476C222.898 85.532 221.974 85.588 221.489 85.644L221.181 83.516C221.181 83.2547 221.89 83.096 223.309 83.04C224.728 82.984 227.098 82.956 230.421 82.956H231.821C232.754 82.956 233.473 83.0867 233.977 83.348C234.481 83.6093 234.836 83.936 235.041 84.328C235.265 84.72 235.396 85.1213 235.433 85.532C235.489 85.924 235.517 86.26 235.517 86.54V95.5H233.221L232.129 94.94C231.345 95.0707 230.402 95.2013 229.301 95.332C228.2 95.444 226.94 95.5 225.521 95.5H224.121ZM224.849 93.092H231.261C231.672 93.092 231.914 93.0547 231.989 92.98C232.064 92.9053 232.101 92.672 232.101 92.28V90.124H224.849C224.345 90.124 223.99 90.2453 223.785 90.488C223.598 90.7307 223.505 91.1133 223.505 91.636C223.505 92.1587 223.617 92.532 223.841 92.756C224.065 92.98 224.401 93.092 224.849 93.092ZM248.596 95.5C247.326 95.5 246.393 95.444 245.796 95.332C245.198 95.22 244.9 95.0893 244.9 94.94L246.02 92.504C246.449 92.5787 247.513 92.6533 249.212 92.728C250.929 92.784 253.281 92.812 256.268 92.812H256.8C257.602 92.812 258.172 92.672 258.508 92.392C258.844 92.0933 259.012 91.5987 259.012 90.908V90.348C259.012 89.6947 258.872 89.228 258.592 88.948C258.33 88.668 257.733 88.528 256.8 88.528H250.304C248.418 88.528 247.046 88.1827 246.188 87.492C245.329 86.7827 244.9 85.6347 244.9 84.048V83.6C244.9 82.7787 245.049 82.0227 245.348 81.332C245.665 80.6413 246.197 80.0907 246.944 79.68C247.69 79.2507 248.717 79.036 250.024 79.036H257.64C258.909 79.036 259.936 79.1013 260.72 79.232C261.504 79.3627 261.896 79.5027 261.896 79.652L261.336 82.004C260.85 81.948 259.749 81.892 258.032 81.836C256.314 81.7613 254.009 81.724 251.116 81.724L250.808 81.696C249.949 81.696 249.37 81.8733 249.072 82.228C248.773 82.564 248.614 82.9933 248.596 83.516V83.992C248.596 84.608 248.764 85.0747 249.1 85.392C249.454 85.6907 250.033 85.84 250.836 85.84H257.052C258.246 85.84 259.264 85.9613 260.104 86.204C260.944 86.4467 261.588 86.8947 262.036 87.548C262.484 88.1827 262.708 89.1253 262.708 90.376V90.824C262.708 92.224 262.344 93.3533 261.616 94.212C260.906 95.0707 259.665 95.5 257.892 95.5H248.596ZM269.815 95.5C268.396 95.5 267.425 95.2013 266.903 94.604C266.38 94.0067 266.119 93.1107 266.119 91.916V85.364H263.823V82.956H264.999C265.353 82.956 265.605 82.9 265.755 82.788C265.923 82.676 266.044 82.452 266.119 82.116L266.679 79.12H269.535V82.956H275.359V85.364H269.535V91.944C269.535 92.4107 269.647 92.7187 269.871 92.868C270.095 93.0173 270.431 93.092 270.879 93.092H274.827L275.107 95.22C274.715 95.276 274.117 95.3413 273.315 95.416C272.512 95.472 271.635 95.5 270.683 95.5H269.815ZM281.299 95.5C280.384 95.5 279.666 95.3787 279.143 95.136C278.639 94.8933 278.275 94.5853 278.051 94.212C277.846 93.8387 277.715 93.4467 277.659 93.036C277.622 92.6253 277.603 92.252 277.603 91.916V82.956H281.019V91.972C281 92.3827 281.131 92.672 281.411 92.84C281.71 93.008 282.027 93.092 282.363 93.092H287.907C288.318 93.092 288.56 93.0547 288.635 92.98C288.71 92.9053 288.747 92.6627 288.747 92.252V82.956H292.163V95.5H289.867L288.803 94.94C288.056 95.0893 287.17 95.22 286.143 95.332C285.135 95.444 283.996 95.5 282.727 95.5H281.299ZM298.929 95.5C297.996 95.5 297.277 95.3787 296.773 95.136C296.269 94.8933 295.905 94.5853 295.681 94.212C295.476 93.8387 295.345 93.4467 295.289 93.036C295.252 92.6253 295.233 92.252 295.233 91.916V86.54C295.233 86.26 295.252 85.924 295.289 85.532C295.345 85.1213 295.476 84.72 295.681 84.328C295.905 83.936 296.269 83.6093 296.773 83.348C297.296 83.0867 298.014 82.956 298.929 82.956H300.357C302.074 82.956 303.456 82.9933 304.501 83.068C305.565 83.124 306.377 83.1893 306.937 83.264V77.748H310.353V95.5H308.057L306.965 94.94C306.181 95.0707 305.238 95.2013 304.137 95.332C303.036 95.444 301.766 95.5 300.329 95.5H298.929ZM299.993 93.092H306.069C306.461 93.092 306.704 93.0453 306.797 92.952C306.89 92.8587 306.937 92.6253 306.937 92.252V85.56C306.302 85.5227 305.5 85.4853 304.529 85.448C303.558 85.392 302.522 85.364 301.421 85.364H299.993C299.097 85.364 298.649 85.7373 298.649 86.484V91.972C298.649 92.7187 299.097 93.092 299.993 93.092ZM315.985 81.192C315.295 81.192 314.791 81.052 314.473 80.772C314.156 80.492 313.997 80.0253 313.997 79.372C313.997 78.7 314.147 78.2333 314.445 77.972C314.763 77.692 315.276 77.552 315.985 77.552C316.695 77.552 317.208 77.692 317.525 77.972C317.843 78.2333 318.001 78.7 318.001 79.372C318.001 80.0067 317.843 80.4733 317.525 80.772C317.208 81.052 316.695 81.192 315.985 81.192ZM314.277 95.5V82.956H317.693V95.5H314.277ZM324.769 95.5C323.518 95.5 322.585 95.248 321.969 94.744C321.372 94.24 321.073 93.4187 321.073 92.28V86.54C321.073 86.26 321.092 85.924 321.129 85.532C321.185 85.1213 321.316 84.72 321.521 84.328C321.745 83.936 322.109 83.6093 322.613 83.348C323.136 83.0867 323.854 82.956 324.769 82.956H332.497C333.43 82.956 334.149 83.0867 334.653 83.348C335.157 83.6093 335.512 83.936 335.717 84.328C335.941 84.72 336.072 85.1213 336.109 85.532C336.165 85.924 336.193 86.26 336.193 86.54V91.916C336.193 92.252 336.165 92.6253 336.109 93.036C336.072 93.4467 335.941 93.8387 335.717 94.212C335.493 94.5853 335.129 94.8933 334.625 95.136C334.121 95.3787 333.412 95.5 332.497 95.5H324.769ZM325.833 93.092H331.433C332.348 93.092 332.805 92.7187 332.805 91.972V86.484C332.805 85.7373 332.348 85.364 331.433 85.364H325.833C324.937 85.364 324.489 85.7373 324.489 86.484V91.972C324.489 92.7187 324.937 93.092 325.833 93.092Z" fill="white"/>
<path fill-rule="evenodd" clip-rule="evenodd" d="M126.26 22.625H187.533L210.079 69.4991H209.11L186.988 23.4991H127.654L149.753 69.4991H148.782L126.26 22.625ZM168.962 111.499L189.382 153.999L250.441 153.416L230.28 111.499H229.308L249.052 152.555L189.925 153.12L169.93 111.499H168.962Z" fill="white" fill-opacity="0.12"/>
</g>
<g filter="url(#filter2_f_1290_13579)">
<ellipse cx="66.2592" cy="169" rx="1.99654" ry="2" fill="#F7B733" fill-opacity="0.13"/>
</g>
<g filter="url(#filter3_f_1290_13579)">
<ellipse cx="91.2182" cy="146" rx="1.99654" ry="2" fill="#F7B733"/>
</g>
<g filter="url(#filter4_f_1290_13579)">
<ellipse cx="77.2405" cy="148" rx="0.998268" ry="1" fill="#F7B733"/>
</g>
<g filter="url(#filter5_f_1290_13579)">
<ellipse cx="59.2719" cy="20" rx="1.99654" ry="2" fill="#F7B733"/>
</g>
<g filter="url(#filter6_f_1290_13579)">
<ellipse cx="69.2555" cy="137" rx="2.9948" ry="3" fill="#F7B733"/>
</g>
<g filter="url(#filter7_f_1290_13579)">
<ellipse cx="117.172" cy="98" rx="2.9948" ry="3" fill="#F7B733" fill-opacity="0.28"/>
</g>
<defs>
<filter id="filter0_f_1290_13579" x="113.177" y="25" width="7.98926" height="8" filterUnits="userSpaceOnUse" color-interpolation-filters="sRGB">
<feFlood flood-opacity="0" result="BackgroundImageFix"/>
<feBlend mode="normal" in="SourceGraphic" in2="BackgroundImageFix" result="shape"/>
<feGaussianBlur stdDeviation="0.5" result="effect1_foregroundBlur_1290_13579"/>
</filter>
<filter id="filter1_b_1290_13579" x="242.079" y="92.7" width="108.289" height="69.6" filterUnits="userSpaceOnUse" color-interpolation-filters="sRGB">
<feFlood flood-opacity="0" result="BackgroundImageFix"/>
<feGaussianBlur in="BackgroundImageFix" stdDeviation="4.4"/>
<feComposite in2="SourceAlpha" operator="in" result="effect1_backgroundBlur_1290_13579"/>
<feBlend mode="normal" in="SourceGraphic" in2="effect1_backgroundBlur_1290_13579" result="shape"/>
</filter>
<filter id="filter2_f_1290_13579" x="63.2627" y="166" width="5.99316" height="6" filterUnits="userSpaceOnUse" color-interpolation-filters="sRGB">
<feFlood flood-opacity="0" result="BackgroundImageFix"/>
<feBlend mode="normal" in="SourceGraphic" in2="BackgroundImageFix" result="shape"/>
<feGaussianBlur stdDeviation="0.5" result="effect1_foregroundBlur_1290_13579"/>
</filter>
<filter id="filter3_f_1290_13579" x="86.7217" y="141.5" width="8.99316" height="9" filterUnits="userSpaceOnUse" color-interpolation-filters="sRGB">
<feFlood flood-opacity="0" result="BackgroundImageFix"/>
<feBlend mode="normal" in="SourceGraphic" in2="BackgroundImageFix" result="shape"/>
<feGaussianBlur stdDeviation="1.25" result="effect1_foregroundBlur_1290_13579"/>
</filter>
<filter id="filter4_f_1290_13579" x="75.2422" y="146" width="3.99609" height="4" filterUnits="userSpaceOnUse" color-interpolation-filters="sRGB">
<feFlood flood-opacity="0" result="BackgroundImageFix"/>
<feBlend mode="normal" in="SourceGraphic" in2="BackgroundImageFix" result="shape"/>
<feGaussianBlur stdDeviation="0.5" result="effect1_foregroundBlur_1290_13579"/>
</filter>
<filter id="filter5_f_1290_13579" x="56.2754" y="17" width="5.99316" height="6" filterUnits="userSpaceOnUse" color-interpolation-filters="sRGB">
<feFlood flood-opacity="0" result="BackgroundImageFix"/>
<feBlend mode="normal" in="SourceGraphic" in2="BackgroundImageFix" result="shape"/>
<feGaussianBlur stdDeviation="0.5" result="effect1_foregroundBlur_1290_13579"/>
</filter>
<filter id="filter6_f_1290_13579" x="65.2607" y="133" width="7.98926" height="8" filterUnits="userSpaceOnUse" color-interpolation-filters="sRGB">
<feFlood flood-opacity="0" result="BackgroundImageFix"/>
<feBlend mode="normal" in="SourceGraphic" in2="BackgroundImageFix" result="shape"/>
<feGaussianBlur stdDeviation="0.5" result="effect1_foregroundBlur_1290_13579"/>
</filter>
<filter id="filter7_f_1290_13579" x="112.177" y="93" width="9.98926" height="10" filterUnits="userSpaceOnUse" color-interpolation-filters="sRGB">
<feFlood flood-opacity="0" result="BackgroundImageFix"/>
<feBlend mode="normal" in="SourceGraphic" in2="BackgroundImageFix" result="shape"/>
<feGaussianBlur stdDeviation="1" result="effect1_foregroundBlur_1290_13579"/>
</filter>
<linearGradient id="paint0_linear_1290_13579" x1="6.615" y1="12.76" x2="348.358" y2="188.854" gradientUnits="userSpaceOnUse">
<stop stop-color="#FFAD27" stop-opacity="0.41"/>
<stop offset="0.690448" stop-color="#FEBA4A" stop-opacity="0.1"/>
</linearGradient>
<linearGradient id="paint1_linear_1290_13579" x1="-0.500003" y1="5.59088e-06" x2="377.5" y2="176" gradientUnits="userSpaceOnUse">
<stop stop-color="#F7B733"/>
<stop offset="1" stop-color="#F7B733" stop-opacity="0"/>
</linearGradient>
</defs>
</svg>
